{
.appVersion = "1141";
DisplayStrings = (

glyphs = (
{
color = 5;
glyphname = A;
layers = (
{
anchors = (
{
name = bottom;
position = "{333, 0}";
},
{
name = ogonek;
position = "{599, 0}";
},
{
name = top;
position = "{333, 700}";
}
);
layerId = "4BC9CD2E-8AD0-40CC-97AA-8C7B556514B0";
paths = (
{
closed = 1;
nodes = (
"168 1 LINE",
"332 550 LINE",
"496 1 LINE",
"624 1 LINE",
"407 700 LINE",
"256 700 LINE",
"40 1 LINE"
);
},
{
closed = 1;
nodes = (
"497 170 LINE",
"497 274 LINE",
"166 274 LINE",
"166 170 LINE"
);
}
);
width = 664;
},
{
anchors = (
{
name = bottom;
position = "{320, 0}";
},
{
name = ogonek;
position = "{576, 10}";
},
{
name = top;
position = "{320, 700}";
}
);
layerId = "3C8330F3-4770-4812-9C95-859F387513C1";
paths = (
{
closed = 1;
nodes = (
"95 0 LINE",
"320 640 LINE",
"545 0 LINE",
"600 0 LINE",
"354 700 LINE",
"286 700 LINE",
"40 0 LINE"
);
},
{
closed = 1;
nodes = (
"498 183 LINE",
"498 225 LINE",
"150 225 LINE",
"150 183 LINE"
);
}
);
width = 640;
}
);
leftKerningGroup = "upper-A";
unicode = 0041;
},
{
color = 5;
glyphname = AE;
layers = (
{
layerId = "4BC9CD2E-8AD0-40CC-97AA-8C7B556514B0";
paths = (
{
closed = 1;
nodes = (
"170 0 LINE",
"216 155 LINE",
"445 155 LINE",
"494 0 LINE",
"819 0 LINE",
"819 122 LINE",
"586 122 LINE",
"535 287 LINE",
"770 287 LINE",
"770 398 LINE",
"501 398 LINE",
"445 578 LINE",
"819 578 LINE",
"819 700 LINE",
"250 700 LINE",
"40 0 LINE"
);
},
{
closed = 1;
nodes = (
"328 548 LINE",
"406 281 LINE",
"254 281 LINE"
);
}
);
width = 869;
},
{
layerId = "3C8330F3-4770-4812-9C95-859F387513C1";
paths = (
{
closed = 1;
nodes = (
"95 0 LINE",
"159 183 LINE",
"481 183 LINE",
"545 0 LINE",
"762 0 LINE",
"762 46 LINE",
"584 46 LINE",
"488 320 LINE",
"700 320 LINE",
"700 366 LINE",
"471 366 LINE",
"370 654 LINE",
"762 654 LINE",
"762 700 LINE",
"286 700 LINE",
"40 0 LINE"
);
},
{
closed = 1;
nodes = (
"320 640 LINE",
"466 226 LINE",
"174 226 LINE"
);
}
);
width = 812;
}
);
leftKerningGroup = "upper-A";
unicode = 00C6;
},
{
color = 5;
glyphname = B;
layers = (
{
layerId = "4BC9CD2E-8AD0-40CC-97AA-8C7B556514B0";
paths = (
{
closed = 1;
nodes = (
"345 0 LINE SMOOTH",
"447 0 OFFCURVE",
"530 109 OFFCURVE",
"530 213 CURVE SMOOTH",
"530 277 OFFCURVE",
"503 336 OFFCURVE",
"458 373 CURVE",
"485 412 OFFCURVE",
"498 459 OFFCURVE",
"498 502 CURVE SMOOTH",
"498 607 OFFCURVE",
"426 700 OFFCURVE",
"316 700 CURVE SMOOTH",
"50 700 LINE",
"50 0 LINE"
);
},
{
closed = 1;
nodes = (
"173 290 LINE",
"348 290 LINE SMOOTH",
"382 290 OFFCURVE",
"407 256 OFFCURVE",
"407 213 CURVE SMOOTH",
"407 171 OFFCURVE",
"377 125 OFFCURVE",
"345 125 CURVE SMOOTH",
"173 125 LINE"
);
},
{
closed = 1;
nodes = (
"173 575 LINE",
"316 575 LINE SMOOTH",
"353 575 OFFCURVE",
"376 540 OFFCURVE",
"376 502 CURVE SMOOTH",
"376 458 OFFCURVE",
"348 410 OFFCURVE",
"313 410 CURVE SMOOTH",
"173 410 LINE"
);
}
);
width = 570;
},
{
layerId = "3C8330F3-4770-4812-9C95-859F387513C1";
paths = (
{
closed = 1;
nodes = (
"344 0 LINE SMOOTH",
"436 0 OFFCURVE",
"519 100 OFFCURVE",
"519 196 CURVE SMOOTH",
"519 263 OFFCURVE",
"487 319 OFFCURVE",
"411 366 CURVE",
"461 422 OFFCURVE",
"481 457 OFFCURVE",
"481 521 CURVE SMOOTH",
"481 623 OFFCURVE",
"408 700 OFFCURVE",
"310 700 CURVE SMOOTH",
"50 700 LINE",
"50 0 LINE"
);
},
{
closed = 1;
nodes = (
"102 327 LINE",
"347 327 LINE SMOOTH",
"419 327 OFFCURVE",
"466 265 OFFCURVE",
"466 196 CURVE SMOOTH",
"466 129 OFFCURVE",
"414 50 OFFCURVE",
"344 50 CURVE SMOOTH",
"102 50 LINE"
);
},
{
closed = 1;
nodes = (
"102 650 LINE",
"310 650 LINE SMOOTH",
"383 650 OFFCURVE",
"428 592 OFFCURVE",
"428 521 CURVE SMOOTH",
"428 447 OFFCURVE",
"372 373 OFFCURVE",
"306 373 CURVE SMOOTH",
"102 373 LINE"
);
}
);
width = 559;
}
);
unicode = 0042;
},
{
color = 5;
glyphname = C;
layers = (
{
anchors = (
{
name = bottom;
position = "{358, 0}";
},
{
name = top;
position = "{358, 700}";
}
);
layerId = "4BC9CD2E-8AD0-40CC-97AA-8C7B556514B0";
paths = (
{
closed = 1;
nodes = (
"483 -11 OFFCURVE",
"576 34 OFFCURVE",
"655 130 CURVE",
"558 210 LINE",
"503 142 OFFCURVE",
"445 114 OFFCURVE",
"382 114 CURVE SMOOTH",
"322 114 OFFCURVE",
"269 139 OFFCURVE",
"229 182 CURVE SMOOTH",
"189 225 OFFCURVE",
"165 280 OFFCURVE",
"165 349 CURVE SMOOTH",
"165 418 OFFCURVE",
"189 476 OFFCURVE",
"229 517 CURVE SMOOTH",
"270 559 OFFCURVE",
"322 585 OFFCURVE",
"382 585 CURVE SMOOTH",
"445 585 OFFCURVE",
"503 557 OFFCURVE",
"558 489 CURVE",
"655 569 LINE",
"576 665 OFFCURVE",
"483 710 OFFCURVE",
"382 710 CURVE SMOOTH",
"286 710 OFFCURVE",
"202 670 OFFCURVE",
"141 606 CURVE SMOOTH",
"79 541 OFFCURVE",
"40 451 OFFCURVE",
"40 349 CURVE SMOOTH",
"40 244 OFFCURVE",
"78 157 OFFCURVE",
"141 93 CURVE SMOOTH",
"203 30 OFFCURVE",
"286 -11 OFFCURVE",
"382 -11 CURVE SMOOTH"
);
}
);
width = 695;
},
{
anchors = (
{
name = bottom;
position = "{388, 0}";
},
{
name = top;
position = "{388, 700}";
}
);
layerId = "3C8330F3-4770-4812-9C95-859F387513C1";
paths = (
{
closed = 1;
nodes = (
"484 -10 OFFCURVE",
"570 27 OFFCURVE",
"637 98 CURVE",
"596 131 LINE",
"540 75 OFFCURVE",
"468 39 OFFCURVE",
"388 39 CURVE SMOOTH",
"305 39 OFFCURVE",
"234 74 OFFCURVE",
"179 130 CURVE SMOOTH",
"125 185 OFFCURVE",
"93 261 OFFCURVE",
"93 350 CURVE SMOOTH",
"93 438 OFFCURVE",
"126 514 OFFCURVE",
"179 570 CURVE SMOOTH",
"233 627 OFFCURVE",
"305 661 OFFCURVE",
"388 661 CURVE SMOOTH",
"468 661 OFFCURVE",
"540 625 OFFCURVE",
"596 569 CURVE",
"637 602 LINE",
"570 673 OFFCURVE",
"484 710 OFFCURVE",
"388 710 CURVE SMOOTH",
"291 710 OFFCURVE",
"205 670 OFFCURVE",
"141 606 CURVE SMOOTH",
"77 542 OFFCURVE",
"40 452 OFFCURVE",
"40 350 CURVE SMOOTH",
"40 245 OFFCURVE",
"77 158 OFFCURVE",
"141 94 CURVE SMOOTH",
"205 30 OFFCURVE",
"291 -10 OFFCURVE",
"388 -10 CURVE SMOOTH"
);
}
);
width = 677;
}
);
leftKerningGroup = "upper-rounds";
unicode = 0043;
},
{
color = 5;
glyphname = D;
layers = (
{
anchors = (
{
name = bottom;
position = "{319, 0}";
},
{
name = center;
position = "{193, 350}";
},
{
name = top;
position = "{319, 700}";
}
);
layerId = "4BC9CD2E-8AD0-40CC-97AA-8C7B556514B0";
paths = (
{
closed = 1;
nodes = (
"598 160 OFFCURVE",
"598 352 CURVE SMOOTH",
"598 540 OFFCURVE",
"453 703 OFFCURVE",
"261 703 CURVE SMOOTH",
"50 703 LINE",
"50 0 LINE",
"261 0 LINE SMOOTH",
"451 0 OFFCURVE"
);
},
{
closed = 1;
nodes = (
"474 481 OFFCURVE",
"474 352 CURVE SMOOTH",
"474 225 OFFCURVE",
"382 123 OFFCURVE",
"261 123 CURVE SMOOTH",
"170 123 LINE",
"170 580 LINE",
"261 580 LINE SMOOTH",
"381 580 OFFCURVE"
);
}
);
width = 638;
},
{
anchors = (
{
name = bottom;
position = "{319, 0}";
},
{
name = center;
position = "{204, 350}";
},
{
name = top;
position = "{319, 700}";
}
);
layerId = "3C8330F3-4770-4812-9C95-859F387513C1";
paths = (
{
closed = 1;
nodes = (
"597 156 OFFCURVE",
"597 352 CURVE SMOOTH",
"597 546 OFFCURVE",
"441 703 OFFCURVE",
"250 703 CURVE SMOOTH",
"50 703 LINE",
"50 0 LINE",
"250 0 LINE SMOOTH",
"440 0 OFFCURVE"
);
},
{
closed = 1;
nodes = (
"544 518 OFFCURVE",
"544 352 CURVE SMOOTH",
"544 189 OFFCURVE",
"418 48 OFFCURVE",
"250 48 CURVE SMOOTH",
"103 48 LINE",
"103 656 LINE",
"250 656 LINE SMOOTH",
"418 656 OFFCURVE"
);
}
);
width = 637;
}
);
unicode = 0044;
},
{
color = 5;
glyphname = E;
layers = (
{
anchors = (
{
name = bottom;
position = "{234, 0}";
},
{
name = ogonek;
position = "{420, 10}";
},
{
name = top;
position = "{234, 700}";
},
{
name = topleft;
position = "{20, 700}";
}
);
layerId = "4BC9CD2E-8AD0-40CC-97AA-8C7B556514B0";
paths = (
{
closed = 1;
nodes = (
"427 112 LINE",
"170 112 LINE",
"170 292 LINE",
"378 292 LINE",
"378 393 LINE",
"170 393 LINE",
"170 588 LINE",
"427 588 LINE",
"427 700 LINE",
"50 700 LINE",
"50 0 LINE",
"427 0 LINE"
);
}
);
width = 467;
},
{
anchors = (
{
name = bottom;
position = "{236, 0}";
},
{
name = ogonek;
position = "{422, 10}";
},
{
name = top;
position = "{236, 700}";
},
{
name = topleft;
position = "{22, 700}";
}
);
layerId = "3C8330F3-4770-4812-9C95-859F387513C1";
paths = (
{
closed = 1;
nodes = (
"429 46 LINE",
"102 46 LINE",
"102 320 LINE",
"367 320 LINE",
"367 366 LINE",
"102 366 LINE",
"102 654 LINE",
"429 654 LINE",
"429 700 LINE",
"50 700 LINE",
"50 0 LINE",
"429 0 LINE"
);
}
);
width = 469;
}
);
unicode = 0045;
},
{
color = 5;
glyphname = F;
layers = (
{
layerId = "4BC9CD2E-8AD0-40CC-97AA-8C7B556514B0";
paths = (
{
closed = 1;
nodes = (
"427 700 LINE",
"50 700 LINE",
"50 0 LINE",
"170 0 LINE",
"170 288 LINE",
"378 288 LINE",
"378 399 LINE",
"170 399 LINE",
"170 578 LINE",
"427 578 LINE"
);
}
);
width = 467;
},
{
layerId = "3C8330F3-4770-4812-9C95-859F387513C1";
paths = (
{
closed = 1;
nodes = (
"424 700 LINE",
"50 700 LINE",
"50 0 LINE",
"102 0 LINE",
"102 321 LINE",
"362 321 LINE",
"362 367 LINE",
"102 367 LINE",
"102 654 LINE",
"424 654 LINE"
);
}
);
width = 464;
}
);
unicode = 0046;
},
{
color = 5;
glyphname = G;
layers = (
{
anchors = (
{
name = bottom;
position = "{359, 0}";
},
{
name = top;
position = "{359, 700}";
}
);
layerId = "4BC9CD2E-8AD0-40CC-97AA-8C7B556514B0";
paths = (
{
closed = 1;
nodes = (
"523 -9 OFFCURVE",
"620 41 OFFCURVE",
"677 160 CURVE",
"677 356 LINE",
"437 356 LINE",
"437 238 LINE",
"550 238 LINE",
"550 192 LINE",
"514 137 OFFCURVE",
"467 117 OFFCURVE",
"382 117 CURVE SMOOTH",
"264 117 OFFCURVE",
"167 228 OFFCURVE",
"167 346 CURVE SMOOTH",
"167 474 OFFCURVE",
"260 581 OFFCURVE",
"382 581 CURVE SMOOTH",
"454 581 OFFCURVE",
"521 546 OFFCURVE",
"572 466 CURVE",
"678 535 LINE",
"603 651 OFFCURVE",
"499 708 OFFCURVE",
"382 708 CURVE SMOOTH",
"190 708 OFFCURVE",
"40 540 OFFCURVE",
"40 346 CURVE SMOOTH",
"40 151 OFFCURVE",
"193 -9 OFFCURVE",
"382 -9 CURVE SMOOTH"
);
}
);
width = 718;
},
{
anchors = (
{
name = bottom;
position = "{386, 0}";
},
{
name = top;
position = "{386, 700}";
}
);
layerId = "3C8330F3-4770-4812-9C95-859F387513C1";
paths = (
{
closed = 1;
nodes = (
"530 -11 OFFCURVE",
"621 38 OFFCURVE",
"677 145 CURVE",
"677 320 LINE",
"493 320 LINE",
"493 268 LINE",
"623 268 LINE",
"623 157 LINE",
"567 69 OFFCURVE",
"495 40 OFFCURVE",
"386 40 CURVE SMOOTH",
"222 40 OFFCURVE",
"94 179 OFFCURVE",
"94 344 CURVE SMOOTH",
"94 512 OFFCURVE",
"217 656 OFFCURVE",
"386 656 CURVE SMOOTH",
"478 656 OFFCURVE",
"559 616 OFFCURVE",
"615 544 CURVE",
"660 573 LINE",
"595 660 OFFCURVE",
"495 710 OFFCURVE",
"386 710 CURVE SMOOTH",
"196 710 OFFCURVE",
"40 548 OFFCURVE",
"40 344 CURVE SMOOTH",
"40 148 OFFCURVE",
"196 -11 OFFCURVE",
"386 -11 CURVE SMOOTH"
);
}
);
width = 717;
}
);
leftKerningGroup = "upper-rounds";
unicode = 0047;
},
{
color = 5;
glyphname = H;
layers = (
{
anchors = (
{
name = bottom;
position = "{299, 0}";
},
{
name = center;
position = "{299, 556}";
},
{
name = top;
position = "{299, 700}";
},
{
name = topleft;
position = "{16, 700}";
}
);
layerId = "4BC9CD2E-8AD0-40CC-97AA-8C7B556514B0";
paths = (
{
closed = 1;
nodes = (
"549 700 LINE",
"429 700 LINE",
"429 395 LINE",
"170 395 LINE",
"170 700 LINE",
"50 700 LINE",
"50 0 LINE",
"170 0 LINE",
"170 285 LINE",
"429 285 LINE",
"429 0 LINE",
"549 0 LINE"
);
}
);
width = 599;
},
{
anchors = (
{
name = bottom;
position = "{301, 0}";
},
{
name = center;
position = "{301, 586}";
},
{
name = top;
position = "{301, 700}";
},
{
name = topleft;
position = "{18, 700}";
}
);
layerId = "3C8330F3-4770-4812-9C95-859F387513C1";
paths = (
{
closed = 1;
nodes = (
"554 700 LINE",
"502 700 LINE",
"502 359 LINE",
"102 359 LINE",
"102 700 LINE",
"50 700 LINE",
"50 0 LINE",
"102 0 LINE",
"102 319 LINE",
"502 319 LINE",
"502 0 LINE",
"554 0 LINE"
);
}
);
width = 604;
}
);
unicode = 0048;
},
{
color = 5;
glyphname = I;
layers = (
{
anchors = (
{
name = bottom;
position = "{110, 0}";
},
{
name = ogonek;
position = "{134, 10}";
},
{
name = top;
position = "{110, 700}";
},
{
name = topleft;
position = "{20, 700}";
}
);
layerId = "4BC9CD2E-8AD0-40CC-97AA-8C7B556514B0";
paths = (
{
closed = 1;
nodes = (
"170 700 LINE",
"50 700 LINE",
"50 0 LINE",
"170 0 LINE"
);
}
);
width = 220;
},
{
anchors = (
{
name = bottom;
position = "{76, 0}";
},
{
name = ogonek;
position = "{112, 10}";
},
{
name = top;
position = "{76, 700}";
},
{
name = topleft;
position = "{20, 700}";
}
);
layerId = "3C8330F3-4770-4812-9C95-859F387513C1";
paths = (
{
closed = 1;
nodes = (
"102 700 LINE",
"50 700 LINE",
"50 0 LINE",
"102 0 LINE"
);
}
);
width = 152;
}
);
unicode = 0049;
},
{
color = 5;
glyphname = J;
layers = (
{
layerId = "4BC9CD2E-8AD0-40CC-97AA-8C7B556514B0";
paths = (
{
closed = 1;
nodes = (
"340 111 OFFCURVE",
"350 181 OFFCURVE",
"350 277 CURVE SMOOTH",
"350 700 LINE",
"233 700 LINE",
"233 277 LINE SMOOTH",
"233 186 OFFCURVE",
"229 129 OFFCURVE",
"182 122 CURVE SMOOTH",
"150 117 OFFCURVE",
"105 125 OFFCURVE",
"63 142 CURVE",
"30 25 LINE",
"142 -16 OFFCURVE",
"246 -27 OFFCURVE",
"308 64 CURVE SMOOTH"
);
}
);
width = 400;
},
{
layerId = "3C8330F3-4770-4812-9C95-859F387513C1";
paths = (
{
closed = 1;
nodes = (
"311 90 OFFCURVE",
"327 156 OFFCURVE",
"327 263 CURVE SMOOTH",
"327 700 LINE",
"275 700 LINE",
"275 263 LINE SMOOTH",
"275 163 OFFCURVE",
"265 110 OFFCURVE",
"238 78 CURVE SMOOTH",
"196 28 OFFCURVE",
"121 44 OFFCURVE",
"45 64 CURVE",
"30 18 LINE",
"97 -6 OFFCURVE",
"221 -29 OFFCURVE",
"280 49 CURVE SMOOTH"
);
}
);
width = 377;
}
);
unicode = 004A;
},
{
color = 5;
glyphname = K;
layers = (
{
anchors = (
{
name = bottom;
position = "{292, 0}";
},
{
name = top;
position = "{292, 700}";
}
);
guideLines = (
{
angle = 90;
position = "{540, 648}";
}
);
layerId = "4BC9CD2E-8AD0-40CC-97AA-8C7B556514B0";
paths = (
{
closed = 1;
nodes = (
"276 352 LINE",
"540 702 LINE",
"394 702 LINE",
"169 419 LINE",
"169 701 LINE",
"50 701 LINE",
"50 0 LINE",
"169 0 LINE",
"169 280 LINE",
"191 251 LINE",
"396 0 LINE",
"538 0 LINE"
);
}
);
width = 580;
},
{
anchors = (
{
name = bottom;
position = "{287, 0}";
},
{
name = top;
position = "{287, 700}";
}
);
guideLines = (
{
angle = 90;
position = "{488, 553}";
},
{
angle = 48.6215;
position = "{224, 398}";
}
);
layerId = "3C8330F3-4770-4812-9C95-859F387513C1";
paths = (
{
closed = 1;
nodes = (
"185 357 LINE",
"488 702 LINE",
"420 702 LINE",
"102 342 LINE",
"102 701 LINE",
"50 701 LINE",
"50 0 LINE",
"102 0 LINE",
"102 264 LINE",
"148 315 LINE",
"427 0 LINE",
"488 0 LINE"
);
}
);
width = 528;
}
);
unicode = 004B;
},
{
color = 5;
glyphname = L;
layers = (
{
anchors = (
{
name = bottom;
position = "{210, 0}";
},
{
name = center;
position = "{114, 350}";
},
{
name = top;
position = "{210, 700}";
},
{
name = topright;
position = "{399, 700}";
}
);
layerId = "4BC9CD2E-8AD0-40CC-97AA-8C7B556514B0";
paths = (
{
closed = 1;
nodes = (
"379 118 LINE",
"170 118 LINE",
"170 700 LINE",
"50 700 LINE",
"50 0 LINE",
"379 0 LINE"
);
}
);
width = 419;
},
{
anchors = (
{
name = bottom;
position = "{210, 0}";
},
{
name = center;
position = "{84, 350}";
},
{
name = top;
position = "{210, 700}";
},
{
name = topright;
position = "{397, 700}";
}
);
layerId = "3C8330F3-4770-4812-9C95-859F387513C1";
paths = (
{
closed = 1;
nodes = (
"377 48 LINE",
"105 48 LINE",
"105 700 LINE",
"53 700 LINE",
"53 0 LINE",
"377 0 LINE"
);
}
);
width = 417;
}
);
unicode = 004C;
},
{
glyphname = Lslash;
layers = (
{
anchors = (
{
name = _center;
position = "{255, 350}";
}
);
components = (
{
alignment = -1;
name = L;
transform = "{1, 0, 0, 1, 141, 0}";
}
);
layerId = "4BC9CD2E-8AD0-40CC-97AA-8C7B556514B0";
paths = (
{
closed = 1;
nodes = (
"355 571 LINE",
"50 185 LINE",
"158 185 LINE",
"464 571 LINE"
);
}
);
width = 560;
},
{
anchors = (
{
name = _center;
position = "{214, 350}";
}
);
components = (
{
alignment = -1;
name = L;
transform = "{1, 0, 0, 1, 127, 0}";
}
);
layerId = "3C8330F3-4770-4812-9C95-859F387513C1";
paths = (
{
closed = 1;
nodes = (
"302 529 LINE",
"53 207 LINE",
"100 207 LINE",
"350 529 LINE"
);
}
);
width = 544;
}
);
leftMetricsKey = L;
rightMetricsKey = L;
unicode = 0141;
},
{
color = 5;
glyphname = M;
layers = (
{
layerId = "4BC9CD2E-8AD0-40CC-97AA-8C7B556514B0";
paths = (
{
closed = 1;
nodes = (
"170 0 LINE",
"170 553 LINE",
"170 553 LINE",
"353 100 LINE",
"466 100 LINE",
"648 553 LINE",
"648 553 LINE",
"648 0 LINE",
"768 0 LINE",
"768 700 LINE",
"574 700 LINE",
"409 258 LINE",
"244 700 LINE",
"50 700 LINE",
"50 0 LINE"
);
}
);
width = 818;
},
{
layerId = "3C8330F3-4770-4812-9C95-859F387513C1";
paths = (
{
closed = 1;
nodes = (
"102 0 LINE",
"102 648 LINE",
"160 648 LINE",
"378 115 LINE",
"447 115 LINE",
"664 648 LINE",
"722 648 LINE",
"722 0 LINE",
"774 0 LINE",
"774 700 LINE",
"629 700 LINE",
"412 167 LINE",
"195 700 LINE",
"50 700 LINE",
"50 0 LINE"
);
}
);
width = 824;
}
);
unicode = 004D;
},
{
color = 5;
glyphname = N;
layers = (
{
anchors = (
{
name = bottom;
position = "{311, 0}";
},
{
name = top;
position = "{311, 700}";
}
);
layerId = "4BC9CD2E-8AD0-40CC-97AA-8C7B556514B0";
paths = (
{
closed = 1;
nodes = (
"572 700 LINE",
"452 700 LINE",
"452 167 LINE",
"215 700 LINE",
"50 700 LINE",
"50 1 LINE",
"170 1 LINE",
"170 544 LINE",
"418 0 LINE",
"572 0 LINE"
);
}
);
width = 622;
},
{
anchors = (
{
name = bottom;
position = "{313, 0}";
},
{
name = top;
position = "{313, 700}";
}
);
layerId = "3C8330F3-4770-4812-9C95-859F387513C1";
paths = (
{
closed = 1;
nodes = (
"576 702 LINE",
"524 702 LINE",
"524 54 LINE",
"133 702 LINE",
"50 702 LINE",
"50 1 LINE",
"102 1 LINE",
"102 652 LINE",
"494 0 LINE",
"576 0 LINE"
);
}
);
width = 626;
}
);
unicode = 004E;
},
{
color = 5;
glyphname = Eng;
layers = (
{
components = (
{
name = N;
}
);
layerId = "4BC9CD2E-8AD0-40CC-97AA-8C7B556514B0";
paths = (
{
closed = 1;
nodes = (
"525 -174 OFFCURVE",
"574 -123 OFFCURVE",
"573 1 CURVE",
"573 195 LINE",
"454 195 LINE",
"454 1 LINE",
"457 -73 OFFCURVE",
"406 -65 OFFCURVE",
"326 -65 CURVE",
"326 -168 LINE"
);
}
);
width = 623;
},
{
components = (
{
name = N;
}
);
layerId = "3C8330F3-4770-4812-9C95-859F387513C1";
paths = (
{
closed = 1;
nodes = (
"534 -148 OFFCURVE",
"580 -131 OFFCURVE",
"576 -3 CURVE",
"576 23 LINE",
"523 23 LINE",
"523 -3 LINE",
"523 -97 OFFCURVE",
"513 -99 OFFCURVE",
"430 -99 CURVE",
"430 -147 LINE"
);
}
);
width = 626;
}
);
unicode = 014A;
},
{
color = 5;
glyphname = O;
layers = (
{
anchors = (
{
name = bottom;
position = "{383, 0}";
},
{
name = center;
position = "{383, 350}";
},
{
name = ogonek;
position = "{507, 10}";
},
{
name = top;
position = "{383, 700}";
},
{
name = topleft;
position = "{20, 700}";
},
{
name = topright;
position = "{745, 700}";
}
);
layerId = "4BC9CD2E-8AD0-40CC-97AA-8C7B556514B0";
paths = (
{
closed = 1;
nodes = (
"725 152 OFFCURVE",
"725 352 CURVE SMOOTH",
"725 547 OFFCURVE",
"571 709 OFFCURVE",
"383 709 CURVE SMOOTH",
"198 709 OFFCURVE",
"40 547 OFFCURVE",
"40 352 CURVE SMOOTH",
"40 156 OFFCURVE",
"192 -8 OFFCURVE",
"383 -8 CURVE SMOOTH",
"572 -8 OFFCURVE"
);
},
{
closed = 1;
nodes = (
"601 483 OFFCURVE",
"601 352 CURVE SMOOTH",
"601 221 OFFCURVE",
"504 110 OFFCURVE",
"383 110 CURVE SMOOTH",
"263 110 OFFCURVE",
"164 220 OFFCURVE",
"164 352 CURVE SMOOTH",
"164 480 OFFCURVE",
"262 591 OFFCURVE",
"383 591 CURVE SMOOTH",
"502 591 OFFCURVE"
);
}
);
width = 765;
},
{
anchors = (
{
name = bottom;
position = "{383, 0}";
},
{
name = center;
position = "{383, 350}";
},
{
name = ogonek;
position = "{688, 10}";
},
{
name = top;
position = "{383, 700}";
},
{
name = topleft;
position = "{20, 700}";
},
{
name = topright;
position = "{745, 700}";
}
);
layerId = "3C8330F3-4770-4812-9C95-859F387513C1";
paths = (
{
closed = 1;
nodes = (
"725 145 OFFCURVE",
"725 348 CURVE SMOOTH",
"725 545 OFFCURVE",
"574 710 OFFCURVE",
"383 710 CURVE SMOOTH",
"198 710 OFFCURVE",
"40 549 OFFCURVE",
"40 348 CURVE SMOOTH",
"40 149 OFFCURVE",
"192 -11 OFFCURVE",
"383 -11 CURVE SMOOTH",
"572 -11 OFFCURVE"
);
},
{
closed = 1;
nodes = (
"672 519 OFFCURVE",
"672 348 CURVE SMOOTH",
"672 175 OFFCURVE",
"545 34 OFFCURVE",
"383 34 CURVE SMOOTH",
"219 34 OFFCURVE",
"93 178 OFFCURVE",
"93 348 CURVE SMOOTH",
"93 520 OFFCURVE",
"221 665 OFFCURVE",
"383 665 CURVE SMOOTH",
"545 665 OFFCURVE"
);
}
);
width = 765;
}
);
leftKerningGroup = "upper-rounds";
unicode = 004F;
},
{
color = 5;
glyphname = P;
layers = (
{
layerId = "4BC9CD2E-8AD0-40CC-97AA-8C7B556514B0";
paths = (
{
closed = 1;
nodes = (
"170 0 LINE",
"170 273 LINE",
"309 273 LINE SMOOTH",
"412 273 OFFCURVE",
"494 383 OFFCURVE",
"494 487 CURVE SMOOTH",
"494 596 OFFCURVE",
"422 700 OFFCURVE",
"312 700 CURVE SMOOTH",
"51 700 LINE",
"50 0 LINE"
);
},
{
closed = 1;
nodes = (
"170 582 LINE",
"307 582 LINE SMOOTH",
"339 582 OFFCURVE",
"376 542 OFFCURVE",
"376 487 CURVE SMOOTH",
"376 437 OFFCURVE",
"342 391 OFFCURVE",
"304 391 CURVE SMOOTH",
"170 391 LINE"
);
}
);
width = 534;
},
{
layerId = "3C8330F3-4770-4812-9C95-859F387513C1";
paths = (
{
closed = 1;
nodes = (
"102 0 LINE",
"102 309 LINE",
"319 309 LINE SMOOTH",
"414 309 OFFCURVE",
"495 410 OFFCURVE",
"495 504 CURVE SMOOTH",
"495 607 OFFCURVE",
"420 700 OFFCURVE",
"322 700 CURVE SMOOTH",
"51 700 LINE",
"50 0 LINE"
);
},
{
closed = 1;
nodes = (
"102 648 LINE",
"322 648 LINE SMOOTH",
"395 648 OFFCURVE",
"444 580 OFFCURVE",
"444 504 CURVE SMOOTH",
"444 435 OFFCURVE",
"386 360 OFFCURVE",
"319 360 CURVE SMOOTH",
"102 360 LINE"
);
}
);
width = 535;
}
);
unicode = 0050;
},
{
color = 5;
glyphname = Thorn;
layers = (
{
layerId = "4BC9CD2E-8AD0-40CC-97AA-8C7B556514B0";
paths = (
{
closed = 1;
nodes = (
"171 0 LINE",
"171 137 LINE",
"310 137 LINE SMOOTH",
"413 137 OFFCURVE",
"495 247 OFFCURVE",
"495 351 CURVE SMOOTH",
"495 463 OFFCURVE",
"420 564 OFFCURVE",
"313 564 CURVE SMOOTH",
"171 564 LINE",
"171 700 LINE",
"51 700 LINE",
"50 0 LINE"
);
},
{
closed = 1;
nodes = (
"171 444 LINE",
"310 444 LINE SMOOTH",
"348 444 OFFCURVE",
"379 402 OFFCURVE",
"379 351 CURVE SMOOTH",
"379 317 OFFCURVE",
"348 263 OFFCURVE",
"310 263 CURVE SMOOTH",
"171 263 LINE"
);
}
);
width = 535;
},
{
layerId = "3C8330F3-4770-4812-9C95-859F387513C1";
paths = (
{
closed = 1;
nodes = (
"104 0 LINE",
"104 154 LINE",
"301 154 LINE SMOOTH",
"395 154 OFFCURVE",
"477 257 OFFCURVE",
"477 351 CURVE SMOOTH",
"477 454 OFFCURVE",
"401 547 OFFCURVE",
"304 547 CURVE SMOOTH",
"104 547 LINE",
"104 700 LINE",
"51 700 LINE",
"50 0 LINE"
);
},
{
closed = 1;
nodes = (
"104 494 LINE",
"304 494 LINE SMOOTH",
"378 494 OFFCURVE",
"426 427 OFFCURVE",
"426 351 CURVE SMOOTH",
"426 281 OFFCURVE",
"368 207 OFFCURVE",
"301 207 CURVE SMOOTH",
"104 207 LINE"
);
}
);
width = 517;
}
);
unicode = 00DE;
},
{
color = 5;
glyphname = Q;
layers = (
{
layerId = "4BC9CD2E-8AD0-40CC-97AA-8C7B556514B0";
paths = (
{
closed = 1;
nodes = (
"437 -5 OFFCURVE",
"487 7 OFFCURVE",
"534 30 CURVE",
"576 -9 OFFCURVE",
"619 -11 OFFCURVE",
"721 -9 CURVE",
"721 103 LINE",
"694 100 OFFCURVE",
"667 102 OFFCURVE",
"640 113 CURVE",
"693 177 OFFCURVE",
"725 257 OFFCURVE",
"725 348 CURVE SMOOTH",
"725 546 OFFCURVE",
"574 707 OFFCURVE",
"383 707 CURVE SMOOTH",
"192 707 OFFCURVE",
"40 544 OFFCURVE",
"40 348 CURVE SMOOTH",
"40 155 OFFCURVE",
"192 -5 OFFCURVE",
"383 -5 CURVE SMOOTH"
);
},
{
closed = 1;
nodes = (
"260 115 OFFCURVE",
"166 226 OFFCURVE",
"166 348 CURVE SMOOTH",
"166 472 OFFCURVE",
"259 586 OFFCURVE",
"383 586 CURVE SMOOTH",
"505 586 OFFCURVE",
"599 476 OFFCURVE",
"599 348 CURVE SMOOTH",
"599 304 OFFCURVE",
"588 263 OFFCURVE",
"569 228 CURVE",
"534 290 OFFCURVE",
"452 322 OFFCURVE",
"365 335 CURVE",
"365 205 LINE",
"427 190 OFFCURVE",
"449 181 OFFCURVE",
"471 135 CURVE",
"444 122 OFFCURVE",
"415 115 OFFCURVE",
"383 115 CURVE SMOOTH"
);
}
);
width = 765;
},
{
layerId = "3C8330F3-4770-4812-9C95-859F387513C1";
paths = (
{
closed = 1;
nodes = (
"451 -5 OFFCURVE",
"514 15 OFFCURVE",
"567 50 CURVE",
"598 9 OFFCURVE",
"629 -5 OFFCURVE",
"705 -3 CURVE",
"705 45 LINE",
"647 43 OFFCURVE",
"625 54 OFFCURVE",
"607 81 CURVE",
"679 145 OFFCURVE",
"725 240 OFFCURVE",
"725 348 CURVE SMOOTH",
"725 540 OFFCURVE",
"574 705 OFFCURVE",
"383 705 CURVE SMOOTH",
"198 705 OFFCURVE",
"40 544 OFFCURVE",
"40 348 CURVE SMOOTH",
"40 155 OFFCURVE",
"192 -5 OFFCURVE",
"383 -5 CURVE SMOOTH"
);
},
{
closed = 1;
nodes = (
"219 40 OFFCURVE",
"93 184 OFFCURVE",
"93 348 CURVE SMOOTH",
"93 515 OFFCURVE",
"221 660 OFFCURVE",
"383 660 CURVE SMOOTH",
"545 660 OFFCURVE",
"672 514 OFFCURVE",
"672 348 CURVE SMOOTH",
"672 262 OFFCURVE",
"638 182 OFFCURVE",
"583 126 CURVE",
"542 215 OFFCURVE",
"514 253 OFFCURVE",
"413 277 CURVE",
"413 224 LINE",
"503 197 OFFCURVE",
"503 172 OFFCURVE",
"542 91 CURVE",
"497 59 OFFCURVE",
"442 40 OFFCURVE",
"383 40 CURVE SMOOTH"
);
}
);
width = 765;
}
);
leftKerningGroup = "upper-rounds";
unicode = 0051;
},
{
color = 5;
glyphname = R;
layers = (
{
anchors = (
{
name = bottom;
position = "{286, 0}";
},
{
name = top;
position = "{286, 700}";
}
);
layerId = "4BC9CD2E-8AD0-40CC-97AA-8C7B556514B0";
paths = (
{
closed = 1;
nodes = (
"367 284 LINE",
"443 316 OFFCURVE",
"496 403 OFFCURVE",
"496 487 CURVE SMOOTH",
"496 598 OFFCURVE",
"419 700 OFFCURVE",
"314 700 CURVE SMOOTH",
"51 700 LINE",
"50 0 LINE",
"170 0 LINE",
"170 273 LINE",
"231 273 LINE",
"391 0 LINE",
"534 0 LINE"
);
},
{
closed = 1;
nodes = (
"374 527 OFFCURVE",
"374 487 CURVE SMOOTH",
"374 446 OFFCURVE",
"345 400 OFFCURVE",
"306 400 CURVE SMOOTH",
"170 400 LINE",
"170 580 LINE",
"306 580 LINE SMOOTH",
"345 580 OFFCURVE"
);
}
);
width = 574;
},
{
anchors = (
{
name = bottom;
position = "{272, 0}";
},
{
name = top;
position = "{272, 700}";
}
);
layerId = "3C8330F3-4770-4812-9C95-859F387513C1";
paths = (
{
closed = 1;
nodes = (
"310 309 LINE",
"412 308 OFFCURVE",
"492 407 OFFCURVE",
"492 504 CURVE SMOOTH",
"492 609 OFFCURVE",
"412 700 OFFCURVE",
"321 700 CURVE SMOOTH",
"51 700 LINE",
"50 0 LINE",
"102 0 LINE",
"102 309 LINE",
"248 309 LINE",
"441 0 LINE",
"503 0 LINE"
);
},
{
closed = 1;
nodes = (
"440 578 OFFCURVE",
"440 504 CURVE SMOOTH",
"440 441 OFFCURVE",
"384 360 OFFCURVE",
"318 360 CURVE SMOOTH",
"102 360 LINE",
"102 648 LINE",
"321 648 LINE SMOOTH",
"391 648 OFFCURVE"
);
}
);
width = 543;
}
);
unicode = 0052;
},
{
color = 5;
glyphname = S;
layers = (
{
anchors = (
{
name = bottom;
position = "{277, 0}";
},
{
name = top;
position = "{277, 700}";
}
);
layerId = "4BC9CD2E-8AD0-40CC-97AA-8C7B556514B0";
paths = (
{
closed = 1;
nodes = (
"411 -10 OFFCURVE",
"513 85 OFFCURVE",
"513 207 CURVE SMOOTH",
"513 342 OFFCURVE",
"433 385 OFFCURVE",
"293 424 CURVE",
"217 448 OFFCURVE",
"165 459 OFFCURVE",
"167 517 CURVE SMOOTH",
"169 568 OFFCURVE",
"225 588 OFFCURVE",
"281 586 CURVE SMOOTH",
"329 585 OFFCURVE",
"375 568 OFFCURVE",
"414 547 CURVE",
"499 635 LINE",
"423 686 OFFCURVE",
"344 706 OFFCURVE",
"273 706 CURVE SMOOTH",
"155 706 OFFCURVE",
"61 649 OFFCURVE",
"47 533 CURVE SMOOTH",
"30 384 OFFCURVE",
"135 341 OFFCURVE",
"313 293 CURVE SMOOTH",
"358 280 OFFCURVE",
"393 248 OFFCURVE",
"393 207 CURVE SMOOTH",
"393 156 OFFCURVE",
"344 114 OFFCURVE",
"281 114 CURVE SMOOTH",
"231 114 OFFCURVE",
"169 141 OFFCURVE",
"129 183 CURVE",
"40 97 LINE",
"95 37 OFFCURVE",
"193 -10 OFFCURVE",
"283 -10 CURVE SMOOTH"
);
}
);
width = 553;
},
{
anchors = (
{
name = bottom;
position = "{264, 0}";
},
{
name = top;
position = "{264, 700}";
}
);
layerId = "3C8330F3-4770-4812-9C95-859F387513C1";
paths = (
{
closed = 1;
nodes = (
"390 -8 OFFCURVE",
"498 79 OFFCURVE",
"498 194 CURVE SMOOTH",
"498 322 OFFCURVE",
"425 356 OFFCURVE",
"282 394 CURVE SMOOTH",
"191 418 OFFCURVE",
"116 450 OFFCURVE",
"116 535 CURVE SMOOTH",
"116 620 OFFCURVE",
"198 652 OFFCURVE",
"285 652 CURVE SMOOTH",
"337 652 OFFCURVE",
"390 640 OFFCURVE",
"440 621 CURVE",
"472 669 LINE",
"418 693 OFFCURVE",
"346 704 OFFCURVE",
"286 704 CURVE SMOOTH",
"146 704 OFFCURVE",
"64 643 OFFCURVE",
"59 540 CURVE SMOOTH",
"54 435 OFFCURVE",
"143 372 OFFCURVE",
"261 343 CURVE",
"394 311 OFFCURVE",
"446 273 OFFCURVE",
"444 194 CURVE SMOOTH",
"442 102 OFFCURVE",
"360 44 OFFCURVE",
"264 44 CURVE SMOOTH",
"207 44 OFFCURVE",
"139 68 OFFCURVE",
"82 107 CURVE",
"40 70 LINE",
"96 26 OFFCURVE",
"179 -8 OFFCURVE",
"266 -8 CURVE SMOOTH"
);
}
);
width = 538;
}
);
unicode = 0053;
},
{
color = 5;
glyphname = T;
layers = (
{
anchors = (
{
name = bottom;
position = "{298, 0}";
},
{
name = center;
position = "{298, 350}";
},
{
name = top;
position = "{298, 700}";
}
);
layerId = "4BC9CD2E-8AD0-40CC-97AA-8C7B556514B0";
paths = (
{
closed = 1;
nodes = (
"556 700 LINE",
"40 700 LINE",
"40 590 LINE",
"238 590 LINE",
"238 0 LINE",
"358 0 LINE",
"358 590 LINE",
"556 590 LINE"
);
}
);
width = 596;
},
{
anchors = (
{
name = bottom;
position = "{298, 0}";
},
{
name = center;
position = "{298, 350}";
},
{
name = top;
position = "{298, 700}";
}
);
layerId = "3C8330F3-4770-4812-9C95-859F387513C1";
paths = (
{
closed = 1;
nodes = (
"556 700 LINE",
"40 700 LINE",
"40 652 LINE",
"272 652 LINE",
"272 0 LINE",
"324 0 LINE",
"324 652 LINE",
"556 652 LINE"
);
}
);
width = 596;
}
);
unicode = 0054;
},
{
color = 5;
glyphname = U;
layers = (
{
anchors = (
{
name = bottom;
position = "{304, 0}";
},
{
name = ogonek;
position = "{424, 16}";
},
{
name = top;
position = "{304, 700}";
},
{
name = topright;
position = "{591, 700}";
}
);
layerId = "4BC9CD2E-8AD0-40CC-97AA-8C7B556514B0";
paths = (
{
closed = 1;
nodes = (
"498 98 OFFCURVE",
"537 193 CURVE SMOOTH",
"551 227 OFFCURVE",
"567 234 OFFCURVE",
"567 272 CURVE SMOOTH",
"567 700 LINE",
"447 700 LINE",
"447 253 LINE SMOOTH",
"447 177 OFFCURVE",
"386 120 OFFCURVE",
"303 120 CURVE SMOOTH",
"223 120 OFFCURVE",
"160 176 OFFCURVE",
"160 253 CURVE",
"159 700 LINE",
"40 700 LINE",
"40 253 LINE SMOOTH",
"40 110 OFFCURVE",
"151 -5 OFFCURVE",
"303 -5 CURVE SMOOTH",
"418 -5 OFFCURVE"
);
},
{
closed = 1;
nodes = (
"447 0 LINE",
"567 0 LINE",
"567 254 LINE",
"447 254 LINE"
);
}
);
width = 617;
},
{
anchors = (
{
name = bottom;
position = "{290, 0}";
},
{
name = ogonek;
position = "{530, 10}";
},
{
name = top;
position = "{290, 700}";
},
{
name = topright;
position = "{570, 700}";
}
);
layerId = "3C8330F3-4770-4812-9C95-859F387513C1";
paths = (
{
closed = 1;
nodes = (
"490 51 OFFCURVE",
"531 137 CURVE SMOOTH",
"546 167 OFFCURVE",
"554 201 OFFCURVE",
"554 238 CURVE SMOOTH",
"554 700 LINE",
"502 700 LINE",
"502 240 LINE SMOOTH",
"502 132 OFFCURVE",
"413 45 OFFCURVE",
"297 45 CURVE SMOOTH",
"184 45 OFFCURVE",
"93 133 OFFCURVE",
"93 240 CURVE",
"92 700 LINE",
"40 700 LINE",
"40 240 LINE SMOOTH",
"40 102 OFFCURVE",
"158 -5 OFFCURVE",
"297 -5 CURVE SMOOTH",
"398 -5 OFFCURVE"
);
},
{
closed = 1;
nodes = (
"502 0 LINE",
"554 0 LINE",
"554 254 LINE",
"502 254 LINE"
);
}
);
width = 604;
}
);
unicode = 0055;
},
{
color = 5;
glyphname = V;
layers = (
{
layerId = "4BC9CD2E-8AD0-40CC-97AA-8C7B556514B0";
paths = (
{
closed = 1;
nodes = (
"450 700 LINE",
"309 175 LINE",
"168 700 LINE",
"40 700 LINE",
"253 0 LINE",
"365 0 LINE",
"578 700 LINE"
);
}
);
width = 618;
},
{
layerId = "3C8330F3-4770-4812-9C95-859F387513C1";
paths = (
{
closed = 1;
nodes = (
"496 700 LINE",
"294 53 LINE",
"92 700 LINE",
"40 700 LINE",
"261 0 LINE",
"327 0 LINE",
"548 700 LINE"
);
}
);
width = 588;
}
);
leftKerningGroup = "upper-angled";
unicode = 0056;
},
{
color = 5;
glyphname = W;
layers = (
{
anchors = (
{
name = bottom;
position = "{543, 0}";
},
{
name = top;
position = "{543, 700}";
}
);
layerId = "4BC9CD2E-8AD0-40CC-97AA-8C7B556514B0";
paths = (
{
closed = 1;
nodes = (
"910 700 LINE",
"757 178 LINE",
"605 589 LINE",
"482 589 LINE",
"330 178 LINE",
"175 700 LINE",
"40 700 LINE",
"260 0 LINE",
"391 0 LINE",
"543 415 LINE",
"697 0 LINE",
"828 0 LINE",
"1045 700 LINE"
);
}
);
width = 1085;
},
{
anchors = (
{
name = bottom;
position = "{533, 0}";
},
{
name = top;
position = "{533, 700}";
}
);
layerId = "3C8330F3-4770-4812-9C95-859F387513C1";
paths = (
{
closed = 1;
nodes = (
"975 700 LINE",
"770 50 LINE",
"564 575 LINE",
"503 575 LINE",
"297 51 LINE",
"90 700 LINE",
"40 700 LINE",
"260 0 LINE",
"336 0 LINE",
"533 519 LINE",
"732 0 LINE",
"808 0 LINE",
"1026 700 LINE"
);
}
);
width = 1066;
}
);
leftKerningGroup = "upper-angled";
unicode = 0057;
},
{
color = 5;
glyphname = X;
layers = (
{
layerId = "4BC9CD2E-8AD0-40CC-97AA-8C7B556514B0";
paths = (
{
closed = 1;
nodes = (
"187 0 LINE",
"332 262 LINE",
"477 0 LINE",
"624 0 LINE",
"404 355 LINE",
"620 700 LINE",
"473 700 LINE",
"332 446 LINE",
"191 700 LINE",
"44 700 LINE",
"259 355 LINE",
"40 0 LINE"
);
}
);
width = 664;
},
{
layerId = "3C8330F3-4770-4812-9C95-859F387513C1";
paths = (
{
closed = 1;
nodes = (
"101 0 LINE",
"296 311 LINE",
"491 0 LINE",
"551 0 LINE",
"328 355 LINE",
"544 700 LINE",
"485 700 LINE",
"296 397 LINE",
"107 700 LINE",
"48 700 LINE",
"263 355 LINE",
"40 0 LINE"
);
}
);
width = 591;
}
);
unicode = 0058;
},
{
color = 5;
glyphname = Y;
layers = (
{
anchors = (
{
name = bottom;
position = "{323, 0}";
},
{
name = top;
position = "{323, 700}";
},
{
name = topleft;
position = "{-2, 700}";
}
);
layerId = "4BC9CD2E-8AD0-40CC-97AA-8C7B556514B0";
paths = (
{
closed = 1;
nodes = (
"487 700 LINE",
"323 361 LINE",
"159 700 LINE",
"40 700 LINE",
"263 239 LINE",
"263 0 LINE",
"384 0 LINE",
"384 239 LINE",
"606 700 LINE"
);
}
);
width = 646;
},
{
anchors = (
{
name = bottom;
position = "{311, 0}";
},
{
name = top;
position = "{311, 700}";
},
{
name = topleft;
position = "{20, 700}";
}
);
layerId = "3C8330F3-4770-4812-9C95-859F387513C1";
paths = (
{
closed = 1;
nodes = (
"523 700 LINE",
"311 290 LINE",
"99 700 LINE",
"40 700 LINE",
"285 234 LINE",
"285 0 LINE",
"337 0 LINE",
"337 234 LINE",
"582 700 LINE"
);
}
);
width = 622;
}
);
unicode = 0059;
},
{
color = 5;
glyphname = Z;
layers = (
{
anchors = (
{
name = bottom;
position = "{281, 0}";
},
{
name = top;
position = "{281, 700}";
}
);
guideLines = (
{
angle = 55.9228;
position = "{201, 338}";
},
{
angle = 55.8403;
position = "{355, 364}";
}
);
layerId = "4BC9CD2E-8AD0-40CC-97AA-8C7B556514B0";
paths = (
{
closed = 1;
nodes = (
"521 110 LINE",
"183 110 LINE",
"516 602 LINE",
"516 700 LINE",
"45 700 LINE",
"45 588 LINE",
"370 588 LINE",
"40 100 LINE",
"40 0 LINE",
"521 0 LINE"
);
}
);
width = 561;
},
{
anchors = (
{
name = bottom;
position = "{281, 0}";
},
{
name = top;
position = "{281, 700}";
}
);
layerId = "3C8330F3-4770-4812-9C95-859F387513C1";
paths = (
{
closed = 1;
nodes = (
"521 51 LINE",
"105 51 LINE",
"516 646 LINE",
"516 700 LINE",
"45 700 LINE",
"45 648 LINE",
"453 648 LINE",
"40 52 LINE",
"40 0 LINE",
"521 0 LINE"
);
}
);
width = 561;
}
);
unicode = 005A;
},
{
color = 3;
glyphname = a;
layers = (
{
anchors = (
{
name = bottom;
position = "{253, 0}";
},
{
name = ogonek;
position = "{458, 10}";
},
{
name = top;
position = "{253, 510}";
}
);
layerId = "4BC9CD2E-8AD0-40CC-97AA-8C7B556514B0";
paths = (
{
closed = 1;
nodes = (
"243 -7 OFFCURVE",
"296 7 OFFCURVE",
"338 46 CURVE",
"338 0 LINE",
"460 0 LINE",
"460 264 LINE SMOOTH",
"460 337 OFFCURVE",
"462 402 OFFCURVE",
"429 439 CURVE SMOOTH",
"343 535 OFFCURVE",
"146 521 OFFCURVE",
"45 422 CURVE",
"112 349 LINE",
"173 415 OFFCURVE",
"337 427 OFFCURVE",
"337 343 CURVE SMOOTH",
"337 312 LINE",
"194 344 OFFCURVE",
"40 284 OFFCURVE",
"40 148 CURVE SMOOTH",
"40 55 OFFCURVE",
"93 0 OFFCURVE",
"194 -5 CURVE SMOOTH"
);
},
{
closed = 1;
nodes = (
"270 86 OFFCURVE",
"149 74 OFFCURVE",
"149 149 CURVE SMOOTH",
"149 207 OFFCURVE",
"195 237 OFFCURVE",
"334 227 CURVE",
"334 141 LINE"
);
}
);
width = 510;
},
{
anchors = (
{
name = bottom;
position = "{251, 0}";
},
{
name = ogonek;
position = "{454, 10}";
},
{
name = top;
position = "{251, 500}";
}
);
layerId = "3C8330F3-4770-4812-9C95-859F387513C1";
paths = (
{
closed = 1;
nodes = (
"276 -5 OFFCURVE",
"346 14 OFFCURVE",
"399 47 CURVE",
"399 0 LINE",
"451 0 LINE",
"452 245 LINE",
"451 355 OFFCURVE",
"457 441 OFFCURVE",
"369 482 CURVE SMOOTH",
"277 525 OFFCURVE",
"131 510 OFFCURVE",
"58 411 CURVE",
"95 373 LINE",
"155 482 OFFCURVE",
"398 491 OFFCURVE",
"398 349 CURVE SMOOTH",
"398 310 LINE",
"180 346 OFFCURVE",
"40 301 OFFCURVE",
"40 142 CURVE SMOOTH",
"40 42 OFFCURVE",
"123 -5 OFFCURVE",
"211 -5 CURVE SMOOTH"
);
},
{
closed = 1;
nodes = (
"301 32 OFFCURVE",
"90 14 OFFCURVE",
"90 142 CURVE SMOOTH",
"90 265 OFFCURVE",
"228 291 OFFCURVE",
"399 264 CURVE",
"399 103 LINE"
);
}
);
width = 502;
}
);
leftKerningGroup = "rounded-low";
unicode = 0061;
},
{
color = 5;
glyphname = b;
layers = (
{
layerId = "4BC9CD2E-8AD0-40CC-97AA-8C7B556514B0";
paths = (
{
closed = 1;
nodes = (
"491 152 OFFCURVE",
"491 259 CURVE SMOOTH",
"491 396 OFFCURVE",
"415 507 OFFCURVE",
"273 507 CURVE SMOOTH",
"243 507 OFFCURVE",
"195 502 OFFCURVE",
"170 483 CURVE",
"170 700 LINE",
"50 700 LINE",
"50 0 LINE",
"170 0 LINE",
"170 40 LINE",
"205 -1 OFFCURVE",
"305 -17 OFFCURVE",
"364 9 CURVE SMOOTH",
"452 48 OFFCURVE"
);
},
{
closed = 1;
nodes = (
"370 368 OFFCURVE",
"370 259 CURVE SMOOTH",
"370 129 OFFCURVE",
"276 76 OFFCURVE",
"170 140 CURVE",
"170 370 LINE",
"274 411 OFFCURVE"
);
}
);
width = 531;
},
{
layerId = "3C8330F3-4770-4812-9C95-859F387513C1";
paths = (
{
closed = 1;
nodes = (
"480 97 OFFCURVE",
"480 252 CURVE SMOOTH",
"480 403 OFFCURVE",
"394 505 OFFCURVE",
"248 505 CURVE SMOOTH",
"205 505 OFFCURVE",
"167 505 OFFCURVE",
"102 477 CURVE",
"102 700 LINE",
"50 700 LINE",
"50 0 LINE",
"102 0 LINE",
"102 51 LINE",
"141 26 OFFCURVE",
"184 -5 OFFCURVE",
"256 -5 CURVE SMOOTH",
"399 -5 OFFCURVE"
);
},
{
closed = 1;
nodes = (
"427 441 OFFCURVE",
"427 252 CURVE SMOOTH",
"427 59 OFFCURVE",
"257 -14 OFFCURVE",
"102 96 CURVE",
"102 426 LINE",
"273 499 OFFCURVE"
);
}
);
width = 520;
}
);
unicode = 0062;
},
{
color = 5;
glyphname = c;
layers = (
{
anchors = (
{
name = bottom;
position = "{254, 0}";
},
{
name = top;
position = "{254, 500}";
}
);
layerId = "4BC9CD2E-8AD0-40CC-97AA-8C7B556514B0";
paths = (
{
closed = 1;
nodes = (
"393 157 LINE",
"305 63 OFFCURVE",
"161 111 OFFCURVE",
"161 250 CURVE SMOOTH",
"161 379 OFFCURVE",
"308 436 OFFCURVE",
"388 339 CURVE",
"468 424 LINE",
"293 584 OFFCURVE",
"40 500 OFFCURVE",
"40 250 CURVE SMOOTH",
"40 8 OFFCURVE",
"297 -91 OFFCURVE",
"465 69 CURVE"
);
}
);
width = 508;
},
{
anchors = (
{
name = bottom;
position = "{260, 0}";
},
{
name = top;
position = "{260, 500}";
}
);
layerId = "3C8330F3-4770-4812-9C95-859F387513C1";
paths = (
{
closed = 1;
nodes = (
"413 103 LINE",
"279 -22 OFFCURVE",
"92 68 OFFCURVE",
"92 255 CURVE SMOOTH",
"92 432 OFFCURVE",
"269 505 OFFCURVE",
"413 399 CURVE",
"443 438 LINE",
"268 580 OFFCURVE",
"40 477 OFFCURVE",
"40 255 CURVE SMOOTH",
"40 30 OFFCURVE",
"267 -93 OFFCURVE",
"443 62 CURVE"
);
}
);
width = 483;
}
);
leftKerningGroup = "rounded-low";
unicode = 0063;
},
{
color = 5;
glyphname = d;
layers = (
{
anchors = (
{
name = bottom;
position = "{250, 0}";
},
{
name = center;
position = "{305, 250}";
},
{
name = top;
position = "{250, 700}";
},
{
name = topright;
position = "{491, 500}";
}
);
layerId = "4BC9CD2E-8AD0-40CC-97AA-8C7B556514B0";
paths = (
{
closed = 1;
nodes = (
"226 -17 OFFCURVE",
"326 -1 OFFCURVE",
"361 40 CURVE",
"361 0 LINE",
"481 0 LINE",
"481 700 LINE",
"361 700 LINE",
"361 483 LINE",
"336 502 OFFCURVE",
"288 507 OFFCURVE",
"258 507 CURVE SMOOTH",
"116 507 OFFCURVE",
"40 396 OFFCURVE",
"40 259 CURVE SMOOTH",
"40 152 OFFCURVE",
"79 48 OFFCURVE",
"167 9 CURVE SMOOTH"
);
},
{
closed = 1;
nodes = (
"255 76 OFFCURVE",
"161 129 OFFCURVE",
"161 259 CURVE SMOOTH",
"161 368 OFFCURVE",
"257 411 OFFCURVE",
"361 370 CURVE",
"361 140 LINE"
);
}
);
width = 531;
},
{
anchors = (
{
name = bottom;
position = "{250, 0}";
},
{
name = center;
position = "{298, 591}";
},
{
name = top;
position = "{250, 698}";
},
{
name = topright;
position = "{490, 500}";
}
);
layerId = "3C8330F3-4770-4812-9C95-859F387513C1";
paths = (
{
closed = 1;
nodes = (
"336 -5 OFFCURVE",
"379 26 OFFCURVE",
"418 51 CURVE",
"418 0 LINE",
"470 0 LINE",
"470 700 LINE",
"418 700 LINE",
"418 477 LINE",
"353 505 OFFCURVE",
"315 505 OFFCURVE",
"272 505 CURVE SMOOTH",
"126 505 OFFCURVE",
"40 403 OFFCURVE",
"40 252 CURVE SMOOTH",
"40 97 OFFCURVE",
"121 -5 OFFCURVE",
"264 -5 CURVE SMOOTH"
);
},
{
closed = 1;
nodes = (
"263 -14 OFFCURVE",
"93 59 OFFCURVE",
"93 252 CURVE SMOOTH",
"93 441 OFFCURVE",
"247 499 OFFCURVE",
"418 426 CURVE",
"418 96 LINE"
);
}
);
width = 520;
}
);
leftKerningGroup = "rounded-low";
unicode = 0064;
},
{
color = 5;
glyphname = eth;
layers = (
{
layerId = "4BC9CD2E-8AD0-40CC-97AA-8C7B556514B0";
paths = (
{
closed = 1;
nodes = (
"377 -18 OFFCURVE",
"495 75 OFFCURVE",
"511 209 CURVE SMOOTH",
"524 316 OFFCURVE",
"488 429 OFFCURVE",
"405 573 CURVE",
"483 602 LINE",
"453 691 LINE",
"355 655 LINE",
"322 709 LINE",
"172 700 LINE",
"203 659 OFFCURVE",
"233 618 OFFCURVE",
"237 611 CURVE",
"157 581 LINE",
"189 493 LINE",
"292 531 LINE",
"302 518 OFFCURVE",
"323 484 OFFCURVE",
"338 458 CURVE",
"203 513 OFFCURVE",
"61 424 OFFCURVE",
"42 268 CURVE SMOOTH",
"26 142 OFFCURVE",
"116 14 OFFCURVE",
"249 -2 CURVE SMOOTH"
);
},
{
closed = 1;
nodes = (
"203 131 OFFCURVE",
"156 188 OFFCURVE",
"164 254 CURVE SMOOTH",
"170 312 OFFCURVE",
"224 362 OFFCURVE",
"290 354 CURVE SMOOTH",
"353 346 OFFCURVE",
"397 288 OFFCURVE",
"389 225 CURVE",
"384 166 OFFCURVE",
"330 117 OFFCURVE",
"263 123 CURVE SMOOTH"
);
}
);
width = 554;
},
{
layerId = "3C8330F3-4770-4812-9C95-859F387513C1";
paths = (
{
closed = 1;
nodes = (
"404 -5 OFFCURVE",
"512 95 OFFCURVE",
"512 223 CURVE SMOOTH",
"512 331 OFFCURVE",
"467 448 OFFCURVE",
"335 601 CURVE",
"435 636 LINE",
"422 673 LINE",
"307 633 LINE",
"244 700 LINE",
"178 700 LINE",
"207 671 OFFCURVE",
"233 643 OFFCURVE",
"258 616 CURVE",
"153 580 LINE",
"166 543 LINE",
"285 584 LINE",
"337 523 OFFCURVE",
"378 464 OFFCURVE",
"417 399 CURVE",
"277 530 OFFCURVE",
"40 413 OFFCURVE",
"40 223 CURVE SMOOTH",
"40 95 OFFCURVE",
"147 -5 OFFCURVE",
"277 -5 CURVE SMOOTH"
);
},
{
closed = 1;
nodes = (
"176 46 OFFCURVE",
"92 126 OFFCURVE",
"92 223 CURVE SMOOTH",
"92 321 OFFCURVE",
"172 399 OFFCURVE",
"274 399 CURVE SMOOTH",
"372 399 OFFCURVE",
"457 323 OFFCURVE",
"457 223 CURVE SMOOTH",
"457 122 OFFCURVE",
"367 46 OFFCURVE",
"274 46 CURVE SMOOTH"
);
}
);
width = 552;
}
);
leftKerningGroup = "rounded-low";
unicode = 00F0;
},
{
color = 3;
glyphname = e;
layers = (
{
anchors = (
{
name = bottom;
position = "{281, 0}";
},
{
name = ogonek;
position = "{396, 10}";
},
{
name = top;
position = "{281, 510}";
}
);
layerId = "4BC9CD2E-8AD0-40CC-97AA-8C7B556514B0";
paths = (
{
closed = 1;
nodes = (
"523 275 OFFCURVE",
"518 331 OFFCURVE",
"498 379 CURVE SMOOTH",
"463 461 OFFCURVE",
"389 505 OFFCURVE",
"282 506 CURVE SMOOTH",
"133 507 OFFCURVE",
"40 411 OFFCURVE",
"40 263 CURVE SMOOTH",
"40 90 OFFCURVE",
"124 -9 OFFCURVE",
"294 -9 CURVE SMOOTH",
"367 -9 OFFCURVE",
"444 14 OFFCURVE",
"517 76 CURVE",
"451 167 LINE",
"353 81 OFFCURVE",
"179 83 OFFCURVE",
"169 204 CURVE",
"519 204 LINE"
);
},
{
closed = 1;
nodes = (
"373 394 OFFCURVE",
"416 342 OFFCURVE",
"416 288 CURVE",
"169 288 LINE",
"169 341 OFFCURVE",
"211 394 OFFCURVE",
"293 394 CURVE SMOOTH"
);
}
);
width = 562;
},
{
anchors = (
{
name = bottom;
position = "{281, 0}";
},
{
name = ogonek;
position = "{506, 10}";
},
{
name = top;
position = "{281, 500}";
}
);
background = {
components = (
{
name = o;
}
);
};
layerId = "3C8330F3-4770-4812-9C95-859F387513C1";
paths = (
{
closed = 1;
nodes = (
"513 293 OFFCURVE",
"510 341 OFFCURVE",
"495 378 CURVE SMOOTH",
"461 462 OFFCURVE",
"384 505 OFFCURVE",
"282 505 CURVE SMOOTH",
"117 505 OFFCURVE",
"36 412 OFFCURVE",
"36 263 CURVE SMOOTH",
"36 89 OFFCURVE",
"131 -16 OFFCURVE",
"295 -9 CURVE SMOOTH",
"366 -6 OFFCURVE",
"434 15 OFFCURVE",
"494 60 CURVE",
"468 102 LINE",
"303 -15 OFFCURVE",
"93 33 OFFCURVE",
"93 240 CURVE",
"508 240 LINE"
);
},
{
closed = 1;
nodes = (
"388 455 OFFCURVE",
"458 403 OFFCURVE",
"458 291 CURVE",
"93 291 LINE",
"93 412 OFFCURVE",
"184 455 OFFCURVE",
"282 455 CURVE SMOOTH"
);
}
);
width = 562;
}
);
leftKerningGroup = "rounded-low";
unicode = 0065;
},
{
color = 5;
glyphname = f;
layers = (
{
layerId = "4BC9CD2E-8AD0-40CC-97AA-8C7B556514B0";
paths = (
{
closed = 1;
nodes = (
"260 587 OFFCURVE",
"345 587 CURVE",
"345 705 LINE",
"184 713 OFFCURVE",
"114 633 OFFCURVE",
"114 498 CURVE",
"40 498 LINE",
"40 393 LINE",
"113 393 LINE",
"113 -2 LINE",
"231 -2 LINE",
"231 393 LINE",
"305 393 LINE",
"305 498 LINE",
"231 498 LINE",
"233 572 OFFCURVE"
);
}
);
width = 365;
},
{
layerId = "3C8330F3-4770-4812-9C95-859F387513C1";
paths = (
{
closed = 1;
nodes = (
"193 664 OFFCURVE",
"334 656 CURVE",
"334 704 LINE",
"163 714 OFFCURVE",
"139 631 OFFCURVE",
"139 500 CURVE",
"40 500 LINE",
"40 454 LINE",
"139 454 LINE",
"139 0 LINE",
"191 0 LINE",
"191 454 LINE",
"297 454 LINE",
"297 500 LINE",
"191 500 LINE",
"191 603 OFFCURVE"
);
}
);
width = 354;
}
);
unicode = 0066;
},
{
color = 3;
glyphname = g;
layers = (
{
anchors = (
{
name = bottom;
position = "{273, 0}";
},
{
name = top;
position = "{273, 510}";
}
);
layerId = "4BC9CD2E-8AD0-40CC-97AA-8C7B556514B0";
paths = (
{
closed = 1;
nodes = (
"410 -204 OFFCURVE",
"484 -113 OFFCURVE",
"484 28 CURVE SMOOTH",
"484 500 LINE",
"364 500 LINE",
"364 478 LINE",
"191 556 OFFCURVE",
"40 446 OFFCURVE",
"40 246 CURVE SMOOTH",
"40 72 OFFCURVE",
"202 -64 OFFCURVE",
"361 23 CURVE",
"361 -8 OFFCURVE",
"356 -37 OFFCURVE",
"342 -58 CURVE SMOOTH",
"309 -109 OFFCURVE",
"222 -93 OFFCURVE",
"170 -40 CURVE",
"94 -120 LINE",
"124 -166 OFFCURVE",
"211 -204 OFFCURVE",
"278 -204 CURVE SMOOTH"
);
},
{
closed = 1;
nodes = (
"158 132 OFFCURVE",
"158 246 CURVE SMOOTH",
"158 380 OFFCURVE",
"252 430 OFFCURVE",
"364 363 CURVE",
"364 133 LINE",
"264 91 OFFCURVE"
);
}
);
width = 534;
},
{
anchors = (
{
name = bottom;
position = "{263, 0}";
},
{
name = top;
position = "{263, 500}";
}
);
layerId = "3C8330F3-4770-4812-9C95-859F387513C1";
paths = (
{
closed = 1;
nodes = (
"412 -204 OFFCURVE",
"475 -127 OFFCURVE",
"475 0 CURVE SMOOTH",
"475 500 LINE",
"422 500 LINE",
"422 472 LINE",
"225 557 OFFCURVE",
"31 473 OFFCURVE",
"40 237 CURVE SMOOTH",
"47 42 OFFCURVE",
"251 -64 OFFCURVE",
"422 36 CURVE",
"422 -23 OFFCURVE",
"419 -52 OFFCURVE",
"403 -88 CURVE SMOOTH",
"366 -172 OFFCURVE",
"236 -166 OFFCURVE",
"153 -115 CURVE",
"120 -155 LINE",
"167 -186 OFFCURVE",
"215 -204 OFFCURVE",
"271 -204 CURVE SMOOTH"
);
},
{
closed = 1;
nodes = (
"97 76 OFFCURVE",
"93 237 CURVE SMOOTH",
"88 440 OFFCURVE",
"225 493 OFFCURVE",
"422 417 CURVE",
"422 92 LINE",
"272 8 OFFCURVE"
);
}
);
width = 525;
}
);
leftKerningGroup = "rounded-low";
unicode = 0067;
},
{
color = 5;
glyphname = h;
layers = (
{
anchors = (
{
name = bottom;
position = "{262, 0}";
},
{
name = center;
position = "{172, 610}";
},
{
name = top;
position = "{262, 700}";
}
);
layerId = "4BC9CD2E-8AD0-40CC-97AA-8C7B556514B0";
paths = (
{
closed = 1;
nodes = (
"484 288 LINE SMOOTH",
"484 404 OFFCURVE",
"420 488 OFFCURVE",
"299 503 CURVE SMOOTH",
"251 507 OFFCURVE",
"204 500 OFFCURVE",
"172 473 CURVE",
"172 700 LINE",
"52 700 LINE",
"52 0 LINE",
"172 0 LINE",
"172 303 LINE",
"172 341 OFFCURVE",
"209 385 OFFCURVE",
"265 385 CURVE SMOOTH",
"326 385 OFFCURVE",
"364 356 OFFCURVE",
"364 288 CURVE SMOOTH",
"364 0 LINE",
"484 0 LINE"
);
}
);
width = 524;
},
{
anchors = (
{
name = bottom;
position = "{262, 0}";
},
{
name = center;
position = "{213, 584}";
},
{
name = top;
position = "{262, 700}";
}
);
layerId = "3C8330F3-4770-4812-9C95-859F387513C1";
paths = (
{
closed = 1;
nodes = (
"481 304 LINE SMOOTH",
"481 440 OFFCURVE",
"396 505 OFFCURVE",
"260 505 CURVE SMOOTH",
"213 505 OFFCURVE",
"143 486 OFFCURVE",
"104 436 CURVE",
"104 700 LINE",
"52 700 LINE",
"52 0 LINE",
"104 0 LINE",
"104 349 LINE",
"104 403 OFFCURVE",
"187 458 OFFCURVE",
"265 458 CURVE SMOOTH",
"362 458 OFFCURVE",
"429 411 OFFCURVE",
"429 304 CURVE SMOOTH",
"429 0 LINE",
"481 0 LINE"
);
}
);
width = 521;
}
);
leftKerningGroup = "angleds-low";
unicode = 0068;
},
{
color = 5;
glyphname = i;
layers = (
{
components = (
{
name = idotless;
transform = "{1, 0, 0, 1, 18, 0}";
}
);
layerId = "4BC9CD2E-8AD0-40CC-97AA-8C7B556514B0";
paths = (
{
closed = 1;
nodes = (
"163 559 OFFCURVE",
"195 591 OFFCURVE",
"195 632 CURVE SMOOTH",
"195 672 OFFCURVE",
"163 704 OFFCURVE",
"123 704 CURVE SMOOTH",
"82 704 OFFCURVE",
"50 672 OFFCURVE",
"50 632 CURVE SMOOTH",
"50 591 OFFCURVE",
"82 559 OFFCURVE",
"123 559 CURVE SMOOTH"
);
}
);
width = 245;
},
{
components = (
{
name = idotless;
transform = "{1, 0, 0, 1, 14, 0}";
}
);
layerId = "3C8330F3-4770-4812-9C95-859F387513C1";
paths = (
{
closed = 1;
nodes = (
"112 570 OFFCURVE",
"130 588 OFFCURVE",
"130 610 CURVE SMOOTH",
"130 632 OFFCURVE",
"112 650 OFFCURVE",
"90 650 CURVE SMOOTH",
"68 650 OFFCURVE",
"50 632 OFFCURVE",
"50 610 CURVE SMOOTH",
"50 588 OFFCURVE",
"68 570 OFFCURVE",
"90 570 CURVE SMOOTH"
);
}
);
width = 180;
}
);
leftKerningGroup = "angleds-low";
unicode = 0069;
},
{
color = 5;
glyphname = idotless;
layers = (
{
anchors = (
{
name = bottom;
position = "{109, 0}";
},
{
name = ogonek;
position = "{201, 10}";
},
{
name = top;
position = "{109, 500}";
}
);
layerId = "4BC9CD2E-8AD0-40CC-97AA-8C7B556514B0";
paths = (
{
closed = 1;
nodes = (
"160 500 LINE",
"50 500 LINE",
"50 0 LINE",
"160 0 LINE"
);
}
);
width = 210;
},
{
anchors = (
{
name = bottom;
position = "{77, 0}";
},
{
name = ogonek;
position = "{149, 10}";
},
{
name = top;
position = "{77, 500}";
}
);
layerId = "3C8330F3-4770-4812-9C95-859F387513C1";
paths = (
{
closed = 1;
nodes = (
"102 500 LINE",
"50 500 LINE",
"50 0 LINE",
"102 0 LINE"
);
}
);
width = 152;
}
);
unicode = 0131;
},
{
color = 5;
glyphname = j;
layers = (
{
components = (
{
name = jdotless;
}
);
guideLines = (
{
angle = 90;
position = "{140, 673}";
}
);
layerId = "4BC9CD2E-8AD0-40CC-97AA-8C7B556514B0";
paths = (
{
closed = 1;
nodes = (
"179 560 OFFCURVE",
"211 593 OFFCURVE",
"210 634 CURVE SMOOTH",
"209 673 OFFCURVE",
"179 705 OFFCURVE",
"140 705 CURVE SMOOTH",
"99 705 OFFCURVE",
"68 673 OFFCURVE",
"67 634 CURVE SMOOTH",
"66 593 OFFCURVE",
"99 562 OFFCURVE",
"140 561 CURVE SMOOTH"
);
}
);
width = 260;
},
{
components = (
{
name = jdotless;
}
);
guideLines = (
{
angle = 270;
position = "{142, 640}";
}
);
layerId = "3C8330F3-4770-4812-9C95-859F387513C1";
paths = (
{
closed = 1;
nodes = (
"164 580 OFFCURVE",
"182 598 OFFCURVE",
"182 620 CURVE SMOOTH",
"182 642 OFFCURVE",
"164 660 OFFCURVE",
"142 660 CURVE SMOOTH",
"120 660 OFFCURVE",
"102 642 OFFCURVE",
"102 620 CURVE SMOOTH",
"102 598 OFFCURVE",
"120 580 OFFCURVE",
"142 580 CURVE SMOOTH"
);
}
);
width = 232;
}
);
unicode = 006A;
},
{
color = 5;
glyphname = jdotless;
layers = (
{
layerId = "3C8330F3-4770-4812-9C95-859F387513C1";
paths = (
{
closed = 1;
nodes = (
"104 -169 OFFCURVE",
"167 -110 OFFCURVE",
"167 34 CURVE SMOOTH",
"167 500 LINE",
"116 500 LINE",
"116 34 LINE SMOOTH",
"116 -85 OFFCURVE",
"76 -118 OFFCURVE",
"-30 -125 CURVE",
"-30 -176 LINE"
);
}
);
width = 217;
},
{
layerId = "4BC9CD2E-8AD0-40CC-97AA-8C7B556514B0";
paths = (
{
closed = 1;
nodes = (
"117 -182 OFFCURVE",
"198 -104 OFFCURVE",
"198 55 CURVE SMOOTH",
"198 500 LINE",
"79 500 LINE",
"79 55 LINE SMOOTH",
"79 -36 OFFCURVE",
"60 -59 OFFCURVE",
"-30 -61 CURVE",
"-30 -177 LINE"
);
}
);
width = 248;
}
);
unicode = 0237;
},
{
glyphname = k;
layers = (
{
anchors = (
{
name = bottom;
position = "{264, 0}";
},
{
name = top;
position = "{264, 500}";
}
);
layerId = "4BC9CD2E-8AD0-40CC-97AA-8C7B556514B0";
paths = (
{
closed = 1;
nodes = (
"170 0 LINE",
"170 187 LINE",
"170 209 LINE",
"328 0 LINE",
"469 0 LINE",
"262 291 LINE",
"449 502 LINE",
"292 502 LINE",
"170 366 LINE",
"170 700 LINE",
"50 700 LINE",
"50 0 LINE"
);
}
);
width = 509;
},
{
anchors = (
{
name = bottom;
position = "{197, 0}";
},
{
name = top;
position = "{192, 500}";
}
);
guideLines = (
{
angle = 90;
position = "{381, 299}";
},
{
angle = 219.6678;
position = "{139, 272}";
}
);
layerId = "3C8330F3-4770-4812-9C95-859F387513C1";
paths = (
{
closed = 1;
nodes = (
"103 0 LINE",
"103 241 LINE",
"118 253 LINE",
"321 0 LINE",
"381 0 LINE",
"159 287 LINE",
"377 487 LINE",
"299 487 LINE",
"103 311 LINE",
"103 700 LINE",
"50 700 LINE",
"50 0 LINE"
);
}
);
width = 421;
}
);
leftKerningGroup = "angleds-low";
unicode = 006B;
},
{
color = 5;
glyphname = l;
layers = (
{
anchors = (
{
name = bottom;
position = "{128, 0}";
},
{
name = center;
position = "{110, 336}";
},
{
name = top;
position = "{110, 700}";
},
{
name = topright;
position = "{200, 500}";
}
);
layerId = "4BC9CD2E-8AD0-40CC-97AA-8C7B556514B0";
paths = (
{
closed = 1;
nodes = (
"170 700 LINE",
"50 700 LINE",
"50 0 LINE",
"170 0 LINE"
);
}
);
width = 220;
},
{
anchors = (
{
name = bottom;
position = "{76, 0}";
},
{
name = center;
position = "{76, 323}";
},
{
name = top;
position = "{76, 700}";
},
{
name = topright;
position = "{132, 500}";
}
);
layerId = "3C8330F3-4770-4812-9C95-859F387513C1";
paths = (
{
closed = 1;
nodes = (
"102 700 LINE",
"50 700 LINE",
"50 0 LINE",
"102 0 LINE"
);
}
);
width = 152;
}
);
unicode = 006C;
},
{
glyphname = lslash;
layers = (
{
components = (
{
alignment = -1;
name = l;
transform = "{1, 0, 0, 1, 139, 0}";
}
);
layerId = "4BC9CD2E-8AD0-40CC-97AA-8C7B556514B0";
paths = (
{
closed = 1;
nodes = (
"355 561 LINE",
"50 175 LINE",
"158 175 LINE",
"464 561 LINE"
);
}
);
width = 514;
},
{
components = (
{
alignment = -1;
name = l;
transform = "{1, 0, 0, 1, 115, 0}";
}
);
layerId = "3C8330F3-4770-4812-9C95-859F387513C1";
paths = (
{
closed = 1;
nodes = (
"271 531 LINE",
"50 244 LINE",
"97 244 LINE",
"319 531 LINE"
);
}
);
width = 369;
}
);
leftMetricsKey = l;
rightMetricsKey = l;
unicode = 0142;
},
{
color = 5;
glyphname = m;
layers = (
{
layerId = "4BC9CD2E-8AD0-40CC-97AA-8C7B556514B0";
paths = (
{
closed = 1;
nodes = (
"816 288 LINE SMOOTH",
"816 417 OFFCURVE",
"720 505 OFFCURVE",
"609 505 CURVE SMOOTH",
"549 505 OFFCURVE",
"476 483 OFFCURVE",
"442 439 CURVE",
"409 483 OFFCURVE",
"349 505 OFFCURVE",
"288 505 CURVE SMOOTH",
"246 505 OFFCURVE",
"202 494 OFFCURVE",
"170 462 CURVE",
"170 500 LINE",
"50 500 LINE",
"50 0 LINE",
"170 0 LINE",
"170 288 LINE",
"170 359 OFFCURVE",
"225 383 OFFCURVE",
"281 383 CURVE SMOOTH",
"333 383 OFFCURVE",
"377 359 OFFCURVE",
"377 288 CURVE SMOOTH",
"377 0 LINE",
"493 0 LINE",
"493 288 LINE SMOOTH",
"493 359 OFFCURVE",
"543 384 OFFCURVE",
"602 384 CURVE SMOOTH",
"659 384 OFFCURVE",
"696 359 OFFCURVE",
"696 288 CURVE SMOOTH",
"696 0 LINE",
"816 0 LINE"
);
}
);
width = 856;
},
{
layerId = "3C8330F3-4770-4812-9C95-859F387513C1";
paths = (
{
closed = 1;
nodes = (
"808 300 LINE SMOOTH",
"808 437 OFFCURVE",
"713 505 OFFCURVE",
"611 505 CURVE SMOOTH",
"538 505 OFFCURVE",
"473 477 OFFCURVE",
"435 415 CURVE",
"386 479 OFFCURVE",
"313 507 OFFCURVE",
"245 506 CURVE SMOOTH",
"188 504 OFFCURVE",
"135 482 OFFCURVE",
"101 440 CURVE",
"101 500 LINE",
"50 500 LINE",
"50 0 LINE",
"101 0 LINE",
"101 300 LINE",
"101 408 OFFCURVE",
"187 459 OFFCURVE",
"249 459 CURVE SMOOTH",
"342 459 OFFCURVE",
"407 408 OFFCURVE",
"407 300 CURVE SMOOTH",
"407 0 LINE",
"458 0 LINE",
"458 300 LINE SMOOTH",
"458 403 OFFCURVE",
"519 459 OFFCURVE",
"608 459 CURVE SMOOTH",
"696 459 OFFCURVE",
"757 403 OFFCURVE",
"757 300 CURVE SMOOTH",
"757 0 LINE",
"808 0 LINE"
);
}
);
width = 848;
}
);
leftKerningGroup = "angleds-low";
unicode = 006D;
},
{
color = 5;
glyphname = n;
layers = (
{
anchors = (
{
name = bottom;
position = "{283, 0}";
},
{
name = top;
position = "{283, 510}";
}
);
layerId = "4BC9CD2E-8AD0-40CC-97AA-8C7B556514B0";
paths = (
{
closed = 1;
nodes = (
"500 292 LINE SMOOTH",
"500 420 OFFCURVE",
"419 506 OFFCURVE",
"292 506 CURVE SMOOTH",
"248 506 OFFCURVE",
"192 495 OFFCURVE",
"170 464 CURVE",
"170 500 LINE",
"50 500 LINE",
"50 0 LINE",
"170 0 LINE",
"170 292 LINE",
"170 373 OFFCURVE",
"243 388 OFFCURVE",
"283 388 CURVE SMOOTH",
"324 388 OFFCURVE",
"380 373 OFFCURVE",
"380 292 CURVE SMOOTH",
"380 0 LINE",
"500 0 LINE"
);
}
);
width = 540;
},
{
anchors = (
{
name = bottom;
position = "{260, 0}";
},
{
name = top;
position = "{260, 500}";
}
);
layerId = "3C8330F3-4770-4812-9C95-859F387513C1";
paths = (
{
closed = 1;
nodes = (
"480 300 LINE SMOOTH",
"480 442 OFFCURVE",
"374 505 OFFCURVE",
"263 506 CURVE SMOOTH",
"198 507 OFFCURVE",
"139 483 OFFCURVE",
"102 434 CURVE",
"102 500 LINE",
"50 500 LINE",
"50 0 LINE",
"102 0 LINE",
"102 300 LINE",
"102 397 OFFCURVE",
"180 455 OFFCURVE",
"263 455 CURVE SMOOTH",
"350 455 OFFCURVE",
"428 407 OFFCURVE",
"428 300 CURVE SMOOTH",
"428 0 LINE",
"480 0 LINE"
);
}
);
width = 520;
}
);
leftKerningGroup = "angleds-low";
unicode = 006E;
},
{
color = 5;
glyphname = eng;
layers = (
{
components = (
{
name = n;
}
);
layerId = "4BC9CD2E-8AD0-40CC-97AA-8C7B556514B0";
paths = (
{
closed = 1;
nodes = (
"442 -175 OFFCURVE",
"500 -113 OFFCURVE",
"500 2 CURVE",
"500 76 LINE",
"380 76 LINE",
"380 0 LINE",
"380 -60 OFFCURVE",
"360 -71 OFFCURVE",
"275 -71 CURVE",
"275 -175 LINE"
);
}
);
width = 550;
},
{
components = (
{
name = n;
}
);
layerId = "3C8330F3-4770-4812-9C95-859F387513C1";
paths = (
{
closed = 1;
nodes = (
"426 -124 OFFCURVE",
"480 -85 OFFCURVE",
"480 -3 CURVE",
"480 22 LINE",
"428 22 LINE",
"428 -3 LINE",
"428 -52 OFFCURVE",
"399 -77 OFFCURVE",
"344 -88 CURVE",
"344 -139 LINE"
);
}
);
width = 520;
}
);
unicode = 014B;
},
{
color = 5;
glyphname = o;
layers = (
{
anchors = (
{
name = bottom;
position = "{282, 0}";
},
{
name = center;
position = "{282, 250}";
},
{
name = ogonek;
position = "{382, 10}";
},
{
name = top;
position = "{282, 510}";
},
{
name = topright;
position = "{544, 500}";
}
);
layerId = "4BC9CD2E-8AD0-40CC-97AA-8C7B556514B0";
paths = (
{
closed = 1;
nodes = (
"424 -13 OFFCURVE",
"524 87 OFFCURVE",
"524 238 CURVE SMOOTH",
"524 414 OFFCURVE",
"424 505 OFFCURVE",
"282 505 CURVE SMOOTH",
"137 505 OFFCURVE",
"40 414 OFFCURVE",
"40 238 CURVE SMOOTH",
"40 87 OFFCURVE",
"137 -13 OFFCURVE",
"282 -13 CURVE SMOOTH"
);
},
{
closed = 1;
nodes = (
"202 102 OFFCURVE",
"155 165 OFFCURVE",
"155 238 CURVE SMOOTH",
"155 326 OFFCURVE",
"202 390 OFFCURVE",
"282 390 CURVE SMOOTH",
"364 390 OFFCURVE",
"409 322 OFFCURVE",
"409 238 CURVE SMOOTH",
"409 168 OFFCURVE",
"364 102 OFFCURVE",
"282 102 CURVE SMOOTH"
);
}
);
width = 564;
},
{
anchors = (
{
name = bottom;
position = "{282, 0}";
},
{
name = center;
position = "{282, 250}";
},
{
name = ogonek;
position = "{508, 10}";
},
{
name = top;
position = "{282, 500}";
},
{
name = topright;
position = "{544, 500}";
}
);
layerId = "3C8330F3-4770-4812-9C95-859F387513C1";
paths = (
{
closed = 1;
nodes = (
"425 -12 OFFCURVE",
"524 89 OFFCURVE",
"524 239 CURVE SMOOTH",
"524 415 OFFCURVE",
"425 505 OFFCURVE",
"282 505 CURVE SMOOTH",
"150 505 OFFCURVE",
"40 415 OFFCURVE",
"40 239 CURVE SMOOTH",
"40 89 OFFCURVE",
"140 -12 OFFCURVE",
"282 -12 CURVE SMOOTH"
);
},
{
closed = 1;
nodes = (
"155 39 OFFCURVE",
"91 126 OFFCURVE",
"91 239 CURVE SMOOTH",
"91 362 OFFCURVE",
"155 454 OFFCURVE",
"282 454 CURVE SMOOTH",
"405 454 OFFCURVE",
"473 365 OFFCURVE",
"473 239 CURVE SMOOTH",
"473 126 OFFCURVE",
"405 39 OFFCURVE",
"282 39 CURVE SMOOTH"
);
}
);
width = 564;
}
);
leftKerningGroup = "rounded-low";
unicode = 006F;
},
{
color = 5;
glyphname = p;
layers = (
{
layerId = "4BC9CD2E-8AD0-40CC-97AA-8C7B556514B0";
paths = (
{
closed = 1;
nodes = (
"170 17 LINE",
"195 -2 OFFCURVE",
"253 -7 OFFCURVE",
"283 -7 CURVE SMOOTH",
"410 -5 OFFCURVE",
"511 104 OFFCURVE",
"511 241 CURVE SMOOTH",
"511 440 OFFCURVE",
"323 564 OFFCURVE",
"170 473 CURVE",
"170 500 LINE",
"50 500 LINE",
"50 -200 LINE",
"170 -200 LINE"
);
},
{
closed = 1;
nodes = (
"170 360 LINE",
"279 426 OFFCURVE",
"390 372 OFFCURVE",
"390 241 CURVE SMOOTH",
"390 127 OFFCURVE",
"286 75 OFFCURVE",
"170 130 CURVE"
);
}
);
width = 551;
},
{
layerId = "3C8330F3-4770-4812-9C95-859F387513C1";
paths = (
{
closed = 1;
nodes = (
"102 33 LINE",
"158 0 OFFCURVE",
"205 -5 OFFCURVE",
"248 -5 CURVE SMOOTH",
"394 -5 OFFCURVE",
"480 97 OFFCURVE",
"480 248 CURVE SMOOTH",
"480 466 OFFCURVE",
"306 563 OFFCURVE",
"102 469 CURVE",
"102 500 LINE",
"50 500 LINE",
"50 -200 LINE",
"102 -200 LINE"
);
},
{
closed = 1;
nodes = (
"102 404 LINE",
"257 507 OFFCURVE",
"427 435 OFFCURVE",
"427 248 CURVE SMOOTH",
"427 63 OFFCURVE",
"258 -5 OFFCURVE",
"102 91 CURVE"
);
}
);
width = 520;
}
);
leftKerningGroup = "angleds-low";
unicode = 0070;
},
{
color = 5;
glyphname = thorn;
layers = (
{
layerId = "4BC9CD2E-8AD0-40CC-97AA-8C7B556514B0";
paths = (
{
closed = 1;
nodes = (
"170 -170 LINE",
"170 26 LINE",
"218 1 OFFCURVE",
"299 0 OFFCURVE",
"346 13 CURVE SMOOTH",
"450 42 OFFCURVE",
"511 143 OFFCURVE",
"511 255 CURVE SMOOTH",
"511 399 OFFCURVE",
"456 487 OFFCURVE",
"341 519 CURVE SMOOTH",
"290 533 OFFCURVE",
"210 524 OFFCURVE",
"170 497 CURVE",
"170 700 LINE",
"50 700 LINE",
"50 -170 LINE"
);
},
{
closed = 1;
nodes = (
"277 126 OFFCURVE",
"211 129 OFFCURVE",
"170 147 CURVE",
"170 368 LINE",
"202 392 OFFCURVE",
"271 407 OFFCURVE",
"312 395 CURVE SMOOTH",
"367 379 OFFCURVE",
"390 343 OFFCURVE",
"390 255 CURVE SMOOTH",
"390 187 OFFCURVE",
"360 147 OFFCURVE",
"312 135 CURVE SMOOTH"
);
}
);
width = 551;
},
{
layerId = "3C8330F3-4770-4812-9C95-859F387513C1";
paths = (
{
closed = 1;
nodes = (
"102 -170 LINE",
"102 49 LINE",
"172 14 OFFCURVE",
"241 12 OFFCURVE",
"310 29 CURVE SMOOTH",
"414 56 OFFCURVE",
"480 136 OFFCURVE",
"480 255 CURVE SMOOTH",
"480 399 OFFCURVE",
"422 475 OFFCURVE",
"310 502 CURVE SMOOTH",
"250 517 OFFCURVE",
"172 510 OFFCURVE",
"102 465 CURVE",
"102 700 LINE",
"50 700 LINE",
"50 -170 LINE"
);
},
{
closed = 1;
nodes = (
"236 63 OFFCURVE",
"164 71 OFFCURVE",
"102 101 CURVE",
"102 409 LINE",
"155 444 OFFCURVE",
"232 467 OFFCURVE",
"296 452 CURVE SMOOTH",
"392 429 OFFCURVE",
"427 360 OFFCURVE",
"427 255 CURVE SMOOTH",
"427 164 OFFCURVE",
"381 99 OFFCURVE",
"296 78 CURVE SMOOTH"
);
}
);
width = 520;
}
);
unicode = 00FE;
},
{
color = 5;
glyphname = q;
layers = (
{
layerId = "4BC9CD2E-8AD0-40CC-97AA-8C7B556514B0";
paths = (
{
closed = 1;
nodes = (
"501 -200 LINE",
"501 500 LINE",
"381 500 LINE",
"381 473 LINE",
"228 564 OFFCURVE",
"40 440 OFFCURVE",
"40 241 CURVE SMOOTH",
"40 104 OFFCURVE",
"141 -5 OFFCURVE",
"268 -7 CURVE SMOOTH",
"298 -7 OFFCURVE",
"356 -2 OFFCURVE",
"381 17 CURVE",
"381 -200 LINE"
);
},
{
closed = 1;
nodes = (
"161 127 OFFCURVE",
"161 241 CURVE SMOOTH",
"161 372 OFFCURVE",
"272 426 OFFCURVE",
"381 360 CURVE",
"381 130 LINE",
"265 75 OFFCURVE"
);
}
);
width = 551;
},
{
layerId = "3C8330F3-4770-4812-9C95-859F387513C1";
paths = (
{
closed = 1;
nodes = (
"470 -200 LINE",
"470 500 LINE",
"418 500 LINE",
"418 469 LINE",
"214 563 OFFCURVE",
"40 466 OFFCURVE",
"40 248 CURVE SMOOTH",
"40 97 OFFCURVE",
"126 -5 OFFCURVE",
"272 -5 CURVE SMOOTH",
"315 -5 OFFCURVE",
"362 0 OFFCURVE",
"418 33 CURVE",
"418 -200 LINE"
);
},
{
closed = 1;
nodes = (
"93 63 OFFCURVE",
"93 248 CURVE SMOOTH",
"93 435 OFFCURVE",
"263 507 OFFCURVE",
"418 404 CURVE",
"418 91 LINE",
"262 -5 OFFCURVE"
);
}
);
width = 520;
}
);
leftKerningGroup = "rounded-low";
unicode = 0071;
},
{
color = 5;
glyphname = r;
layers = (
{
anchors = (
{
name = bottom;
position = "{212, 0}";
},
{
name = top;
position = "{212, 500}";
}
);
layerId = "4BC9CD2E-8AD0-40CC-97AA-8C7B556514B0";
paths = (
{
closed = 1;
nodes = (
"169 0 LINE",
"169 322 LINE",
"167 370 OFFCURVE",
"248 403 OFFCURVE",
"325 377 CURVE",
"383 480 LINE",
"295 508 OFFCURVE",
"221 516 OFFCURVE",
"169 463 CURVE",
"169 500 LINE",
"50 500 LINE",
"50 0 LINE"
);
}
);
width = 413;
},
{
anchors = (
{
name = bottom;
position = "{193, 0}";
},
{
name = top;
position = "{193, 500}";
}
);
layerId = "3C8330F3-4770-4812-9C95-859F387513C1";
paths = (
{
closed = 1;
nodes = (
"102 0 LINE",
"102 324 LINE",
"102 390 OFFCURVE",
"177 469 OFFCURVE",
"277 432 CURVE",
"299 480 LINE",
"195 508 OFFCURVE",
"142 485 OFFCURVE",
"102 438 CURVE",
"102 490 LINE",
"50 490 LINE",
"50 0 LINE"
);
}
);
width = 329;
}
);
leftKerningGroup = "angleds-low";
unicode = 0072;
},
{
color = 5;
glyphname = s;
layers = (
{
anchors = (
{
name = bottom;
position = "{218, 0}";
},
{
name = top;
position = "{218, 500}";
}
);
layerId = "4BC9CD2E-8AD0-40CC-97AA-8C7B556514B0";
paths = (
{
closed = 1;
nodes = (
"165 -60 OFFCURVE",
"395 -19 OFFCURVE",
"395 151 CURVE SMOOTH",
"395 214 OFFCURVE",
"363 252 OFFCURVE",
"322 273 CURVE SMOOTH",
"257 308 OFFCURVE",
"172 311 OFFCURVE",
"172 359 CURVE SMOOTH",
"172 390 OFFCURVE",
"198 401 OFFCURVE",
"229 401 CURVE SMOOTH",
"258 401 OFFCURVE",
"293 391 OFFCURVE",
"314 371 CURVE",
"390 439 LINE",
"357 478 OFFCURVE",
"298 505 OFFCURVE",
"228 505 CURVE SMOOTH",
"78 505 OFFCURVE",
"-9 367 OFFCURVE",
"95 268 CURVE SMOOTH",
"159 208 OFFCURVE",
"275 212 OFFCURVE",
"285 164 CURVE SMOOTH",
"288 150 OFFCURVE",
"287 126 OFFCURVE",
"271 112 CURVE SMOOTH",
"259 101 OFFCURVE",
"240 97 OFFCURVE",
"219 97 CURVE SMOOTH",
"180 97 OFFCURVE",
"146 112 OFFCURVE",
"110 143 CURVE",
"40 68 LINE"
);
}
);
width = 435;
},
{
anchors = (
{
name = bottom;
position = "{193, 0}";
},
{
name = top;
position = "{193, 500}";
}
);
layerId = "3C8330F3-4770-4812-9C95-859F387513C1";
paths = (
{
closed = 1;
nodes = (
"148 -40 OFFCURVE",
"332 -26 OFFCURVE",
"364 97 CURVE SMOOTH",
"387 184 OFFCURVE",
"339 242 OFFCURVE",
"256 271 CURVE SMOOTH",
"154 301 OFFCURVE",
"85 321 OFFCURVE",
"94 385 CURVE",
"100 433 OFFCURVE",
"139 455 OFFCURVE",
"189 457 CURVE SMOOTH",
"229 457 OFFCURVE",
"275 446 OFFCURVE",
"316 423 CURVE",
"349 458 LINE",
"310 492 OFFCURVE",
"233 511 OFFCURVE",
"166 503 CURVE SMOOTH",
"31 486 OFFCURVE",
"-8 330 OFFCURVE",
"121 265 CURVE SMOOTH",
"195 231 OFFCURVE",
"291 226 OFFCURVE",
"318 160 CURVE SMOOTH",
"332 126 OFFCURVE",
"317 88 OFFCURVE",
"286 65 CURVE SMOOTH",
"261 47 OFFCURVE",
"235 39 OFFCURVE",
"207 38 CURVE SMOOTH",
"163 36 OFFCURVE",
"117 55 OFFCURVE",
"71 87 CURVE",
"40 51 LINE"
);
}
);
width = 410;
}
);
leftKerningGroup = "rounded-low";
unicode = 0073;
},
{
color = 5;
glyphname = germandbls;
layers = (
{
layerId = "4BC9CD2E-8AD0-40CC-97AA-8C7B556514B0";
paths = (
{
closed = 1;
nodes = (
"530 99 OFFCURVE",
"530 203 CURVE SMOOTH",
"530 267 OFFCURVE",
"503 336 OFFCURVE",
"458 373 CURVE",
"485 412 OFFCURVE",
"498 449 OFFCURVE",
"498 492 CURVE SMOOTH",
"498 607 OFFCURVE",
"426 700 OFFCURVE",
"316 700 CURVE SMOOTH",
"50 700 LINE",
"50 0 LINE",
"170 0 LINE",
"170 290 LINE",
"348 290 LINE SMOOTH",
"382 290 OFFCURVE",
"407 246 OFFCURVE",
"407 203 CURVE SMOOTH",
"407 161 OFFCURVE",
"377 120 OFFCURVE",
"345 120 CURVE SMOOTH",
"284 120 LINE",
"284 0 LINE",
"345 0 LINE SMOOTH",
"447 0 OFFCURVE"
);
},
{
closed = 1;
nodes = (
"376 530 OFFCURVE",
"376 492 CURVE SMOOTH",
"376 448 OFFCURVE",
"348 410 OFFCURVE",
"313 410 CURVE SMOOTH",
"170 410 LINE",
"170 575 LINE",
"316 575 LINE SMOOTH",
"353 575 OFFCURVE"
);
}
);
width = 570;
},
{
layerId = "3C8330F3-4770-4812-9C95-859F387513C1";
paths = (
{
closed = 1;
nodes = (
"520 100 OFFCURVE",
"520 196 CURVE SMOOTH",
"520 263 OFFCURVE",
"488 319 OFFCURVE",
"412 366 CURVE",
"462 422 OFFCURVE",
"482 457 OFFCURVE",
"482 521 CURVE SMOOTH",
"482 623 OFFCURVE",
"409 700 OFFCURVE",
"311 700 CURVE SMOOTH",
"50 700 LINE",
"50 0 LINE",
"103 0 LINE",
"103 327 LINE",
"348 327 LINE SMOOTH",
"420 327 OFFCURVE",
"467 265 OFFCURVE",
"467 196 CURVE SMOOTH",
"467 129 OFFCURVE",
"415 50 OFFCURVE",
"345 50 CURVE SMOOTH",
"180 50 LINE",
"180 0 LINE",
"345 0 LINE SMOOTH",
"437 0 OFFCURVE"
);
},
{
closed = 1;
nodes = (
"429 592 OFFCURVE",
"429 521 CURVE SMOOTH",
"429 447 OFFCURVE",
"373 373 OFFCURVE",
"307 373 CURVE SMOOTH",
"103 373 LINE",
"103 650 LINE",
"311 650 LINE SMOOTH",
"384 650 OFFCURVE"
);
}
);
width = 560;
}
);
unicode = 00DF;
},
{
color = 3;
glyphname = t;
layers = (
{
anchors = (
{
name = bottom;
position = "{193, 0}";
},
{
name = center;
position = "{193, 602}";
},
{
name = top;
position = "{193, 700}";
},
{
name = topright;
position = "{365, 500}";
}
);
layerId = "4BC9CD2E-8AD0-40CC-97AA-8C7B556514B0";
paths = (
{
closed = 1;
nodes = (
"113 28 OFFCURVE",
"172 -2 OFFCURVE",
"319 -2 CURVE",
"334 -2 LINE",
"334 117 LINE",
"317 117 LINE",
"273 118 OFFCURVE",
"231 108 OFFCURVE",
"231 227 CURVE SMOOTH",
"231 389 LINE",
"309 389 LINE",
"309 500 LINE",
"231 500 LINE",
"231 700 LINE",
"113 700 LINE",
"113 500 LINE",
"40 500 LINE",
"40 389 LINE",
"113 389 LINE",
"113 227 LINE SMOOTH"
);
}
);
width = 374;
},
{
anchors = (
{
name = bottom;
position = "{192, 0}";
},
{
name = center;
position = "{192, 607}";
},
{
name = top;
position = "{192, 700}";
},
{
name = topright;
position = "{364, 695}";
}
);
layerId = "3C8330F3-4770-4812-9C95-859F387513C1";
paths = (
{
closed = 1;
nodes = (
"136 32 OFFCURVE",
"135 -3 OFFCURVE",
"242 -3 CURVE",
"269 -3 LINE",
"269 49 LINE",
"239 49 LINE",
"177 50 OFFCURVE",
"189 76 OFFCURVE",
"189 208 CURVE SMOOTH",
"189 451 LINE",
"284 451 LINE",
"284 500 LINE",
"189 500 LINE",
"189 700 LINE",
"136 700 LINE",
"136 500 LINE",
"40 500 LINE",
"40 451 LINE",
"136 451 LINE",
"136 208 LINE SMOOTH"
);
}
);
width = 324;
}
);
unicode = 0074;
},
{
color = 5;
glyphname = u;
layers = (
{
anchors = (
{
name = bottom;
position = "{280, 0}";
},
{
name = ogonek;
position = "{488, 10}";
},
{
name = top;
position = "{280, 510}";
},
{
name = topright;
position = "{520, 500}";
}
);
layerId = "4BC9CD2E-8AD0-40CC-97AA-8C7B556514B0";
paths = (
{
closed = 1;
nodes = (
"490 500 LINE",
"370 500 LINE",
"370 202 LINE",
"370 134 OFFCURVE",
"313 106 OFFCURVE",
"267 106 CURVE SMOOTH",
"206 106 OFFCURVE",
"160 134 OFFCURVE",
"160 202 CURVE SMOOTH",
"160 500 LINE",
"40 500 LINE",
"40 202 LINE SMOOTH",
"40 130 OFFCURVE",
"62 72 OFFCURVE",
"102 36 CURVE SMOOTH",
"168 -24 OFFCURVE",
"337 -26 OFFCURVE",
"370 39 CURVE",
"370 0 LINE",
"490 0 LINE"
);
}
);
width = 540;
},
{
anchors = (
{
name = bottom;
position = "{260, 0}";
},
{
name = ogonek;
position = "{467, 10}";
},
{
name = top;
position = "{260, 500}";
},
{
name = topright;
position = "{499, 500}";
}
);
layerId = "3C8330F3-4770-4812-9C95-859F387513C1";
paths = (
{
closed = 1;
nodes = (
"469 500 LINE",
"417 500 LINE",
"417 196 LINE",
"417 88 OFFCURVE",
"329 37 OFFCURVE",
"257 37 CURVE SMOOTH",
"160 37 OFFCURVE",
"93 88 OFFCURVE",
"93 196 CURVE SMOOTH",
"93 500 LINE",
"40 500 LINE",
"40 196 LINE SMOOTH",
"40 127 OFFCURVE",
"63 76 OFFCURVE",
"103 42 CURVE SMOOTH",
"191 -33 OFFCURVE",
"351 -28 OFFCURVE",
"417 61 CURVE",
"417 0 LINE",
"469 0 LINE"
);
}
);
width = 519;
}
);
leftKerningGroup = "rounded-low";
unicode = 0075;
},
{
color = 3;
glyphname = v;
layers = (
{
layerId = "4BC9CD2E-8AD0-40CC-97AA-8C7B556514B0";
paths = (
{
closed = 1;
nodes = (
"401 500 LINE",
"283 134 LINE",
"165 500 LINE",
"40 500 LINE",
"220 0 LINE",
"347 0 LINE",
"526 500 LINE"
);
}
);
width = 566;
},
{
layerId = "3C8330F3-4770-4812-9C95-859F387513C1";
paths = (
{
closed = 1;
nodes = (
"443 500 LINE",
"269 45 LINE",
"95 500 LINE",
"40 500 LINE",
"229 0 LINE",
"308 0 LINE",
"498 500 LINE"
);
}
);
width = 538;
}
);
leftKerningGroup = "angled-low";
unicode = 0076;
},
{
color = 5;
glyphname = w;
layers = (
{
anchors = (
{
name = bottom;
position = "{461, 0}";
},
{
name = top;
position = "{461, 500}";
}
);
layerId = "4BC9CD2E-8AD0-40CC-97AA-8C7B556514B0";
paths = (
{
closed = 1;
nodes = (
"747 500 LINE",
"640 133 LINE",
"524 500 LINE",
"399 500 LINE",
"283 132 LINE",
"175 500 LINE",
"40 500 LINE",
"211 0 LINE",
"357 0 LINE",
"461 337 LINE",
"566 0 LINE",
"712 0 LINE",
"882 500 LINE"
);
}
);
width = 922;
},
{
anchors = (
{
name = bottom;
position = "{434, 0}";
},
{
name = top;
position = "{434, 500}";
}
);
layerId = "3C8330F3-4770-4812-9C95-859F387513C1";
paths = (
{
closed = 1;
nodes = (
"779 500 LINE",
"622 49 LINE",
"470 500 LINE",
"399 500 LINE",
"248 49 LINE",
"90 500 LINE",
"40 500 LINE",
"209 0 LINE",
"286 0 LINE",
"434 453 LINE",
"583 0 LINE",
"660 0 LINE",
"828 500 LINE"
);
}
);
width = 868;
}
);
leftKerningGroup = "angled-low";
unicode = 0077;
},
{
color = 5;
glyphname = x;
layers = (
{
layerId = "4BC9CD2E-8AD0-40CC-97AA-8C7B556514B0";
paths = (
{
closed = 1;
nodes = (
"348 254 LINE",
"497 500 LINE",
"353 500 LINE",
"271 341 LINE",
"188 500 LINE",
"43 500 LINE",
"194 254 LINE",
"40 0 LINE",
"184 0 LINE",
"271 166 LINE",
"360 0 LINE",
"504 0 LINE"
);
}
);
width = 544;
},
{
layerId = "3C8330F3-4770-4812-9C95-859F387513C1";
paths = (
{
closed = 1;
nodes = (
"268 254 LINE",
"421 500 LINE",
"361 500 LINE",
"233 293 LINE",
"104 500 LINE",
"43 500 LINE",
"198 254 LINE",
"40 0 LINE",
"100 0 LINE",
"233 215 LINE",
"368 0 LINE",
"428 0 LINE"
);
}
);
width = 468;
}
);
leftKerningGroup = "angled-low";
unicode = 0078;
},
{
color = 5;
glyphname = y;
layers = (
{
anchors = (
{
name = bottom;
position = "{285, 0}";
},
{
name = top;
position = "{285, 510}";
}
);
layerId = "4BC9CD2E-8AD0-40CC-97AA-8C7B556514B0";
paths = (
{
closed = 1;
nodes = (
"282 -173 OFFCURVE",
"311 -94 OFFCURVE",
"373 73 CURVE",
"529 500 LINE",
"396 500 LINE",
"288 146 LINE",
"171 500 LINE",
"40 500 LINE",
"219 8 LINE",
"202 -43 OFFCURVE",
"166 -55 OFFCURVE",
"117 -54 CURVE",
"117 -174 LINE"
);
}
);
width = 569;
},
{
anchors = (
{
name = bottom;
position = "{266, 0}";
},
{
name = top;
position = "{266, 500}";
}
);
layerId = "3C8330F3-4770-4812-9C95-859F387513C1";
paths = (
{
closed = 1;
nodes = (
"205 -168 OFFCURVE",
"267 -94 OFFCURVE",
"302 -1 CURVE SMOOTH",
"491 500 LINE",
"432 500 LINE",
"269 57 LINE",
"97 500 LINE",
"40 500 LINE",
"236 -11 LINE",
"236 -59 OFFCURVE",
"172 -121 OFFCURVE",
"111 -121 CURVE",
"111 -170 LINE"
);
}
);
width = 531;
}
);
leftKerningGroup = "angled-low";
unicode = 0079;
},
{
color = 5;
glyphname = z;
layers = (
{
anchors = (
{
name = bottom;
position = "{235, 0}";
},
{
name = top;
position = "{235, 510}";
}
);
guideLines = (
{
angle = 50.3977;
position = "{315, 264}";
},
{
angle = 230.6774;
position = "{156, 234}";
}
);
layerId = "4BC9CD2E-8AD0-40CC-97AA-8C7B556514B0";
paths = (
{
closed = 1;
nodes = (
"430 115 LINE",
"192 115 LINE",
"430 403 LINE",
"430 500 LINE",
"47 500 LINE",
"47 385 LINE",
"280 385 LINE",
"40 93 LINE",
"40 0 LINE",
"430 0 LINE"
);
}
);
width = 470;
},
{
anchors = (
{
name = bottom;
position = "{235, 0}";
},
{
name = top;
position = "{235, 500}";
}
);
guideLines = (
{
angle = 51.1296;
position = "{270, 252}";
},
{
angle = 231.4795;
position = "{200, 246}";
}
);
layerId = "3C8330F3-4770-4812-9C95-859F387513C1";
paths = (
{
closed = 1;
nodes = (
"430 49 LINE",
"107 49 LINE",
"430 450 LINE",
"430 500 LINE",
"47 500 LINE",
"47 451 LINE",
"363 451 LINE",
"40 45 LINE",
"40 0 LINE",
"430 0 LINE"
);
}
);
width = 470;
}
);
unicode = 007A;
},
{
glyphname = ordfeminine;
layers = (
{
anchors = (
{
name = bottom;
position = "{159.867, 424}";
},
{
name = ogonek;
position = "{275.629, 429.647}";
},
{
name = top;
position = "{159.867, 711.993}";
}
);
layerId = "4BC9CD2E-8AD0-40CC-97AA-8C7B556514B0";
paths = (
{
closed = 1;
nodes = (
"154.22 420.047 OFFCURVE",
"184.149 427.953 OFFCURVE",
"207.866 449.976 CURVE",
"207.866 424 LINE",
"276.759 424 LINE",
"276.759 573.079 LINE SMOOTH",
"276.759 614.302 OFFCURVE",
"277.888 651.007 OFFCURVE",
"259.253 671.9 CURVE SMOOTH",
"210.69 726.111 OFFCURVE",
"99.445 718.205 OFFCURVE",
"42.411 662.3 CURVE",
"80.246 621.078 LINE",
"114.692 658.348 OFFCURVE",
"207.302 665.124 OFFCURVE",
"207.302 617.69 CURVE SMOOTH",
"207.302 600.184 LINE",
"126.55 618.254 OFFCURVE",
"39.588 584.373 OFFCURVE",
"39.588 507.575 CURVE SMOOTH",
"39.588 455.058 OFFCURVE",
"69.516 424 OFFCURVE",
"126.55 421.177 CURVE SMOOTH"
);
},
{
closed = 1;
nodes = (
"169.467 472.564 OFFCURVE",
"101.139 465.787 OFFCURVE",
"101.139 508.139 CURVE SMOOTH",
"101.139 540.891 OFFCURVE",
"127.115 557.832 OFFCURVE",
"205.607 552.185 CURVE",
"205.607 503.622 LINE"
);
}
);
width = 317;
},
{
associatedMasterId = "3C8330F3-4770-4812-9C95-859F387513C1";
layerId = "E1ADDF7C-A343-4E6D-B630-136BDFE64807";
paths = (
{
closed = 1;
nodes = (
"249 391 LINE",
"316 391 LINE",
"316 665 LINE",
"249 665 LINE"
);
},
{
closed = 1;
nodes = (
"214 394 OFFCURVE",
"250 409 OFFCURVE",
"275 434 CURVE SMOOTH",
"300 459 OFFCURVE",
"315 492 OFFCURVE",
"315 531 CURVE SMOOTH",
"315 568 OFFCURVE",
"299 603 OFFCURVE",
"275 628 CURVE SMOOTH",
"250 654 OFFCURVE",
"214 668 OFFCURVE",
"177 668 CURVE SMOOTH",
"138 668 OFFCURVE",
"105 653 OFFCURVE",
"80 628 CURVE SMOOTH",
"55 603 OFFCURVE",
"40 568 OFFCURVE",
"40 531 CURVE SMOOTH",
"40 492 OFFCURVE",
"55 459 OFFCURVE",
"80 434 CURVE SMOOTH",
"105 409 OFFCURVE",
"138 394 OFFCURVE",
"177 394 CURVE SMOOTH"
);
},
{
closed = 1;
nodes = (
"216 601 OFFCURVE",
"247 570 OFFCURVE",
"247 531 CURVE SMOOTH",
"247 492 OFFCURVE",
"216 461 OFFCURVE",
"177 461 CURVE SMOOTH",
"138 461 OFFCURVE",
"107 492 OFFCURVE",
"107 531 CURVE SMOOTH",
"107 570 OFFCURVE",
"138 601 OFFCURVE",
"177 601 CURVE SMOOTH"
);
}
);
width = 356;
},
{
anchors = (
{
name = bottom;
position = "{158.738, 424}";
},
{
name = ogonek;
position = "{273.371, 429.647}";
},
{
name = top;
position = "{158.738, 706.347}";
}
);
layerId = "3C8330F3-4770-4812-9C95-859F387513C1";
paths = (
{
closed = 1;
nodes = (
"172.855 421.177 OFFCURVE",
"207 432 OFFCURVE",
"235 451 CURVE",
"235 424 LINE",
"271.677 424 LINE",
"272.241 562.35 LINE",
"273 624 OFFCURVE",
"275.065 673.03 OFFCURVE",
"225.372 696.182 CURVE SMOOTH",
"173.42 720.464 OFFCURVE",
"89 713 OFFCURVE",
"48 657 CURVE",
"73 632 LINE",
"105 687 OFFCURVE",
"235 692 OFFCURVE",
"235 624 CURVE SMOOTH",
"235 599 LINE",
"112 619 OFFCURVE",
"39.588 593.973 OFFCURVE",
"39.588 504.186 CURVE SMOOTH",
"39.588 447.717 OFFCURVE",
"86.457 421.177 OFFCURVE",
"136.15 421.177 CURVE SMOOTH"
);
},
{
closed = 1;
nodes = (
"184 447 OFFCURVE",
"75 437 OFFCURVE",
"75 504 CURVE SMOOTH",
"75 568 OFFCURVE",
"147 581 OFFCURVE",
"235 567 CURVE",
"235 483 LINE"
);
}
);
width = 312;
}
);
note = ordfeminine;
unicode = 00AA;
},
{
glyphname = ordmasculine;
layers = (
{
anchors = (
{
name = bottom;
position = "{176.04, 424}";
},
{
name = center;
position = "{176.04, 564.993}";
},
{
name = ogonek;
position = "{232.437, 429.64}";
},
{
name = top;
position = "{176.04, 711.626}";
},
{
name = topright;
position = "{323.801, 705.986}";
}
);
layerId = "4BC9CD2E-8AD0-40CC-97AA-8C7B556514B0";
paths = (
{
closed = 1;
nodes = (
"256.124 418.36 OFFCURVE",
"312.521 474.757 OFFCURVE",
"312.521 559.917 CURVE SMOOTH",
"312.521 659.176 OFFCURVE",
"256.124 708.806 OFFCURVE",
"176.04 708.806 CURVE SMOOTH",
"94.264 708.806 OFFCURVE",
"39.559 659.176 OFFCURVE",
"39.559 559.917 CURVE SMOOTH",
"39.559 474.757 OFFCURVE",
"94.264 418.36 OFFCURVE",
"176.04 418.36 CURVE SMOOTH"
);
},
{
closed = 1;
nodes = (
"130.922 483.217 OFFCURVE",
"104.416 518.747 OFFCURVE",
"104.416 559.917 CURVE SMOOTH",
"104.416 609.547 OFFCURVE",
"130.922 643.949 OFFCURVE",
"176.04 643.949 CURVE SMOOTH",
"222.286 643.949 OFFCURVE",
"247.665 607.291 OFFCURVE",
"247.665 559.917 CURVE SMOOTH",
"247.665 520.439 OFFCURVE",
"222.286 483.217 OFFCURVE",
"176.04 483.217 CURVE SMOOTH"
);
}
);
width = 353;
},
{
associatedMasterId = "3C8330F3-4770-4812-9C95-859F387513C1";
layerId = "E1ADDF7C-A343-4E6D-B630-136BDFE64807";
paths = (
{
closed = 1;
nodes = (
"214 394 OFFCURVE",
"250 409 OFFCURVE",
"275 434 CURVE SMOOTH",
"300 459 OFFCURVE",
"315 492 OFFCURVE",
"315 531 CURVE SMOOTH",
"315 568 OFFCURVE",
"299 603 OFFCURVE",
"275 628 CURVE SMOOTH",
"250 654 OFFCURVE",
"214 668 OFFCURVE",
"177 668 CURVE SMOOTH",
"138 668 OFFCURVE",
"105 653 OFFCURVE",
"80 628 CURVE SMOOTH",
"55 603 OFFCURVE",
"40 568 OFFCURVE",
"40 531 CURVE SMOOTH",
"40 492 OFFCURVE",
"55 459 OFFCURVE",
"80 434 CURVE SMOOTH",
"105 409 OFFCURVE",
"138 394 OFFCURVE",
"177 394 CURVE SMOOTH"
);
},
{
closed = 1;
nodes = (
"216 601 OFFCURVE",
"247 570 OFFCURVE",
"247 531 CURVE SMOOTH",
"247 492 OFFCURVE",
"216 461 OFFCURVE",
"177 461 CURVE SMOOTH",
"138 461 OFFCURVE",
"107 492 OFFCURVE",
"107 531 CURVE SMOOTH",
"107 570 OFFCURVE",
"138 601 OFFCURVE",
"177 601 CURVE SMOOTH"
);
}
);
width = 355;
},
{
anchors = (
{
name = bottom;
position = "{176.04, 424}";
},
{
name = center;
position = "{176.04, 564.993}";
},
{
name = ogonek;
position = "{303.498, 429.64}";
},
{
name = top;
position = "{176.04, 705.986}";
},
{
name = topright;
position = "{323.801, 705.986}";
}
);
layerId = "3C8330F3-4770-4812-9C95-859F387513C1";
paths = (
{
closed = 1;
nodes = (
"256.688 418.36 OFFCURVE",
"312.521 475.321 OFFCURVE",
"312.521 559.917 CURVE SMOOTH",
"312.521 659.176 OFFCURVE",
"256.688 708.806 OFFCURVE",
"176.04 708.806 CURVE SMOOTH",
"101.596 708.806 OFFCURVE",
"39.559 659.176 OFFCURVE",
"39.559 559.917 CURVE SMOOTH",
"39.559 475.321 OFFCURVE",
"95.956 418.36 OFFCURVE",
"176.04 418.36 CURVE SMOOTH"
);
},
{
closed = 1;
nodes = (
"112 459 OFFCURVE",
"80 503 OFFCURVE",
"80 560 CURVE SMOOTH",
"80 622 OFFCURVE",
"112 668 OFFCURVE",
"176 668 CURVE SMOOTH",
"238 668 OFFCURVE",
"273 624 OFFCURVE",
"272 560 CURVE SMOOTH",
"272 503 OFFCURVE",
"238 459 OFFCURVE",
"176 459 CURVE SMOOTH"
);
}
);
width = 353;
}
);
note = ordmasculine;
unicode = 00BA;
},
{
color = 5;
glyphname = zero;
layers = (
{
layerId = "4BC9CD2E-8AD0-40CC-97AA-8C7B556514B0";
paths = (
{
closed = 1;
nodes = (
"609 173 OFFCURVE",
"632 258 OFFCURVE",
"632 350 CURVE SMOOTH",
"632 441 OFFCURVE",
"610 528 OFFCURVE",
"561 595 CURVE SMOOTH",
"512 662 OFFCURVE",
"437 705 OFFCURVE",
"336 705 CURVE SMOOTH",
"235 705 OFFCURVE",
"160 661 OFFCURVE",
"112 596 CURVE SMOOTH",
"63 529 OFFCURVE",
"40 442 OFFCURVE",
"40 350 CURVE SMOOTH",
"40 258 OFFCURVE",
"63 172 OFFCURVE",
"111 105 CURVE SMOOTH",
"159 37 OFFCURVE",
"232 -5 OFFCURVE",
"336 -5 CURVE SMOOTH",
"437 -5 OFFCURVE",
"513 37 OFFCURVE",
"561 105 CURVE SMOOTH"
);
},
{
closed = 1;
nodes = (
"498 476 OFFCURVE",
"511 418 OFFCURVE",
"511 350 CURVE SMOOTH",
"511 282 OFFCURVE",
"497 225 OFFCURVE",
"468 182 CURVE SMOOTH",
"440 141 OFFCURVE",
"396 117 OFFCURVE",
"336 117 CURVE SMOOTH",
"273 117 OFFCURVE",
"232 142 OFFCURVE",
"204 182 CURVE SMOOTH",
"174 224 OFFCURVE",
"160 281 OFFCURVE",
"160 350 CURVE SMOOTH",
"160 418 OFFCURVE",
"173 475 OFFCURVE",
"204 518 CURVE SMOOTH",
"233 558 OFFCURVE",
"273 582 OFFCURVE",
"336 582 CURVE SMOOTH",
"396 582 OFFCURVE",
"440 558 OFFCURVE",
"468 518 CURVE SMOOTH"
);
}
);
width = 672;
},
{
layerId = "3C8330F3-4770-4812-9C95-859F387513C1";
paths = (
{
closed = 1;
nodes = (
"608 165 OFFCURVE",
"632 254 OFFCURVE",
"632 350 CURVE SMOOTH",
"632 445 OFFCURVE",
"608 534 OFFCURVE",
"559 599 CURVE SMOOTH",
"510 663 OFFCURVE",
"436 705 OFFCURVE",
"336 705 CURVE SMOOTH",
"236 705 OFFCURVE",
"162 665 OFFCURVE",
"113 601 CURVE SMOOTH",
"64 537 OFFCURVE",
"40 447 OFFCURVE",
"40 350 CURVE SMOOTH",
"40 254 OFFCURVE",
"65 165 OFFCURVE",
"113 100 CURVE SMOOTH",
"162 36 OFFCURVE",
"235 -5 OFFCURVE",
"336 -5 CURVE SMOOTH",
"436 -5 OFFCURVE",
"510 36 OFFCURVE",
"559 100 CURVE SMOOTH"
);
},
{
closed = 1;
nodes = (
"562 505 OFFCURVE",
"579 430 OFFCURVE",
"578 350 CURVE SMOOTH",
"578 271 OFFCURVE",
"562 195 OFFCURVE",
"522 139 CURVE SMOOTH",
"483 83 OFFCURVE",
"420 47 OFFCURVE",
"336 47 CURVE SMOOTH",
"251 47 OFFCURVE",
"188 83 OFFCURVE",
"148 139 CURVE SMOOTH",
"109 195 OFFCURVE",
"93 271 OFFCURVE",
"93 350 CURVE SMOOTH",
"93 429 OFFCURVE",
"109 505 OFFCURVE",
"149 561 CURVE SMOOTH",
"188 617 OFFCURVE",
"251 651 OFFCURVE",
"336 651 CURVE SMOOTH",
"420 651 OFFCURVE",
"483 617 OFFCURVE",
"522 561 CURVE SMOOTH"
);
}
);
width = 672;
}
);
unicode = 0030;
},
{
color = 5;
glyphname = one;
layers = (
{
layerId = "4BC9CD2E-8AD0-40CC-97AA-8C7B556514B0";
paths = (
{
closed = 1;
nodes = (
"318 700 LINE",
"185 700 LINE",
"40 535 LINE",
"122 456 LINE",
"199 552 LINE",
"199 0 LINE",
"318 0 LINE"
);
}
);
width = 358;
},
{
layerId = "3C8330F3-4770-4812-9C95-859F387513C1";
paths = (
{
closed = 1;
nodes = (
"205 700 LINE",
"136 700 LINE",
"40 620 LINE",
"74 585 LINE",
"153 650 LINE",
"153 0 LINE",
"205 0 LINE"
);
}
);
width = 245;
}
);
unicode = 0031;
},
{
color = 5;
glyphname = two;
layers = (
{
layerId = "4BC9CD2E-8AD0-40CC-97AA-8C7B556514B0";
paths = (
{
closed = 1;
nodes = (
"518 0 LINE",
"518 117 LINE",
"196 117 LINE",
"198 137 OFFCURVE",
"238 163 OFFCURVE",
"287 191 CURVE SMOOTH",
"420 270 OFFCURVE",
"528 335 OFFCURVE",
"525 458 CURVE",
"525 584 OFFCURVE",
"433 700 OFFCURVE",
"294 702 CURVE SMOOTH",
"147 704 OFFCURVE",
"50 635 OFFCURVE",
"50 481 CURVE",
"173 481 LINE",
"173 556 OFFCURVE",
"215 584 OFFCURVE",
"290 585 CURVE",
"377 584 OFFCURVE",
"437 480 OFFCURVE",
"391 414 CURVE",
"345 353 OFFCURVE",
"273 320 OFFCURVE",
"208 281 CURVE SMOOTH",
"125 231 OFFCURVE",
"54 175 OFFCURVE",
"54 71 CURVE",
"54 0 LINE"
);
}
);
width = 558;
},
{
layerId = "3C8330F3-4770-4812-9C95-859F387513C1";
paths = (
{
closed = 1;
nodes = (
"517 0 LINE",
"517 51 LINE",
"111 51 LINE",
"111 123 OFFCURVE",
"143 131 OFFCURVE",
"244 184 CURVE SMOOTH",
"392 260 OFFCURVE",
"521 342 OFFCURVE",
"521 489 CURVE SMOOTH",
"521 602 OFFCURVE",
"424 707 OFFCURVE",
"278 707 CURVE SMOOTH",
"122 707 OFFCURVE",
"63 630 OFFCURVE",
"52 545 CURVE",
"111 545 LINE",
"122 624 OFFCURVE",
"182 655 OFFCURVE",
"267 655 CURVE SMOOTH",
"375 655 OFFCURVE",
"472 584 OFFCURVE",
"472 485 CURVE SMOOTH",
"472 387 OFFCURVE",
"368 298 OFFCURVE",
"218 227 CURVE SMOOTH",
"128 185 OFFCURVE",
"57 161 OFFCURVE",
"57 54 CURVE",
"57 0 LINE"
);
}
);
width = 557;
}
);
unicode = 0032;
},
{
color = 5;
glyphname = three;
layers = (
{
layerId = "4BC9CD2E-8AD0-40CC-97AA-8C7B556514B0";
paths = (
{
closed = 1;
nodes = (
"400 -7 OFFCURVE",
"504 88 OFFCURVE",
"504 208 CURVE SMOOTH",
"504 271 OFFCURVE",
"464 321 OFFCURVE",
"421 360 CURVE",
"464 396 OFFCURVE",
"493 444 OFFCURVE",
"493 500 CURVE SMOOTH",
"493 614 OFFCURVE",
"397 703 OFFCURVE",
"283 703 CURVE SMOOTH",
"169 703 OFFCURVE",
"89 635 OFFCURVE",
"59 511 CURVE",
"181 487 LINE",
"196 548 OFFCURVE",
"227 577 OFFCURVE",
"283 577 CURVE SMOOTH",
"330 577 OFFCURVE",
"369 545 OFFCURVE",
"369 500 CURVE SMOOTH",
"369 461 OFFCURVE",
"356 403 OFFCURVE",
"283 403 CURVE SMOOTH",
"190 403 LINE",
"190 315 LINE",
"277 315 LINE SMOOTH",
"356 315 OFFCURVE",
"381 254 OFFCURVE",
"381 208 CURVE SMOOTH",
"381 161 OFFCURVE",
"338 119 OFFCURVE",
"277 119 CURVE SMOOTH",
"226 119 OFFCURVE",
"182 154 OFFCURVE",
"158 214 CURVE",
"40 178 LINE",
"76 69 OFFCURVE",
"157 -7 OFFCURVE",
"277 -7 CURVE SMOOTH"
);
}
);
width = 544;
},
{
layerId = "3C8330F3-4770-4812-9C95-859F387513C1";
paths = (
{
closed = 1;
nodes = (
"378 -8 OFFCURVE",
"484 75 OFFCURVE",
"484 190 CURVE SMOOTH",
"484 250 OFFCURVE",
"459 322 OFFCURVE",
"374 362 CURVE",
"450 412 OFFCURVE",
"469 465 OFFCURVE",
"469 520 CURVE SMOOTH",
"469 632 OFFCURVE",
"376 704 OFFCURVE",
"265 704 CURVE SMOOTH",
"180 704 OFFCURVE",
"92 651 OFFCURVE",
"66 565 CURVE",
"119 549 LINE",
"138 614 OFFCURVE",
"199 653 OFFCURVE",
"265 653 CURVE SMOOTH",
"342 653 OFFCURVE",
"417 600 OFFCURVE",
"417 520 CURVE SMOOTH",
"417 442 OFFCURVE",
"349 385 OFFCURVE",
"259 385 CURVE SMOOTH",
"201 385 LINE",
"201 339 LINE",
"259 339 LINE SMOOTH",
"351 339 OFFCURVE",
"432 275 OFFCURVE",
"432 190 CURVE SMOOTH",
"432 107 OFFCURVE",
"352 43 OFFCURVE",
"259 43 CURVE SMOOTH",
"199.055 43 OFFCURVE",
"134.118 77.936 OFFCURVE",
"98.098 127.863 CURVE",
"46.775 112.181 LINE",
"92.78 35.513 OFFCURVE",
"160.932 -8 OFFCURVE",
"259 -8 CURVE SMOOTH"
);
}
);
width = 524;
}
);
unicode = 0033;
},
{
color = 5;
glyphname = four;
layers = (
{
layerId = "4BC9CD2E-8AD0-40CC-97AA-8C7B556514B0";
paths = (
{
closed = 1;
nodes = (
"549 294 LINE",
"452 294 LINE",
"452 700 LINE",
"295 700 LINE",
"40 279 LINE",
"40 177 LINE",
"332 177 LINE",
"332 0 LINE",
"452 0 LINE",
"452 177 LINE",
"549 177 LINE"
);
},
{
closed = 1;
nodes = (
"176 294 LINE",
"332 550 LINE",
"332 550 LINE",
"332 294 LINE"
);
}
);
width = 589;
},
{
layerId = "3C8330F3-4770-4812-9C95-859F387513C1";
paths = (
{
closed = 1;
nodes = (
"547 244 LINE",
"436 244 LINE",
"436 702 LINE",
"322 702 LINE",
"40 256 LINE",
"40 198 LINE",
"385 198 LINE",
"385 0 LINE",
"436 0 LINE",
"436 198 LINE",
"547 198 LINE"
);
},
{
closed = 1;
nodes = (
"87 244 LINE",
"345 650 LINE",
"385 650 LINE",
"385 244 LINE"
);
}
);
width = 587;
}
);
unicode = 0034;
},
{
color = 5;
glyphname = five;
layers = (
{
layerId = "4BC9CD2E-8AD0-40CC-97AA-8C7B556514B0";
paths = (
{
closed = 1;
nodes = (
"390 -7 OFFCURVE",
"505 100 OFFCURVE",
"505 236 CURVE SMOOTH",
"505 397 OFFCURVE",
"410 520 OFFCURVE",
"219 473 CURVE",
"232 575 LINE",
"485 575 LINE",
"485 700 LINE",
"119 700 LINE",
"89 348 LINE",
"188 308 LINE",
"242 414 OFFCURVE",
"387 355 OFFCURVE",
"387 236 CURVE SMOOTH",
"387 173 OFFCURVE",
"325 118 OFFCURVE",
"264 118 CURVE SMOOTH",
"205 118 OFFCURVE",
"173 144 OFFCURVE",
"126 197 CURVE",
"40 108 LINE",
"109 27 OFFCURVE",
"172 -7 OFFCURVE",
"264 -7 CURVE SMOOTH"
);
}
);
width = 535;
},
{
layerId = "3C8330F3-4770-4812-9C95-859F387513C1";
paths = (
{
closed = 1;
nodes = (
"371 -6 OFFCURVE",
"481 95 OFFCURVE",
"481 224 CURVE SMOOTH",
"481 407 OFFCURVE",
"306 515 OFFCURVE",
"139 419 CURVE",
"167 652 LINE",
"469 652 LINE",
"469 700 LINE",
"116 700 LINE",
"83 375 LINE",
"141 353 LINE",
"260 458 OFFCURVE",
"430 389 OFFCURVE",
"430 224 CURVE SMOOTH",
"430 124 OFFCURVE",
"345 44 OFFCURVE",
"248 44 CURVE SMOOTH",
"173 44 OFFCURVE",
"129 65 OFFCURVE",
"78 114 CURVE",
"40 77 LINE",
"99 18 OFFCURVE",
"157 -6 OFFCURVE",
"248 -6 CURVE SMOOTH"
);
}
);
width = 521;
}
);
unicode = 0035;
},
{
color = 5;
glyphname = six;
layers = (
{
layerId = "4BC9CD2E-8AD0-40CC-97AA-8C7B556514B0";
paths = (
{
closed = 1;
nodes = (
"403 -8 OFFCURVE",
"512 97 OFFCURVE",
"512 234 CURVE SMOOTH",
"512 385 OFFCURVE",
"380 499 OFFCURVE",
"239 460 CURVE",
"286 544 OFFCURVE",
"383 628 OFFCURVE",
"452 700 CURVE",
"297 700 LINE",
"235 641 OFFCURVE",
"180 585 OFFCURVE",
"137 526 CURVE SMOOTH",
"76 441 OFFCURVE",
"40 350 OFFCURVE",
"40 234 CURVE SMOOTH",
"40 102 OFFCURVE",
"144 -8 OFFCURVE",
"275 -8 CURVE SMOOTH"
);
},
{
closed = 1;
nodes = (
"213 118 OFFCURVE",
"162 172 OFFCURVE",
"162 234 CURVE SMOOTH",
"162 300 OFFCURVE",
"214 351 OFFCURVE",
"276 351 CURVE SMOOTH",
"336 351 OFFCURVE",
"389 302 OFFCURVE",
"389 234 CURVE SMOOTH",
"389 168 OFFCURVE",
"338 118 OFFCURVE",
"276 118 CURVE SMOOTH"
);
}
);
width = 552;
},
{
layerId = "3C8330F3-4770-4812-9C95-859F387513C1";
paths = (
{
closed = 1;
nodes = (
"405 -5 OFFCURVE",
"512 95 OFFCURVE",
"512 223 CURVE SMOOTH",
"512 413 OFFCURVE",
"275 530 OFFCURVE",
"135 399 CURVE",
"197 504 OFFCURVE",
"267 593 OFFCURVE",
"374 700 CURVE",
"308 700 LINE",
"288 679 OFFCURVE",
"254 643 OFFCURVE",
"228 614 CURVE SMOOTH",
"88 454 OFFCURVE",
"40 334 OFFCURVE",
"40 223 CURVE SMOOTH",
"40 95 OFFCURVE",
"148 -5 OFFCURVE",
"275 -5 CURVE SMOOTH"
);
},
{
closed = 1;
nodes = (
"185 46 OFFCURVE",
"95 122 OFFCURVE",
"95 223 CURVE SMOOTH",
"95 323 OFFCURVE",
"180 399 OFFCURVE",
"278 399 CURVE SMOOTH",
"380 399 OFFCURVE",
"460 321 OFFCURVE",
"460 223 CURVE SMOOTH",
"460 126 OFFCURVE",
"376 46 OFFCURVE",
"278 46 CURVE SMOOTH"
);
}
);
width = 552;
}
);
unicode = 0036;
},
{
color = 5;
glyphname = seven;
layers = (
{
layerId = "4BC9CD2E-8AD0-40CC-97AA-8C7B556514B0";
paths = (
{
closed = 1;
nodes = (
"40 700 LINE",
"40 576 LINE",
"284 576 LINE",
"114 0 LINE",
"237 0 LINE",
"416 610 LINE",
"417 700 LINE"
);
}
);
width = 457;
},
{
layerId = "3C8330F3-4770-4812-9C95-859F387513C1";
paths = (
{
closed = 1;
nodes = (
"40 702 LINE",
"40 650 LINE",
"362 650 LINE",
"149 0 LINE",
"209 0 LINE",
"420 650 LINE",
"421 702 LINE"
);
}
);
width = 461;
}
);
unicode = 0037;
},
{
color = 5;
glyphname = eight;
layers = (
{
layerId = "4BC9CD2E-8AD0-40CC-97AA-8C7B556514B0";
paths = (
{
closed = 1;
nodes = (
"397 -5 OFFCURVE",
"504 84 OFFCURVE",
"504 214 CURVE SMOOTH",
"504 281 OFFCURVE",
"467 336 OFFCURVE",
"416 375 CURVE",
"451 410 OFFCURVE",
"478 455 OFFCURVE",
"478 506 CURVE SMOOTH",
"478 616 OFFCURVE",
"390 705 OFFCURVE",
"272 705 CURVE SMOOTH",
"158 705 OFFCURVE",
"67 618 OFFCURVE",
"67 506 CURVE SMOOTH",
"67 455 OFFCURVE",
"96 410 OFFCURVE",
"129 375 CURVE",
"81 336 OFFCURVE",
"40 281 OFFCURVE",
"40 214 CURVE SMOOTH",
"40 92 OFFCURVE",
"139 -5 OFFCURVE",
"272 -5 CURVE SMOOTH"
);
},
{
closed = 1;
nodes = (
"205 111 OFFCURVE",
"163 151 OFFCURVE",
"163 214 CURVE SMOOTH",
"163 274 OFFCURVE",
"205 310 OFFCURVE",
"272 310 CURVE SMOOTH",
"339 310 OFFCURVE",
"382 274 OFFCURVE",
"382 214 CURVE SMOOTH",
"382 151 OFFCURVE",
"339 111 OFFCURVE",
"272 111 CURVE SMOOTH"
);
},
{
closed = 1;
nodes = (
"221 426 OFFCURVE",
"189 455 OFFCURVE",
"189 506 CURVE SMOOTH",
"189 557 OFFCURVE",
"221 586 OFFCURVE",
"272 586 CURVE SMOOTH",
"323 586 OFFCURVE",
"356 557 OFFCURVE",
"356 506 CURVE SMOOTH",
"356 455 OFFCURVE",
"323 426 OFFCURVE",
"272 426 CURVE SMOOTH"
);
}
);
width = 544;
},
{
layerId = "3C8330F3-4770-4812-9C95-859F387513C1";
paths = (
{
closed = 1;
nodes = (
"396 -5 OFFCURVE",
"503 80 OFFCURVE",
"503 197 CURVE SMOOTH",
"503 261 OFFCURVE",
"463 338 OFFCURVE",
"378 375 CURVE",
"446 411 OFFCURVE",
"472 478 OFFCURVE",
"472 526 CURVE SMOOTH",
"472 626 OFFCURVE",
"382 705 OFFCURVE",
"271 705 CURVE SMOOTH",
"166 705 OFFCURVE",
"71 627 OFFCURVE",
"71 526 CURVE SMOOTH",
"71 477 OFFCURVE",
"100 410 OFFCURVE",
"165 375 CURVE",
"81 340 OFFCURVE",
"40 260 OFFCURVE",
"40 197 CURVE SMOOTH",
"40 76 OFFCURVE",
"145 -5 OFFCURVE",
"271 -5 CURVE SMOOTH"
);
},
{
closed = 1;
nodes = (
"169 45 OFFCURVE",
"93 102 OFFCURVE",
"93 197 CURVE SMOOTH",
"93 287 OFFCURVE",
"167 346 OFFCURVE",
"271 346 CURVE SMOOTH",
"368 346 OFFCURVE",
"450 296 OFFCURVE",
"450 197 CURVE SMOOTH",
"450 99 OFFCURVE",
"370 45 OFFCURVE",
"271 45 CURVE SMOOTH"
);
},
{
closed = 1;
nodes = (
"186 396 OFFCURVE",
"124 444 OFFCURVE",
"124 526 CURVE SMOOTH",
"124 604 OFFCURVE",
"181 655 OFFCURVE",
"271 655 CURVE SMOOTH",
"359 655 OFFCURVE",
"419 606 OFFCURVE",
"419 526 CURVE SMOOTH",
"419 447 OFFCURVE",
"361 396 OFFCURVE",
"271 396 CURVE SMOOTH"
);
}
);
width = 543;
}
);
unicode = 0038;
},
{
color = 5;
glyphname = zero.dnom;
layers = (
{
layerId = "4BC9CD2E-8AD0-40CC-97AA-8C7B556514B0";
paths = (
{
closed = 1;
nodes = (
"410 110 OFFCURVE",
"425 165 OFFCURVE",
"425 225 CURVE SMOOTH",
"425 284 OFFCURVE",
"411 341 OFFCURVE",
"379 384 CURVE SMOOTH",
"347 428 OFFCURVE",
"298 456 OFFCURVE",
"232 456 CURVE SMOOTH",
"167 456 OFFCURVE",
"118 427 OFFCURVE",
"87 385 CURVE SMOOTH",
"55 341 OFFCURVE",
"40 285 OFFCURVE",
"40 225 CURVE SMOOTH",
"40 165 OFFCURVE",
"55 109 OFFCURVE",
"86 66 CURVE SMOOTH",
"117 22 OFFCURVE",
"165 -6 OFFCURVE",
"232 -6 CURVE SMOOTH",
"298 -6 OFFCURVE",
"347 22 OFFCURVE",
"379 66 CURVE SMOOTH"
);
},
{
closed = 1;
nodes = (
"338 307 OFFCURVE",
"346 269 OFFCURVE",
"346 225 CURVE SMOOTH",
"346 181 OFFCURVE",
"337 144 OFFCURVE",
"318 116 CURVE SMOOTH",
"300 89 OFFCURVE",
"271 74 OFFCURVE",
"232 74 CURVE SMOOTH",
"191 74 OFFCURVE",
"165 90 OFFCURVE",
"147 116 CURVE SMOOTH",
"127 143 OFFCURVE",
"118 180 OFFCURVE",
"118 225 CURVE SMOOTH",
"118 269 OFFCURVE",
"126 306 OFFCURVE",
"147 334 CURVE SMOOTH",
"165 360 OFFCURVE",
"191 376 OFFCURVE",
"232 376 CURVE SMOOTH",
"271 376 OFFCURVE",
"300 360 OFFCURVE",
"318 334 CURVE SMOOTH"
);
}
);
width = 465;
},
{
layerId = "3C8330F3-4770-4812-9C95-859F387513C1";
paths = (
{
closed = 1;
nodes = (
"409 105 OFFCURVE",
"425 163 OFFCURVE",
"425 225 CURVE SMOOTH",
"425 287 OFFCURVE",
"409 345 OFFCURVE",
"377 387 CURVE SMOOTH",
"346 428 OFFCURVE",
"297 456 OFFCURVE",
"232 456 CURVE SMOOTH",
"167 456 OFFCURVE",
"119 430 OFFCURVE",
"87 388 CURVE SMOOTH",
"56 347 OFFCURVE",
"40 288 OFFCURVE",
"40 225 CURVE SMOOTH",
"40 163 OFFCURVE",
"56 105 OFFCURVE",
"87 63 CURVE SMOOTH",
"119 21 OFFCURVE",
"167 -6 OFFCURVE",
"232 -6 CURVE SMOOTH",
"297 -6 OFFCURVE",
"346 21 OFFCURVE",
"377 63 CURVE SMOOTH"
);
},
{
closed = 1;
nodes = (
"379 326 OFFCURVE",
"390 277 OFFCURVE",
"390 225 CURVE SMOOTH",
"390 174 OFFCURVE",
"379 124 OFFCURVE",
"353 88 CURVE SMOOTH",
"328 51 OFFCURVE",
"287 28 OFFCURVE",
"232 28 CURVE SMOOTH",
"177 28 OFFCURVE",
"136 51 OFFCURVE",
"110 88 CURVE SMOOTH",
"85 124 OFFCURVE",
"74 174 OFFCURVE",
"74 225 CURVE SMOOTH",
"74 276 OFFCURVE",
"85 326 OFFCURVE",
"111 362 CURVE SMOOTH",
"136 399 OFFCURVE",
"177 421 OFFCURVE",
"232 421 CURVE SMOOTH",
"287 421 OFFCURVE",
"328 399 OFFCURVE",
"353 362 CURVE SMOOTH"
);
}
);
width = 465;
}
);
},
{
color = 5;
glyphname = one.dnom;
layers = (
{
layerId = "4BC9CD2E-8AD0-40CC-97AA-8C7B556514B0";
paths = (
{
closed = 1;
nodes = (
"221 453 LINE",
"134 453 LINE",
"40 345 LINE",
"93 294 LINE",
"143 356 LINE",
"143 -3 LINE",
"221 -3 LINE"
);
}
);
width = 291;
},
{
layerId = "3C8330F3-4770-4812-9C95-859F387513C1";
paths = (
{
closed = 1;
nodes = (
"147 453 LINE",
"102 453 LINE",
"40 401 LINE",
"62 378 LINE",
"113 420 LINE",
"113 -3 LINE",
"147 -3 LINE"
);
}
);
width = 187;
}
);
},
{
color = 5;
glyphname = two.dnom;
layers = (
{
layerId = "4BC9CD2E-8AD0-40CC-97AA-8C7B556514B0";
paths = (
{
closed = 1;
nodes = (
"344 -3 LINE",
"344 74 LINE",
"134 74 LINE",
"136 87 OFFCURVE",
"162 103 OFFCURVE",
"194 122 CURVE SMOOTH",
"280 173 OFFCURVE",
"350 215 OFFCURVE",
"348 295 CURVE",
"348 377 OFFCURVE",
"288 453 OFFCURVE",
"198 454 CURVE SMOOTH",
"103 455 OFFCURVE",
"40 410 OFFCURVE",
"40 310 CURVE",
"119 310 LINE",
"119 359 OFFCURVE",
"147 377 OFFCURVE",
"196 378 CURVE",
"252 377 OFFCURVE",
"291 310 OFFCURVE",
"261 267 CURVE",
"231 227 OFFCURVE",
"184 206 OFFCURVE",
"142 180 CURVE SMOOTH",
"88 148 OFFCURVE",
"42 111 OFFCURVE",
"42 44 CURVE",
"42 -3 LINE"
);
}
);
width = 388;
},
{
layerId = "3C8330F3-4770-4812-9C95-859F387513C1";
paths = (
{
closed = 1;
nodes = (
"342 -3 LINE",
"342 31 LINE",
"78 31 LINE",
"78 77 OFFCURVE",
"99 83 OFFCURVE",
"165 117 CURVE SMOOTH",
"261 167 OFFCURVE",
"345 220 OFFCURVE",
"345 315 CURVE SMOOTH",
"345 389 OFFCURVE",
"282 457 OFFCURVE",
"187 457 CURVE SMOOTH",
"85 457 OFFCURVE",
"47 407 OFFCURVE",
"40 352 CURVE",
"78 352 LINE",
"85 403 OFFCURVE",
"124 423 OFFCURVE",
"180 423 CURVE SMOOTH",
"250 423 OFFCURVE",
"313 377 OFFCURVE",
"313 313 CURVE SMOOTH",
"313 249 OFFCURVE",
"245 191 OFFCURVE",
"148 145 CURVE SMOOTH",
"89 118 OFFCURVE",
"43 102 OFFCURVE",
"43 33 CURVE",
"43 -3 LINE"
);
}
);
width = 385;
}
);
},
{
color = 5;
glyphname = three.dnom;
layers = (
{
layerId = "4BC9CD2E-8AD0-40CC-97AA-8C7B556514B0";
paths = (
{
closed = 1;
nodes = (
"274 -7 OFFCURVE",
"342 55 OFFCURVE",
"342 133 CURVE SMOOTH",
"342 174 OFFCURVE",
"316 206 OFFCURVE",
"288 232 CURVE",
"316 255 OFFCURVE",
"334 286 OFFCURVE",
"334 323 CURVE SMOOTH",
"334 397 OFFCURVE",
"272 454 OFFCURVE",
"198 454 CURVE SMOOTH",
"124 454 OFFCURVE",
"72 410 OFFCURVE",
"52 330 CURVE",
"132 314 LINE",
"141 354 OFFCURVE",
"162 373 OFFCURVE",
"198 373 CURVE SMOOTH",
"229 373 OFFCURVE",
"254 352 OFFCURVE",
"254 323 CURVE SMOOTH",
"254 297 OFFCURVE",
"245 259 OFFCURVE",
"198 259 CURVE SMOOTH",
"138 259 LINE",
"138 202 LINE",
"194 202 LINE SMOOTH",
"245 202 OFFCURVE",
"262 163 OFFCURVE",
"262 133 CURVE SMOOTH",
"262 102 OFFCURVE",
"234 75 OFFCURVE",
"194 75 CURVE SMOOTH",
"161 75 OFFCURVE",
"132 98 OFFCURVE",
"117 137 CURVE",
"40 113 LINE",
"63 42 OFFCURVE",
"116 -7 OFFCURVE",
"194 -7 CURVE SMOOTH"
);
}
);
width = 382;
},
{
layerId = "3C8330F3-4770-4812-9C95-859F387513C1";
paths = (
{
closed = 1;
nodes = (
"256 -8 OFFCURVE",
"325 46 OFFCURVE",
"325 121 CURVE SMOOTH",
"325 160 OFFCURVE",
"308 207 OFFCURVE",
"253 233 CURVE",
"303 265 OFFCURVE",
"315 300 OFFCURVE",
"315 336 CURVE SMOOTH",
"315 408 OFFCURVE",
"254 455 OFFCURVE",
"182 455 CURVE SMOOTH",
"127 455 OFFCURVE",
"70 421 OFFCURVE",
"53 365 CURVE",
"87 354 LINE",
"100 397 OFFCURVE",
"139 422 OFFCURVE",
"182 422 CURVE SMOOTH",
"232 422 OFFCURVE",
"281 388 OFFCURVE",
"281 336 CURVE SMOOTH",
"281 285 OFFCURVE",
"237 248 OFFCURVE",
"178 248 CURVE SMOOTH",
"141 248 LINE",
"141 218 LINE",
"178 218 LINE SMOOTH",
"238 218 OFFCURVE",
"291 176 OFFCURVE",
"291 121 CURVE SMOOTH",
"291 67 OFFCURVE",
"239 25 OFFCURVE",
"178 25 CURVE SMOOTH",
"139 25 OFFCURVE",
"97 48 OFFCURVE",
"74 81 CURVE",
"40 70 LINE",
"70 21 OFFCURVE",
"115 -8 OFFCURVE",
"178 -8 CURVE SMOOTH"
);
}
);
width = 365;
}
);
},
{
color = 5;
glyphname = four.dnom;
layers = (
{
layerId = "4BC9CD2E-8AD0-40CC-97AA-8C7B556514B0";
paths = (
{
closed = 1;
nodes = (
"371 189 LINE",
"308 189 LINE",
"308 453 LINE",
"206 453 LINE",
"40 179 LINE",
"40 113 LINE",
"230 113 LINE",
"230 -3 LINE",
"308 -3 LINE",
"308 113 LINE",
"371 113 LINE"
);
},
{
closed = 1;
nodes = (
"128 189 LINE",
"230 355 LINE",
"230 355 LINE",
"230 189 LINE"
);
}
);
width = 411;
},
{
layerId = "3C8330F3-4770-4812-9C95-859F387513C1";
paths = (
{
closed = 1;
nodes = (
"370 156 LINE",
"297 156 LINE",
"297 454 LINE",
"223 454 LINE",
"40 164 LINE",
"40 126 LINE",
"264 126 LINE",
"264 -3 LINE",
"297 -3 LINE",
"297 126 LINE",
"370 126 LINE"
);
},
{
closed = 1;
nodes = (
"71 156 LINE",
"238 420 LINE",
"264 420 LINE",
"264 156 LINE"
);
}
);
width = 410;
}
);
},
{
color = 5;
glyphname = five.dnom;
layers = (
{
layerId = "4BC9CD2E-8AD0-40CC-97AA-8C7B556514B0";
paths = (
{
closed = 1;
nodes = (
"268 -7 OFFCURVE",
"342 63 OFFCURVE",
"342 151 CURVE SMOOTH",
"342 256 OFFCURVE",
"281 336 OFFCURVE",
"156 305 CURVE",
"165 371 LINE",
"329 371 LINE",
"329 453 LINE",
"91 453 LINE",
"72 224 LINE",
"136 198 LINE",
"171 267 OFFCURVE",
"266 228 OFFCURVE",
"266 151 CURVE SMOOTH",
"266 110 OFFCURVE",
"225 74 OFFCURVE",
"186 74 CURVE SMOOTH",
"147 74 OFFCURVE",
"126 91 OFFCURVE",
"96 126 CURVE",
"40 68 LINE",
"85 15 OFFCURVE",
"126 -7 OFFCURVE",
"186 -7 CURVE SMOOTH"
);
}
);
width = 382;
},
{
layerId = "3C8330F3-4770-4812-9C95-859F387513C1";
paths = (
{
closed = 1;
nodes = (
"255 -6 OFFCURVE",
"327 59 OFFCURVE",
"327 143 CURVE SMOOTH",
"327 262 OFFCURVE",
"213 332 OFFCURVE",
"104 270 CURVE",
"123 421 LINE",
"319 421 LINE",
"319 453 LINE",
"89 453 LINE",
"68 241 LINE",
"106 227 LINE",
"183 295 OFFCURVE",
"294 250 OFFCURVE",
"294 143 CURVE SMOOTH",
"294 78 OFFCURVE",
"238 26 OFFCURVE",
"175 26 CURVE SMOOTH",
"126 26 OFFCURVE",
"98 40 OFFCURVE",
"65 72 CURVE",
"40 48 LINE",
"78 9 OFFCURVE",
"116 -6 OFFCURVE",
"175 -6 CURVE SMOOTH"
);
}
);
width = 367;
}
);
},
{
color = 5;
glyphname = six.dnom;
layers = (
{
layerId = "4BC9CD2E-8AD0-40CC-97AA-8C7B556514B0";
paths = (
{
closed = 1;
nodes = (
"276 -8 OFFCURVE",
"347 61 OFFCURVE",
"347 150 CURVE SMOOTH",
"347 248 OFFCURVE",
"261 322 OFFCURVE",
"169 297 CURVE",
"200 351 OFFCURVE",
"263 406 OFFCURVE",
"308 453 CURVE",
"207 453 LINE",
"167 414 OFFCURVE",
"131 378 OFFCURVE",
"103 339 CURVE SMOOTH",
"63 284 OFFCURVE",
"40 225 OFFCURVE",
"40 150 CURVE SMOOTH",
"40 64 OFFCURVE",
"108 -8 OFFCURVE",
"193 -8 CURVE SMOOTH"
);
},
{
closed = 1;
nodes = (
"152 74 OFFCURVE",
"119 109 OFFCURVE",
"119 150 CURVE SMOOTH",
"119 193 OFFCURVE",
"153 226 OFFCURVE",
"193 226 CURVE SMOOTH",
"232 226 OFFCURVE",
"267 194 OFFCURVE",
"267 150 CURVE SMOOTH",
"267 107 OFFCURVE",
"234 74 OFFCURVE",
"193 74 CURVE SMOOTH"
);
}
);
width = 387;
},
{
layerId = "3C8330F3-4770-4812-9C95-859F387513C1";
paths = (
{
closed = 1;
nodes = (
"277 -6 OFFCURVE",
"347 59 OFFCURVE",
"347 142 CURVE SMOOTH",
"347 266 OFFCURVE",
"193 342 OFFCURVE",
"102 257 CURVE",
"142 325 OFFCURVE",
"188 383 OFFCURVE",
"257 453 CURVE",
"214 453 LINE",
"201 439 OFFCURVE",
"179 415 OFFCURVE",
"162 397 CURVE SMOOTH",
"71 293 OFFCURVE",
"40 215 OFFCURVE",
"40 142 CURVE SMOOTH",
"40 59 OFFCURVE",
"110 -6 OFFCURVE",
"193 -6 CURVE SMOOTH"
);
},
{
closed = 1;
nodes = (
"134 27 OFFCURVE",
"76 77 OFFCURVE",
"76 142 CURVE SMOOTH",
"76 207 OFFCURVE",
"131 257 OFFCURVE",
"195 257 CURVE SMOOTH",
"261 257 OFFCURVE",
"313 206 OFFCURVE",
"313 142 CURVE SMOOTH",
"313 79 OFFCURVE",
"258 27 OFFCURVE",
"195 27 CURVE SMOOTH"
);
}
);
width = 387;
}
);
},
{
color = 5;
glyphname = seven.dnom;
layers = (
{
layerId = "4BC9CD2E-8AD0-40CC-97AA-8C7B556514B0";
paths = (
{
closed = 1;
nodes = (
"40 453 LINE",
"40 372 LINE",
"199 372 LINE",
"88 -3 LINE",
"168 -3 LINE",
"284 394 LINE",
"285 453 LINE"
);
}
);
width = 325;
},
{
layerId = "3C8330F3-4770-4812-9C95-859F387513C1";
paths = (
{
closed = 1;
nodes = (
"40 454 LINE",
"40 420 LINE",
"249 420 LINE",
"111 -3 LINE",
"150 -3 LINE",
"287 420 LINE",
"288 454 LINE"
);
}
);
width = 328;
}
);
},
{
color = 5;
glyphname = eight.dnom;
layers = (
{
layerId = "4BC9CD2E-8AD0-40CC-97AA-8C7B556514B0";
paths = (
{
closed = 1;
nodes = (
"272 -6 OFFCURVE",
"342 52 OFFCURVE",
"342 137 CURVE SMOOTH",
"342 180 OFFCURVE",
"318 216 OFFCURVE",
"284 241 CURVE",
"307 264 OFFCURVE",
"325 293 OFFCURVE",
"325 326 CURVE SMOOTH",
"325 398 OFFCURVE",
"268 456 OFFCURVE",
"191 456 CURVE SMOOTH",
"117 456 OFFCURVE",
"58 399 OFFCURVE",
"58 326 CURVE SMOOTH",
"58 293 OFFCURVE",
"76 264 OFFCURVE",
"98 241 CURVE",
"67 216 OFFCURVE",
"40 180 OFFCURVE",
"40 137 CURVE SMOOTH",
"40 57 OFFCURVE",
"104 -6 OFFCURVE",
"191 -6 CURVE SMOOTH"
);
},
{
closed = 1;
nodes = (
"147 70 OFFCURVE",
"120 96 OFFCURVE",
"120 137 CURVE SMOOTH",
"120 176 OFFCURVE",
"147 199 OFFCURVE",
"191 199 CURVE SMOOTH",
"234 199 OFFCURVE",
"262 176 OFFCURVE",
"262 137 CURVE SMOOTH",
"262 96 OFFCURVE",
"234 70 OFFCURVE",
"191 70 CURVE SMOOTH"
);
},
{
closed = 1;
nodes = (
"158 274 OFFCURVE",
"137 293 OFFCURVE",
"137 326 CURVE SMOOTH",
"137 360 OFFCURVE",
"158 378 OFFCURVE",
"191 378 CURVE SMOOTH",
"224 378 OFFCURVE",
"245 360 OFFCURVE",
"245 326 CURVE SMOOTH",
"245 293 OFFCURVE",
"224 274 OFFCURVE",
"191 274 CURVE SMOOTH"
);
}
);
width = 382;
},
{
layerId = "3C8330F3-4770-4812-9C95-859F387513C1";
paths = (
{
closed = 1;
nodes = (
"271 -6 OFFCURVE",
"341 50 OFFCURVE",
"341 126 CURVE SMOOTH",
"341 167 OFFCURVE",
"315 217 OFFCURVE",
"260 241 CURVE",
"304 265 OFFCURVE",
"321 308 OFFCURVE",
"321 339 CURVE SMOOTH",
"321 404 OFFCURVE",
"262 456 OFFCURVE",
"190 456 CURVE SMOOTH",
"122 456 OFFCURVE",
"60 405 OFFCURVE",
"60 339 CURVE SMOOTH",
"60 308 OFFCURVE",
"79 264 OFFCURVE",
"121 241 CURVE",
"67 219 OFFCURVE",
"40 167 OFFCURVE",
"40 126 CURVE SMOOTH",
"40 47 OFFCURVE",
"108 -6 OFFCURVE",
"190 -6 CURVE SMOOTH"
);
},
{
closed = 1;
nodes = (
"124 27 OFFCURVE",
"74 64 OFFCURVE",
"74 126 CURVE SMOOTH",
"74 184 OFFCURVE",
"123 222 OFFCURVE",
"190 222 CURVE SMOOTH",
"253 222 OFFCURVE",
"307 190 OFFCURVE",
"307 126 CURVE SMOOTH",
"307 62 OFFCURVE",
"255 27 OFFCURVE",
"190 27 CURVE SMOOTH"
);
},
{
closed = 1;
nodes = (
"135 255 OFFCURVE",
"95 286 OFFCURVE",
"95 339 CURVE SMOOTH",
"95 390 OFFCURVE",
"132 423 OFFCURVE",
"190 423 CURVE SMOOTH",
"247 423 OFFCURVE",
"286 391 OFFCURVE",
"286 339 CURVE SMOOTH",
"286 288 OFFCURVE",
"249 255 OFFCURVE",
"190 255 CURVE SMOOTH"
);
}
);
width = 381;
}
);
},
{
color = 5;
glyphname = fraction;
layers = (
{
layerId = "4BC9CD2E-8AD0-40CC-97AA-8C7B556514B0";
paths = (
{
closed = 1;
nodes = (
"304 700 LINE",
"-80 -6 LINE",
"-1 -6 LINE",
"384 700 LINE"
);
}
);
width = 284;
},
{
layerId = "3C8330F3-4770-4812-9C95-859F387513C1";
paths = (
{
closed = 1;
nodes = (
"327 700 LINE",
"-80 -6 LINE",
"-41 -6 LINE",
"366 700 LINE"
);
}
);
width = 266;
}
);
unicode = 2044;
},
{
color = 5;
glyphname = period;
layers = (
{
layerId = "4BC9CD2E-8AD0-40CC-97AA-8C7B556514B0";
paths = (
{
closed = 1;
nodes = (
"112 -7 OFFCURVE",
"141 23 OFFCURVE",
"140 60 CURVE SMOOTH",
"139 96 OFFCURVE",
"112 125 OFFCURVE",
"76 124 CURVE SMOOTH",
"39 123 OFFCURVE",
"11 96 OFFCURVE",
"10 60 CURVE SMOOTH",
"9 23 OFFCURVE",
"39 -5 OFFCURVE",
"76 -6 CURVE SMOOTH"
);
}
);
width = 190;
},
{
layerId = "3C8330F3-4770-4812-9C95-859F387513C1";
paths = (
{
closed = 1;
nodes = (
"76 -4 OFFCURVE",
"96 16 OFFCURVE",
"96 39 CURVE SMOOTH",
"96 62 OFFCURVE",
"76 82 OFFCURVE",
"53 82 CURVE SMOOTH",
"30 82 OFFCURVE",
"10 62 OFFCURVE",
"10 39 CURVE SMOOTH",
"10 16 OFFCURVE",
"30 -4 OFFCURVE",
"53 -4 CURVE SMOOTH"
);
}
);
width = 146;
}
);
unicode = 002E;
},
{
color = 5;
glyphname = comma;
layers = (
{
layerId = "4BC9CD2E-8AD0-40CC-97AA-8C7B556514B0";
paths = (
{
closed = 1;
nodes = (
"19 12 OFFCURVE",
"45 -17 OFFCURVE",
"76 -17 CURVE",
"72 -49 OFFCURVE",
"65 -82 OFFCURVE",
"50 -110 CURVE",
"95 -129 LINE",
"118 -76 OFFCURVE",
"150 2 OFFCURVE",
"150 45 CURVE SMOOTH",
"150 81 OFFCURVE",
"122 110 OFFCURVE",
"86 109 CURVE SMOOTH",
"49 108 OFFCURVE",
"21 81 OFFCURVE",
"20 45 CURVE SMOOTH"
);
}
);
width = 190;
},
{
layerId = "3C8330F3-4770-4812-9C95-859F387513C1";
paths = (
{
closed = 1;
nodes = (
"20 37 OFFCURVE",
"40 16 OFFCURVE",
"69 17 CURVE",
"61 -23 OFFCURVE",
"39 -83 OFFCURVE",
"33 -94 CURVE",
"53 -103 LINE",
"61 -84 OFFCURVE",
"111 33 OFFCURVE",
"112 59 CURVE",
"115 84 OFFCURVE",
"93 110 OFFCURVE",
"68 110 CURVE SMOOTH",
"40 110 OFFCURVE",
"20 88 OFFCURVE",
"20 63 CURVE SMOOTH"
);
}
);
width = 152;
}
);
unicode = 002C;
},
{
color = 5;
glyphname = exclam;
layers = (
{
components = (
{
name = period;
transform = "{1, 0, 0, 1, 40, -10}";
}
);
layerId = "4BC9CD2E-8AD0-40CC-97AA-8C7B556514B0";
paths = (
{
closed = 1;
nodes = (
"60 700 LINE",
"65 180 LINE",
"165 180 LINE",
"170 700 LINE"
);
}
);
width = 230;
},
{
components = (
{
name = period;
transform = "{1, 0, 0, 1, 40, -2}";
}
);
layerId = "3C8330F3-4770-4812-9C95-859F387513C1";
paths = (
{
closed = 1;
nodes = (
"67 700 LINE",
"71 180 LINE",
"117 180 LINE",
"119 700 LINE"
);
}
);
width = 186;
}
);
unicode = 0021;
},
{
color = 5;
glyphname = question;
layers = (
{
components = (
{
name = period;
transform = "{1, 0, 0, 1, 188, -5}";
}
);
layerId = "4BC9CD2E-8AD0-40CC-97AA-8C7B556514B0";
paths = (
{
closed = 1;
nodes = (
"319 166 LINE",
"319 231 OFFCURVE",
"315 249 OFFCURVE",
"369 271 CURVE SMOOTH",
"472 312 OFFCURVE",
"517 367 OFFCURVE",
"521 476 CURVE SMOOTH",
"527 604 OFFCURVE",
"430 706 OFFCURVE",
"289 706 CURVE SMOOTH",
"141 706 OFFCURVE",
"50 635 OFFCURVE",
"50 479 CURVE",
"169 479 LINE",
"169 556 OFFCURVE",
"210 593 OFFCURVE",
"284 593 CURVE SMOOTH",
"351 593 OFFCURVE",
"404 551 OFFCURVE",
"404 482 CURVE SMOOTH",
"404 419 OFFCURVE",
"372 394 OFFCURVE",
"334 376 CURVE SMOOTH",
"286 354 OFFCURVE",
"228 342 OFFCURVE",
"211 278 CURVE SMOOTH",
"209 269 OFFCURVE",
"208 259 OFFCURVE",
"207 248 CURVE",
"205 166 LINE"
);
}
);
width = 571;
},
{
components = (
{
name = period;
transform = "{1, 0, 0, 1, 203, -5}";
}
);
layerId = "3C8330F3-4770-4812-9C95-859F387513C1";
paths = (
{
closed = 1;
nodes = (
"283 181 LINE",
"283 268 OFFCURVE",
"272 248 OFFCURVE",
"376 294 CURVE SMOOTH",
"466 334 OFFCURVE",
"520 398 OFFCURVE",
"520 502 CURVE SMOOTH",
"520 622 OFFCURVE",
"428 708 OFFCURVE",
"288 708 CURVE SMOOTH",
"140 708 OFFCURVE",
"50 641 OFFCURVE",
"50 543 CURVE",
"102 543 LINE",
"102 628 OFFCURVE",
"186 663 OFFCURVE",
"289 663 CURVE SMOOTH",
"399 663 OFFCURVE",
"473 602 OFFCURVE",
"473 502 CURVE SMOOTH",
"473 413 OFFCURVE",
"430 361 OFFCURVE",
"347 332 CURVE",
"294 309 OFFCURVE",
"264 296 OFFCURVE",
"248 280 CURVE SMOOTH",
"237 268 OFFCURVE",
"233 254 OFFCURVE",
"233 234 CURVE",
"233 181 LINE"
);
}
);
width = 570;
}
);
unicode = 003F;
},
{
color = 5;
glyphname = asterisk;
layers = (
{
layerId = "4BC9CD2E-8AD0-40CC-97AA-8C7B556514B0";
paths = (
{
closed = 1;
nodes = (
"300 550 LINE",
"361 584 LINE",
"314 663 LINE",
"251 625 LINE",
"251 700 LINE",
"161 700 LINE",
"161 620 LINE",
"89 657 LINE",
"50 575 LINE",
"111 545 LINE",
"50 511 LINE",
"97 432 LINE",
"161 470 LINE",
"161 395 LINE",
"251 395 LINE",
"251 474 LINE",
"321 438 LINE",
"362 519 LINE"
);
}
);
width = 412;
},
{
layerId = "3C8330F3-4770-4812-9C95-859F387513C1";
paths = (
{
closed = 1;
nodes = (
"231 547 LINE",
"346 612 LINE",
"329 640 LINE",
"217 575 LINE",
"217 706 LINE",
"183 706 LINE",
"183 573 LINE",
"64 634 LINE",
"50 603 LINE",
"166 545 LINE",
"52 482 LINE",
"70 455 LINE",
"183 521 LINE",
"183 389 LINE",
"217 389 LINE",
"217 521 LINE",
"335 461 LINE",
"349 491 LINE"
);
}
);
width = 399;
}
);
unicode = 002A;
},
{
color = 5;
glyphname = numbersign;
layers = (
{
layerId = "4BC9CD2E-8AD0-40CC-97AA-8C7B556514B0";
paths = (
{
closed = 1;
nodes = (
"617 523 LINE",
"663 697 LINE",
"538 697 LINE",
"490 524 LINE",
"377 524 LINE",
"423 697 LINE",
"299 697 LINE",
"252 524 LINE",
"94 525 LINE",
"94 403 LINE",
"220 403 LINE",
"191 298 LINE",
"40 298 LINE",
"40 178 LINE",
"158 178 LINE",
"111 1 LINE",
"236 1 LINE",
"284 178 LINE",
"394 177 LINE",
"345 1 LINE",
"476 1 LINE",
"524 177 LINE",
"685 177 LINE",
"685 297 LINE",
"556 297 LINE",
"584 402 LINE",
"738 402 LINE",
"739 523 LINE"
);
},
{
closed = 1;
nodes = (
"427 297 LINE",
"316 297 LINE",
"344 403 LINE",
"457 403 LINE"
);
}
);
width = 779;
},
{
layerId = "3C8330F3-4770-4812-9C95-859F387513C1";
paths = (
{
closed = 1;
nodes = (
"588 500 LINE",
"640 697 LINE",
"591 697 LINE",
"537 501 LINE",
"317 501 LINE",
"368 697 LINE",
"322 697 LINE",
"269 501 LINE",
"102 502 LINE",
"102 456 LINE",
"256 456 LINE",
"200 246 LINE",
"40 246 LINE",
"40 201 LINE",
"187 201 LINE",
"134 1 LINE",
"181 1 LINE",
"235 201 LINE",
"454 200 LINE",
"398 1 LINE",
"453 1 LINE",
"507 200 LINE",
"677 200 LINE",
"677 244 LINE",
"519 244 LINE",
"575 455 LINE",
"738 455 LINE",
"739 500 LINE"
);
},
{
closed = 1;
nodes = (
"467 245 LINE",
"247 245 LINE",
"304 456 LINE",
"525 455 LINE"
);
}
);
width = 779;
}
);
unicode = 0023;
},
{
color = 5;
glyphname = slash;
layers = (
{
layerId = "4BC9CD2E-8AD0-40CC-97AA-8C7B556514B0";
paths = (
{
closed = 1;
nodes = (
"376 700 LINE",
"35 -104 LINE",
"156 -104 LINE",
"498 700 LINE"
);
}
);
width = 533;
},
{
layerId = "3C8330F3-4770-4812-9C95-859F387513C1";
paths = (
{
closed = 1;
nodes = (
"407 700 LINE",
"35 -104 LINE",
"79 -104 LINE",
"452 700 LINE"
);
}
);
width = 487;
}
);
unicode = 002F;
},
{
color = 5;
glyphname = backslash;
layers = (
{
layerId = "4BC9CD2E-8AD0-40CC-97AA-8C7B556514B0";
paths = (
{
closed = 1;
nodes = (
"157 700 LINE",
"35 700 LINE",
"377 -104 LINE",
"498 -104 LINE"
);
}
);
width = 533;
},
{
layerId = "3C8330F3-4770-4812-9C95-859F387513C1";
paths = (
{
closed = 1;
nodes = (
"80 700 LINE",
"35 700 LINE",
"408 -104 LINE",
"452 -104 LINE"
);
}
);
width = 487;
}
);
unicode = 005C;
},
{
color = 5;
glyphname = parenleft;
layers = (
{
layerId = "4BC9CD2E-8AD0-40CC-97AA-8C7B556514B0";
paths = (
{
closed = 1;
nodes = (
"190 14 OFFCURVE",
"153 198 OFFCURVE",
"153 315 CURVE SMOOTH",
"153 425 OFFCURVE",
"190 605 OFFCURVE",
"283 705 CURVE",
"174 705 LINE",
"101 605 OFFCURVE",
"50 486 OFFCURVE",
"50 315 CURVE SMOOTH",
"50 153 OFFCURVE",
"96 18 OFFCURVE",
"174 -90 CURVE",
"283 -90 LINE"
);
}
);
width = 323;
},
{
layerId = "3C8330F3-4770-4812-9C95-859F387513C1";
paths = (
{
closed = 1;
nodes = (
"153 6 OFFCURVE",
"100 148 OFFCURVE",
"100 315 CURVE SMOOTH",
"100 476 OFFCURVE",
"156 613 OFFCURVE",
"241 705 CURVE",
"190 705 LINE",
"103 613 OFFCURVE",
"50 490 OFFCURVE",
"50 315 CURVE SMOOTH",
"50 157 OFFCURVE",
"95 16 OFFCURVE",
"193 -90 CURVE",
"244 -90 LINE"
);
}
);
width = 284;
}
);
unicode = 0028;
},
{
color = 5;
glyphname = braceleft;
layers = (
{
layerId = "4BC9CD2E-8AD0-40CC-97AA-8C7B556514B0";
paths = (
{
closed = 1;
nodes = (
"288 -146 LINE",
"288 -50 LINE",
"209 -50 LINE SMOOTH",
"198 -50 OFFCURVE",
"193 -37 OFFCURVE",
"190 -16 CURVE SMOOTH",
"183 42 OFFCURVE",
"201 160 OFFCURVE",
"201 223 CURVE SMOOTH",
"201 252 OFFCURVE",
"184 271 OFFCURVE",
"166 286 CURVE",
"184 301 OFFCURVE",
"202 320 OFFCURVE",
"201 349 CURVE SMOOTH",
"200 413 OFFCURVE",
"182 533 OFFCURVE",
"190 590 CURVE SMOOTH",
"193 610 OFFCURVE",
"199 622 OFFCURVE",
"209 622 CURVE SMOOTH",
"288 622 LINE",
"288 718 LINE",
"207 718 LINE SMOOTH",
"130 718 OFFCURVE",
"97 630 OFFCURVE",
"97 542 CURVE SMOOTH",
"97 402 LINE SMOOTH",
"97 326 OFFCURVE",
"103 330 OFFCURVE",
"50 330 CURVE",
"50 242 LINE",
"102 242 OFFCURVE",
"97 249 OFFCURVE",
"97 170 CURVE SMOOTH",
"97 30 LINE SMOOTH",
"97 -59 OFFCURVE",
"131 -146 OFFCURVE",
"207 -146 CURVE SMOOTH"
);
}
);
width = 328;
},
{
layerId = "3C8330F3-4770-4812-9C95-859F387513C1";
paths = (
{
closed = 1;
nodes = (
"276 -138 LINE",
"276 -109 LINE",
"211 -109 LINE SMOOTH",
"188 -109 OFFCURVE",
"176 -94 OFFCURVE",
"169 -78 CURVE SMOOTH",
"139 -9 OFFCURVE",
"176 121 OFFCURVE",
"164 201 CURVE SMOOTH",
"159 235 OFFCURVE",
"146 279 OFFCURVE",
"114 290 CURVE",
"146 301 OFFCURVE",
"159 345 OFFCURVE",
"164 379 CURVE SMOOTH",
"176 459 OFFCURVE",
"139 589 OFFCURVE",
"169 658 CURVE SMOOTH",
"176 674 OFFCURVE",
"188 689 OFFCURVE",
"211 689 CURVE SMOOTH",
"276 689 LINE",
"276 718 LINE",
"211 718 LINE SMOOTH",
"142 718 OFFCURVE",
"110 645 OFFCURVE",
"110 566 CURVE SMOOTH",
"111 430 LINE SMOOTH",
"111 349 OFFCURVE",
"113 307 OFFCURVE",
"50 305 CURVE",
"50 275 LINE",
"113 273 OFFCURVE",
"111 230 OFFCURVE",
"111 150 CURVE SMOOTH",
"110 14 LINE SMOOTH",
"110 -65 OFFCURVE",
"142 -138 OFFCURVE",
"211 -138 CURVE SMOOTH"
);
}
);
width = 316;
}
);
unicode = 007B;
},
{
color = 5;
glyphname = bracketleft;
layers = (
{
layerId = "4BC9CD2E-8AD0-40CC-97AA-8C7B556514B0";
paths = (
{
closed = 1;
nodes = (
"237 -37 LINE",
"149 -37 LINE",
"149 590 LINE",
"237 590 LINE",
"237 700 LINE",
"50 700 LINE",
"50 -147 LINE",
"237 -147 LINE"
);
}
);
width = 277;
},
{
layerId = "3C8330F3-4770-4812-9C95-859F387513C1";
paths = (
{
closed = 1;
nodes = (
"237 -100 LINE",
"98 -100 LINE",
"98 655 LINE",
"237 655 LINE",
"237 700 LINE",
"50 700 LINE",
"50 -145 LINE",
"237 -145 LINE"
);
}
);
width = 277;
}
);
unicode = 005B;
},
{
color = 5;
glyphname = hyphen;
layers = (
{
layerId = "4BC9CD2E-8AD0-40CC-97AA-8C7B556514B0";
paths = (
{
closed = 1;
nodes = (
"400 350 LINE",
"50 350 LINE",
"50 250 LINE",
"400 250 LINE"
);
}
);
width = 450;
},
{
layerId = "3C8330F3-4770-4812-9C95-859F387513C1";
paths = (
{
closed = 1;
nodes = (
"400 325 LINE",
"50 325 LINE",
"50 275 LINE",
"400 275 LINE"
);
}
);
width = 450;
}
);
unicode = 002D;
},
{
color = 5;
glyphname = endash;
layers = (
{
layerId = "4BC9CD2E-8AD0-40CC-97AA-8C7B556514B0";
paths = (
{
closed = 1;
nodes = (
"545 350 LINE",
"50 350 LINE",
"50 250 LINE",
"545 250 LINE"
);
}
);
width = 595;
},
{
layerId = "3C8330F3-4770-4812-9C95-859F387513C1";
paths = (
{
closed = 1;
nodes = (
"545 325 LINE",
"50 325 LINE",
"50 275 LINE",
"545 275 LINE"
);
}
);
width = 595;
}
);
unicode = 2013;
},
{
color = 5;
glyphname = emdash;
layers = (
{
layerId = "4BC9CD2E-8AD0-40CC-97AA-8C7B556514B0";
paths = (
{
closed = 1;
nodes = (
"926 350 LINE",
"20 350 LINE",
"20 250 LINE",
"926 250 LINE"
);
}
);
width = 946;
},
{
layerId = "3C8330F3-4770-4812-9C95-859F387513C1";
paths = (
{
closed = 1;
nodes = (
"926 325 LINE",
"20 325 LINE",
"20 275 LINE",
"926 275 LINE"
);
}
);
width = 946;
}
);
unicode = 2014;
},
{
color = 5;
glyphname = underscore;
layers = (
{
layerId = "4BC9CD2E-8AD0-40CC-97AA-8C7B556514B0";
paths = (
{
closed = 1;
nodes = (
"545 -40 LINE",
"50 -40 LINE",
"50 -120 LINE",
"545 -120 LINE"
);
}
);
width = 595;
},
{
layerId = "3C8330F3-4770-4812-9C95-859F387513C1";
paths = (
{
closed = 1;
nodes = (
"545 -80 LINE",
"50 -80 LINE",
"50 -120 LINE",
"545 -120 LINE"
);
}
);
width = 595;
}
);
unicode = 005F;
},
{
color = 5;
glyphname = guillemetleft;
layers = (
{
layerId = "3C8330F3-4770-4812-9C95-859F387513C1";
paths = (
{
closed = 1;
nodes = (
"435 127 LINE",
"273 268 LINE",
"435 411 LINE",
"435 469 LINE",
"205 271 LINE",
"435 70 LINE"
);
},
{
closed = 1;
nodes = (
"259 127 LINE",
"98 268 LINE",
"259 412 LINE",
"259 469 LINE",
"30 271 LINE",
"259 70 LINE"
);
}
);
width = 475;
},
{
layerId = "4BC9CD2E-8AD0-40CC-97AA-8C7B556514B0";
paths = (
{
closed = 1;
nodes = (
"585 152 LINE",
"443 270 LINE",
"585 388 LINE",
"585 521 LINE",
"294 273 LINE",
"585 19 LINE"
);
},
{
closed = 1;
nodes = (
"322 151 LINE",
"184 270 LINE",
"322 388 LINE",
"322 521 LINE",
"30 273 LINE",
"322 21 LINE"
);
}
);
width = 625;
}
);
unicode = 00AB;
},
{
color = 5;
glyphname = guilsinglleft;
layers = (
{
layerId = "4BC9CD2E-8AD0-40CC-97AA-8C7B556514B0";
paths = (
{
closed = 1;
nodes = (
"304 150 LINE",
"171 269 LINE",
"304 387 LINE",
"304 521 LINE",
"30 272 LINE",
"304 19 LINE"
);
}
);
width = 344;
},
{
layerId = "3C8330F3-4770-4812-9C95-859F387513C1";
paths = (
{
closed = 1;
nodes = (
"260 128 LINE",
"98 269 LINE",
"260 412 LINE",
"260 470 LINE",
"30 272 LINE",
"260 71 LINE"
);
}
);
width = 300;
}
);
unicode = 2039;
},
{
color = 5;
glyphname = quotesingle;
layers = (
{
layerId = "4BC9CD2E-8AD0-40CC-97AA-8C7B556514B0";
paths = (
{
closed = 1;
nodes = (
"40 700 LINE",
"51 463 LINE",
"139 463 LINE",
"150 700 LINE"
);
}
);
width = 190;
},
{
layerId = "3C8330F3-4770-4812-9C95-859F387513C1";
paths = (
{
closed = 1;
nodes = (
"40 700 LINE",
"46 463 LINE",
"86 463 LINE",
"92 700 LINE"
);
}
);
width = 132;
}
);
unicode = 0027;
},
{
glyphname = .notdef;
layers = (
{
layerId = "4BC9CD2E-8AD0-40CC-97AA-8C7B556514B0";
paths = (
{
closed = 1;
nodes = (
"349 -60 LINE",
"117 -60 LINE",
"117 596 LINE",
"349 596 LINE",
"349 664 LINE",
"50 664 LINE",
"50 -128 LINE",
"349 -128 LINE"
);
},
{
closed = 1;
nodes = (
"529 -128 LINE",
"529 664 LINE",
"320 664 LINE",
"320 596 LINE",
"462 596 LINE",
"462 -60 LINE",
"320 -60 LINE",
"320 -128 LINE"
);
}
);
width = 579;
},
{
associatedMasterId = "3C8330F3-4770-4812-9C95-859F387513C1";
layerId = "E1ADDF7C-A343-4E6D-B630-136BDFE64807";
paths = (
{
closed = 1;
nodes = (
"366 -38 LINE",
"132 -38 LINE",
"132 574 LINE",
"366 574 LINE",
"366 664 LINE",
"50 664 LINE",
"50 -128 LINE",
"366 -128 LINE"
);
},
{
closed = 1;
nodes = (
"529 -128 LINE",
"529 664 LINE",
"320 664 LINE",
"320 574 LINE",
"447 574 LINE",
"447 -38 LINE",
"320 -38 LINE",
"320 -128 LINE"
);
}
);
width = 579;
},
{
layerId = "3C8330F3-4770-4812-9C95-859F387513C1";
paths = (
{
closed = 1;
nodes = (
"349 -84 LINE",
"98 -84 LINE",
"98 620 LINE",
"349 620 LINE",
"349 664 LINE",
"50 664 LINE",
"50 -128 LINE",
"349 -128 LINE"
);
},
{
closed = 1;
nodes = (
"529 -128 LINE",
"529 664 LINE",
"320 664 LINE",
"320 620 LINE",
"481 620 LINE",
"481 -84 LINE",
"320 -84 LINE",
"320 -128 LINE"
);
}
);
width = 579;
}
);
},
{
color = 5;
glyphname = cent;
layers = (
{
components = (
{
name = c;
transform = "{1, 0, 0, 1, 0, 94}";
}
);
layerId = "4BC9CD2E-8AD0-40CC-97AA-8C7B556514B0";
paths = (
{
closed = 1;
nodes = (
"238 539 LINE",
"328 539 LINE",
"328 639 LINE",
"238 639 LINE"
);
},
{
closed = 1;
nodes = (
"238 49 LINE",
"328 49 LINE",
"328 149 LINE",
"238 149 LINE"
);
}
);
width = 508;
},
{
components = (
{
name = c;
transform = "{1, 0, 0, 1, 0, 92}";
}
);
layerId = "3C8330F3-4770-4812-9C95-859F387513C1";
paths = (
{
closed = 1;
nodes = (
"256 551 LINE",
"296 551 LINE",
"296 636 LINE",
"256 636 LINE"
);
},
{
closed = 1;
nodes = (
"256 49 LINE",
"296 49 LINE",
"296 130 LINE",
"256 130 LINE"
);
}
);
width = 483;
}
);
unicode = 00A2;
},
{
color = 5;
glyphname = currency;
layers = (
{
layerId = "4BC9CD2E-8AD0-40CC-97AA-8C7B556514B0";
paths = (
{
closed = 1;
nodes = (
"517 219 LINE",
"537 254 OFFCURVE",
"550 294 OFFCURVE",
"550 337 CURVE SMOOTH",
"550 382 OFFCURVE",
"536 422 OFFCURVE",
"516 457 CURVE",
"602 544 LINE",
"527 620 LINE",
"439 533 LINE",
"404 553 OFFCURVE",
"366 567 OFFCURVE",
"321 567 CURVE SMOOTH",
"276 567 OFFCURVE",
"238 553 OFFCURVE",
"203 533 CURVE",
"116 620 LINE",
"40 544 LINE",
"126 457 LINE",
"106 422 OFFCURVE",
"92 382 OFFCURVE",
"92 337 CURVE SMOOTH",
"92 294 OFFCURVE",
"105 254 OFFCURVE",
"125 219 CURVE",
"40 133 LINE",
"116 57 LINE",
"202 142 LINE",
"237 122 OFFCURVE",
"276 108 OFFCURVE",
"321 108 CURVE SMOOTH",
"366 108 OFFCURVE",
"405 122 OFFCURVE",
"440 143 CURVE",
"527 57 LINE",
"602 133 LINE"
);
},
{
closed = 1;
nodes = (
"424 398 OFFCURVE",
"437 369 OFFCURVE",
"437 337 CURVE SMOOTH",
"437 305 OFFCURVE",
"424 276 OFFCURVE",
"403 255 CURVE SMOOTH",
"382 234 OFFCURVE",
"353 221 OFFCURVE",
"321 221 CURVE SMOOTH",
"289 221 OFFCURVE",
"260 234 OFFCURVE",
"239 255 CURVE SMOOTH",
"218 276 OFFCURVE",
"205 305 OFFCURVE",
"205 337 CURVE SMOOTH",
"205 369 OFFCURVE",
"218 398 OFFCURVE",
"239 419 CURVE SMOOTH",
"260 440 OFFCURVE",
"289 453 OFFCURVE",
"321 453 CURVE SMOOTH",
"353 453 OFFCURVE",
"382 440 OFFCURVE",
"403 419 CURVE SMOOTH"
);
}
);
width = 642;
},
{
layerId = "3C8330F3-4770-4812-9C95-859F387513C1";
paths = (
{
closed = 1;
nodes = (
"473 192 LINE",
"510 245 OFFCURVE",
"525 290 OFFCURVE",
"525 337 CURVE SMOOTH",
"525 384 OFFCURVE",
"511 428 OFFCURVE",
"472 484 CURVE",
"568 579 LINE",
"545 602 LINE",
"449 506 LINE",
"394 545 OFFCURVE",
"349 559 OFFCURVE",
"304 559 CURVE SMOOTH",
"259 559 OFFCURVE",
"214 545 OFFCURVE",
"159 506 CURVE",
"64 603 LINE",
"40 579 LINE",
"136 484 LINE",
"97 428 OFFCURVE",
"83 384 OFFCURVE",
"83 337 CURVE SMOOTH",
"83 290 OFFCURVE",
"98 245 OFFCURVE",
"135 192 CURVE",
"40 98 LINE",
"64 74 LINE",
"158 169 LINE",
"213 130 OFFCURVE",
"257 116 OFFCURVE",
"304 116 CURVE SMOOTH",
"351 116 OFFCURVE",
"397 131 OFFCURVE",
"449 170 CURVE",
"545 75 LINE",
"568 98 LINE"
);
},
{
closed = 1;
nodes = (
"463 431 OFFCURVE",
"481 385 OFFCURVE",
"481 337 CURVE SMOOTH",
"481 287 OFFCURVE",
"463 244 OFFCURVE",
"430 212 CURVE SMOOTH",
"398 179 OFFCURVE",
"354 160 OFFCURVE",
"304 160 CURVE SMOOTH",
"254 160 OFFCURVE",
"211 179 OFFCURVE",
"179 212 CURVE SMOOTH",
"146 244 OFFCURVE",
"127 287 OFFCURVE",
"127 337 CURVE SMOOTH",
"127 387 OFFCURVE",
"146 431 OFFCURVE",
"179 463 CURVE SMOOTH",
"211 496 OFFCURVE",
"256 514 OFFCURVE",
"304 514 CURVE SMOOTH",
"352 514 OFFCURVE",
"398 496 OFFCURVE",
"430 463 CURVE SMOOTH"
);
}
);
width = 608;
}
);
unicode = 00A4;
},
{
color = 5;
glyphname = dollar;
layers = (
{
components = (
{
name = S;
}
);
layerId = "4BC9CD2E-8AD0-40CC-97AA-8C7B556514B0";
paths = (
{
closed = 1;
nodes = (
"229 -65 LINE",
"324 -65 LINE",
"324 762 LINE",
"229 762 LINE"
);
}
);
width = 553;
},
{
components = (
{
name = S;
}
);
layerId = "3C8330F3-4770-4812-9C95-859F387513C1";
paths = (
{
closed = 1;
nodes = (
"246 -46 LINE",
"292 -46 LINE",
"292 745 LINE",
"246 745 LINE"
);
}
);
width = 538;
}
);
unicode = 0024;
},
{
color = 5;
glyphname = euro;
layers = (
{
layerId = "3C8330F3-4770-4812-9C95-859F387513C1";
paths = (
{
closed = 1;
nodes = (
"497 -5 LINE",
"497 44 LINE",
"435 44 LINE SMOOTH",
"308 44 OFFCURVE",
"196 130 OFFCURVE",
"155 252 CURVE",
"418 252 LINE",
"418 287 LINE",
"146 287 LINE",
"138 326 OFFCURVE",
"138 377 OFFCURVE",
"147 414 CURVE",
"418 414 LINE",
"418 449 LINE",
"156 449 LINE",
"197 568 OFFCURVE",
"305 656 OFFCURVE",
"435 656 CURVE SMOOTH",
"497 656 LINE",
"497 705 LINE",
"435 705 LINE SMOOTH",
"280 705 OFFCURVE",
"141 599 OFFCURVE",
"100 449 CURVE",
"40 449 LINE",
"40 414 LINE",
"92 414 LINE",
"86 375 OFFCURVE",
"85 332 OFFCURVE",
"92 287 CURVE",
"40 287 LINE",
"40 252 LINE",
"100 252 LINE",
"141 101 OFFCURVE",
"279 -5 OFFCURVE",
"435 -5 CURVE SMOOTH"
);
}
);
width = 547;
},
{
layerId = "4BC9CD2E-8AD0-40CC-97AA-8C7B556514B0";
paths = (
{
closed = 1;
nodes = (
"500 -5 LINE",
"500 119 LINE",
"424 119 LINE SMOOTH",
"331 119 OFFCURVE",
"270 161 OFFCURVE",
"237 225 CURVE",
"432 225 LINE",
"432 320 LINE",
"208 320 LINE",
"204 341 OFFCURVE",
"204 362 OFFCURVE",
"208 383 CURVE",
"432 383 LINE",
"432 478 LINE",
"239 478 LINE",
"272 541 OFFCURVE",
"333 581 OFFCURVE",
"424 581 CURVE SMOOTH",
"500 581 LINE",
"500 705 LINE",
"424 705 LINE SMOOTH",
"276 705 OFFCURVE",
"155 626 OFFCURVE",
"109 478 CURVE",
"40 478 LINE",
"40 383 LINE",
"90 383 LINE",
"88 362 OFFCURVE",
"88 341 OFFCURVE",
"90 320 CURVE",
"40 320 LINE",
"40 225 LINE",
"108 225 LINE",
"152 83 OFFCURVE",
"268 -5 OFFCURVE",
"424 -5 CURVE SMOOTH"
);
}
);
width = 550;
}
);
unicode = 20AC;
},
{
color = 5;
glyphname = sterling;
layers = (
{
layerId = "4BC9CD2E-8AD0-40CC-97AA-8C7B556514B0";
paths = (
{
closed = 1;
nodes = (
"423 0 LINE",
"423 111 LINE",
"164 111 LINE",
"197 167 OFFCURVE",
"221 244 OFFCURVE",
"228 311 CURVE",
"349 311 LINE",
"349 412 LINE",
"227 412 LINE",
"206 476 OFFCURVE",
"202 508 OFFCURVE",
"211 534 CURVE",
"216 554 OFFCURVE",
"227 564 OFFCURVE",
"238 572 CURVE SMOOTH",
"265 591 OFFCURVE",
"326 608 OFFCURVE",
"418 591 CURVE",
"418 696 LINE",
"307 715 OFFCURVE",
"209 706 OFFCURVE",
"151 650 CURVE SMOOTH",
"126 626 OFFCURVE",
"109 594 OFFCURVE",
"100 553 CURVE SMOOTH",
"90 509 OFFCURVE",
"95 460 OFFCURVE",
"110 412 CURVE",
"50 412 LINE",
"50 311 LINE",
"117 311 LINE",
"114 255 OFFCURVE",
"87 178 OFFCURVE",
"40 98 CURVE",
"40 0 LINE"
);
}
);
width = 468;
},
{
layerId = "3C8330F3-4770-4812-9C95-859F387513C1";
paths = (
{
closed = 1;
nodes = (
"427 0 LINE",
"427 51 LINE",
"95 51 LINE",
"151 128 OFFCURVE",
"191 218 OFFCURVE",
"200 316 CURVE",
"346 316 LINE",
"346 357 LINE",
"201 357 LINE",
"193 396 OFFCURVE",
"172 474 OFFCURVE",
"170 508 CURVE",
"166 552 OFFCURVE",
"177 600 OFFCURVE",
"226 631 CURVE SMOOTH",
"279 664 OFFCURVE",
"356 661 OFFCURVE",
"432 653 CURVE",
"432 699 LINE",
"355 709 OFFCURVE",
"258 708 OFFCURVE",
"198 669 CURVE SMOOTH",
"175 654 OFFCURVE",
"158 636 OFFCURVE",
"146 619 CURVE SMOOTH",
"103 558 OFFCURVE",
"123 482 OFFCURVE",
"152 357 CURVE",
"63 357 LINE",
"63 316 LINE",
"154 316 LINE",
"143 221 OFFCURVE",
"113 153 OFFCURVE",
"40 54 CURVE",
"40 0 LINE"
);
}
);
width = 477;
}
);
unicode = 00A3;
},
{
color = 5;
glyphname = notequal;
layers = (
{
components = (
{
name = endash;
transform = "{0.95, 0, 0, 1, 3, -75}";
},
{
name = endash;
transform = "{0.95, 0, 0, 1, 3, 75}";
}
);
layerId = "4BC9CD2E-8AD0-40CC-97AA-8C7B556514B0";
paths = (
{
closed = 1;
nodes = (
"242 107 LINE",
"433 506 LINE",
"330 506 LINE",
"138 107 LINE"
);
}
);
width = 571;
},
{
components = (
{
name = endash;
transform = "{0.95, 0, 0, 1, 3, -75}";
},
{
name = endash;
transform = "{0.95, 0, 0, 1, 3, 75}";
}
);
layerId = "3C8330F3-4770-4812-9C95-859F387513C1";
paths = (
{
closed = 1;
nodes = (
"217 107 LINE",
"408 506 LINE",
"355 506 LINE",
"163 107 LINE"
);
}
);
width = 571;
}
);
unicode = 2260;
},
{
color = 5;
glyphname = greater;
layers = (
{
layerId = "4BC9CD2E-8AD0-40CC-97AA-8C7B556514B0";
paths = (
{
closed = 1;
nodes = (
"466 326 LINE",
"40 544 LINE",
"40 405 LINE",
"336 272 LINE",
"40 136 LINE",
"40 -4 LINE",
"466 217 LINE"
);
}
);
width = 506;
},
{
layerId = "3C8330F3-4770-4812-9C95-859F387513C1";
paths = (
{
closed = 1;
nodes = (
"467 297 LINE",
"40 511 LINE",
"40 456 LINE",
"415 270 LINE",
"40 83 LINE",
"40 30 LINE",
"467 243 LINE"
);
}
);
width = 507;
}
);
unicode = 003E;
},
{
color = 5;
glyphname = greaterequal;
layers = (
{
layerId = "4BC9CD2E-8AD0-40CC-97AA-8C7B556514B0";
paths = (
{
closed = 1;
nodes = (
"466 411 LINE",
"40 558 LINE",
"40 425 LINE",
"330 356 LINE",
"40 287 LINE",
"40 154 LINE",
"466 297 LINE"
);
},
{
closed = 1;
nodes = (
"466 100 LINE",
"40 100 LINE",
"40 0 LINE",
"466 0 LINE"
);
}
);
width = 506;
},
{
layerId = "3C8330F3-4770-4812-9C95-859F387513C1";
paths = (
{
closed = 1;
nodes = (
"466 339 LINE",
"40 476 LINE",
"40 424 LINE",
"420 306 LINE",
"40 192 LINE",
"40 141 LINE",
"466 272 LINE"
);
},
{
closed = 1;
nodes = (
"466 50 LINE",
"40 50 LINE",
"40 0 LINE",
"466 0 LINE"
);
}
);
width = 506;
}
);
unicode = 2265;
},
{
color = 5;
glyphname = plusminus;
layers = (
{
layerId = "4BC9CD2E-8AD0-40CC-97AA-8C7B556514B0";
paths = (
{
closed = 1;
nodes = (
"545 396 LINE",
"355 396 LINE",
"355 474 LINE",
"245 474 LINE",
"245 396 LINE",
"50 396 LINE",
"50 288 LINE",
"245 288 LINE",
"245 209 LINE",
"355 209 LINE",
"355 288 LINE",
"545 288 LINE"
);
},
{
closed = 1;
nodes = (
"545 146 LINE",
"50 146 LINE",
"50 38 LINE",
"545 38 LINE"
);
}
);
width = 595;
},
{
layerId = "3C8330F3-4770-4812-9C95-859F387513C1";
paths = (
{
closed = 1;
nodes = (
"520 328 LINE",
"310 328 LINE",
"310 419 LINE",
"260 419 LINE",
"260 328 LINE",
"50 328 LINE",
"50 278 LINE",
"260 278 LINE",
"260 186 LINE",
"310 186 LINE",
"310 278 LINE",
"520 278 LINE"
);
},
{
closed = 1;
nodes = (
"520 88 LINE",
"50 88 LINE",
"50 38 LINE",
"520 38 LINE"
);
}
);
width = 570;
}
);
unicode = 00B1;
},
{
color = 5;
glyphname = approxequal;
layers = (
{
layerId = "4BC9CD2E-8AD0-40CC-97AA-8C7B556514B0";
paths = (
{
closed = 1;
nodes = (
"148 302 LINE",
"148 344 OFFCURVE",
"173 371 OFFCURVE",
"210 371 CURVE SMOOTH",
"252 371 OFFCURVE",
"324 311 OFFCURVE",
"390 311 CURVE SMOOTH",
"476 311 OFFCURVE",
"544 385 OFFCURVE",
"544 483 CURVE",
"437 483 LINE",
"437 430 OFFCURVE",
"409 411 OFFCURVE",
"378 416 CURVE",
"350 422 OFFCURVE",
"283 469 OFFCURVE",
"238 474 CURVE",
"189 482 OFFCURVE",
"139 467 OFFCURVE",
"102 438 CURVE SMOOTH",
"66 409 OFFCURVE",
"40 365 OFFCURVE",
"40 302 CURVE"
);
},
{
closed = 1;
nodes = (
"178 102 LINE",
"178 144 OFFCURVE",
"203 171 OFFCURVE",
"240 171 CURVE SMOOTH",
"282 171 OFFCURVE",
"354 111 OFFCURVE",
"420 111 CURVE SMOOTH",
"506 111 OFFCURVE",
"574 185 OFFCURVE",
"574 283 CURVE",
"467 283 LINE",
"467 230 OFFCURVE",
"439 211 OFFCURVE",
"408 216 CURVE",
"380 222 OFFCURVE",
"313 269 OFFCURVE",
"268 274 CURVE",
"219 282 OFFCURVE",
"169 267 OFFCURVE",
"132 238 CURVE SMOOTH",
"96 209 OFFCURVE",
"70 165 OFFCURVE",
"70 102 CURVE"
);
}
);
width = 614;
},
{
layerId = "3C8330F3-4770-4812-9C95-859F387513C1";
paths = (
{
closed = 1;
nodes = (
"86 321 LINE",
"99 371 OFFCURVE",
"151 408 OFFCURVE",
"209 402 CURVE SMOOTH",
"264 396 OFFCURVE",
"328 332 OFFCURVE",
"394 332 CURVE SMOOTH",
"459 332 OFFCURVE",
"518 391 OFFCURVE",
"526 455 CURVE",
"480 455 LINE",
"471 402 OFFCURVE",
"429 371 OFFCURVE",
"374 379 CURVE SMOOTH",
"340 384 OFFCURVE",
"256 440 OFFCURVE",
"216 445 CURVE",
"176 452 OFFCURVE",
"134 441 OFFCURVE",
"99 415 CURVE SMOOTH",
"67 391 OFFCURVE",
"46 357 OFFCURVE",
"40 321 CURVE"
);
},
{
closed = 1;
nodes = (
"100 131 LINE",
"113 181 OFFCURVE",
"165 218 OFFCURVE",
"223 212 CURVE SMOOTH",
"278 206 OFFCURVE",
"342 142 OFFCURVE",
"408 142 CURVE SMOOTH",
"473 142 OFFCURVE",
"532 201 OFFCURVE",
"540 265 CURVE",
"494 265 LINE",
"485 212 OFFCURVE",
"443 181 OFFCURVE",
"388 189 CURVE SMOOTH",
"354 194 OFFCURVE",
"270 250 OFFCURVE",
"230 255 CURVE",
"190 262 OFFCURVE",
"148 251 OFFCURVE",
"113 225 CURVE SMOOTH",
"81 201 OFFCURVE",
"60 167 OFFCURVE",
"54 131 CURVE"
);
}
);
width = 580;
}
);
unicode = 2248;
},
{
color = 5;
glyphname = asciitilde;
layers = (
{
layerId = "4BC9CD2E-8AD0-40CC-97AA-8C7B556514B0";
paths = (
{
closed = 1;
nodes = (
"548 180 OFFCURVE",
"589 263 OFFCURVE",
"589 366 CURVE",
"472 366 LINE",
"472 314 OFFCURVE",
"441 289 OFFCURVE",
"405 289 CURVE SMOOTH",
"345 289 OFFCURVE",
"355 373 OFFCURVE",
"215 373 CURVE SMOOTH",
"89 373 OFFCURVE",
"40 302 OFFCURVE",
"40 187 CURVE",
"158 187 LINE",
"158 238 OFFCURVE",
"189 257 OFFCURVE",
"225 257 CURVE",
"285 257 OFFCURVE",
"278 176 OFFCURVE",
"418 178 CURVE SMOOTH"
);
}
);
width = 629;
},
{
layerId = "3C8330F3-4770-4812-9C95-859F387513C1";
paths = (
{
closed = 1;
nodes = (
"529 202 OFFCURVE",
"567 286 OFFCURVE",
"567 354 CURVE",
"511 354 LINE",
"511 293 OFFCURVE",
"483 256 OFFCURVE",
"423 256 CURVE SMOOTH",
"356 256 OFFCURVE",
"287 345 OFFCURVE",
"196 345 CURVE SMOOTH",
"93 345 OFFCURVE",
"40 274 OFFCURVE",
"40 187 CURVE",
"96 187 LINE",
"96 253 OFFCURVE",
"136 291 OFFCURVE",
"192 291 CURVE SMOOTH",
"280 291 OFFCURVE",
"316 202 OFFCURVE",
"421 202 CURVE SMOOTH"
);
}
);
width = 607;
}
);
unicode = 007E;
},
{
color = 5;
glyphname = logicalnot;
layers = (
{
layerId = "4BC9CD2E-8AD0-40CC-97AA-8C7B556514B0";
paths = (
{
closed = 1;
nodes = (
"468 320 LINE",
"40 320 LINE",
"40 219 LINE",
"362 219 LINE",
"362 90 LINE",
"468 90 LINE"
);
}
);
width = 518;
},
{
layerId = "3C8330F3-4770-4812-9C95-859F387513C1";
paths = (
{
closed = 1;
nodes = (
"468 320 LINE",
"40 320 LINE",
"40 271 LINE",
"424 271 LINE",
"424 81 LINE",
"468 81 LINE"
);
}
);
width = 518;
}
);
unicode = 00AC;
},
{
color = 5;
glyphname = asciicircum;
layers = (
{
layerId = "4BC9CD2E-8AD0-40CC-97AA-8C7B556514B0";
paths = (
{
closed = 1;
nodes = (
"322 700 LINE",
"220 700 LINE",
"40 370 LINE",
"172 370 LINE",
"272 565 LINE",
"371 370 LINE",
"504 370 LINE"
);
}
);
width = 544;
},
{
layerId = "3C8330F3-4770-4812-9C95-859F387513C1";
paths = (
{
closed = 1;
nodes = (
"266 700 LINE",
"210 700 LINE",
"40 370 LINE",
"97 370 LINE",
"239 654 LINE",
"380 370 LINE",
"437 370 LINE"
);
}
);
width = 477;
}
);
unicode = 005E;
},
{
color = 5;
glyphname = emptyset;
layers = (
{
layerId = "4BC9CD2E-8AD0-40CC-97AA-8C7B556514B0";
paths = (
{
closed = 1;
nodes = (
"510 38 OFFCURVE",
"645 173 OFFCURVE",
"645 340 CURVE SMOOTH",
"645 506 OFFCURVE",
"510 641 OFFCURVE",
"343 641 CURVE SMOOTH",
"177 641 OFFCURVE",
"42 506 OFFCURVE",
"42 340 CURVE SMOOTH",
"42 173 OFFCURVE",
"177 38 OFFCURVE",
"343 38 CURVE SMOOTH"
);
},
{
closed = 1;
nodes = (
"240 151 OFFCURVE",
"155 236 OFFCURVE",
"155 340 CURVE SMOOTH",
"155 443 OFFCURVE",
"240 528 OFFCURVE",
"343 528 CURVE SMOOTH",
"447 528 OFFCURVE",
"532 443 OFFCURVE",
"532 340 CURVE SMOOTH",
"532 236 OFFCURVE",
"447 151 OFFCURVE",
"343 151 CURVE SMOOTH"
);
},
{
closed = 1;
nodes = (
"40 113 LINE",
"118 35 LINE",
"645 567 LINE",
"567 645 LINE"
);
}
);
width = 685;
},
{
layerId = "3C8330F3-4770-4812-9C95-859F387513C1";
paths = (
{
closed = 1;
nodes = (
"508 38 OFFCURVE",
"643 173 OFFCURVE",
"643 340 CURVE SMOOTH",
"643 506 OFFCURVE",
"508 641 OFFCURVE",
"341 641 CURVE SMOOTH",
"175 641 OFFCURVE",
"40 506 OFFCURVE",
"40 340 CURVE SMOOTH",
"40 173 OFFCURVE",
"175 38 OFFCURVE",
"341 38 CURVE SMOOTH"
);
},
{
closed = 1;
nodes = (
"203 88 OFFCURVE",
"90 201 OFFCURVE",
"90 340 CURVE SMOOTH",
"90 478 OFFCURVE",
"203 591 OFFCURVE",
"341 591 CURVE SMOOTH",
"480 591 OFFCURVE",
"593 478 OFFCURVE",
"593 340 CURVE SMOOTH",
"593 201 OFFCURVE",
"480 88 OFFCURVE",
"341 88 CURVE SMOOTH"
);
},
{
closed = 1;
nodes = (
"60 92 LINE",
"96 57 LINE",
"621 588 LINE",
"585 623 LINE"
);
}
);
width = 683;
}
);
unicode = 2205;
},
{
color = 5;
glyphname = infinity;
layers = (
{
layerId = "4BC9CD2E-8AD0-40CC-97AA-8C7B556514B0";
paths = (
{
closed = 1;
nodes = (
"803 177 OFFCURVE",
"803 284 CURVE SMOOTH",
"803 391 OFFCURVE",
"714 480 OFFCURVE",
"598 480 CURVE SMOOTH",
"531 480 OFFCURVE",
"469 446 OFFCURVE",
"421 395 CURVE",
"375 446 OFFCURVE",
"312 480 OFFCURVE",
"245 480 CURVE SMOOTH",
"132 480 OFFCURVE",
"40 393 OFFCURVE",
"40 284 CURVE SMOOTH",
"40 179 OFFCURVE",
"131 89 OFFCURVE",
"245 89 CURVE SMOOTH",
"306 89 OFFCURVE",
"376 122 OFFCURVE",
"421 174 CURVE",
"470 123 OFFCURVE",
"533 89 OFFCURVE",
"598 89 CURVE SMOOTH",
"709 89 OFFCURVE"
);
},
{
closed = 1;
nodes = (
"689 337 OFFCURVE",
"689 284 CURVE SMOOTH",
"689 234 OFFCURVE",
"645 198 OFFCURVE",
"598 198 CURVE SMOOTH",
"547 198 OFFCURVE",
"479 241 OFFCURVE",
"479 284 CURVE SMOOTH",
"479 327 OFFCURVE",
"542 370 OFFCURVE",
"598 370 CURVE SMOOTH",
"644 370 OFFCURVE"
);
},
{
closed = 1;
nodes = (
"364 329 OFFCURVE",
"364 284 CURVE SMOOTH",
"364 241 OFFCURVE",
"301 198 OFFCURVE",
"245 198 CURVE SMOOTH",
"201 198 OFFCURVE",
"154 234 OFFCURVE",
"154 284 CURVE SMOOTH",
"154 333 OFFCURVE",
"196 370 OFFCURVE",
"245 370 CURVE SMOOTH",
"299 370 OFFCURVE"
);
}
);
width = 843;
},
{
layerId = "3C8330F3-4770-4812-9C95-859F387513C1";
paths = (
{
closed = 1;
nodes = (
"811 185 OFFCURVE",
"811 284 CURVE SMOOTH",
"811 383 OFFCURVE",
"739 480 OFFCURVE",
"623 480 CURVE SMOOTH",
"556 480 OFFCURVE",
"456 443 OFFCURVE",
"425 360 CURVE",
"395 443 OFFCURVE",
"295 480 OFFCURVE",
"228 480 CURVE SMOOTH",
"115 480 OFFCURVE",
"40 384 OFFCURVE",
"40 284 CURVE SMOOTH",
"40 188 OFFCURVE",
"115 89 OFFCURVE",
"228 89 CURVE SMOOTH",
"295 89 OFFCURVE",
"394 128 OFFCURVE",
"425 207 CURVE",
"456 128 OFFCURVE",
"556 89 OFFCURVE",
"623 89 CURVE SMOOTH",
"739 89 OFFCURVE"
);
},
{
closed = 1;
nodes = (
"769 372 OFFCURVE",
"769 284 CURVE SMOOTH",
"769 199 OFFCURVE",
"704 130 OFFCURVE",
"623 130 CURVE SMOOTH",
"537 130 OFFCURVE",
"447 201 OFFCURVE",
"447 284 CURVE SMOOTH",
"447 368 OFFCURVE",
"535 438 OFFCURVE",
"623 438 CURVE SMOOTH",
"703 438 OFFCURVE"
);
},
{
closed = 1;
nodes = (
"404 368 OFFCURVE",
"404 284 CURVE SMOOTH",
"404 204 OFFCURVE",
"320 130 OFFCURVE",
"228 130 CURVE SMOOTH",
"149 130 OFFCURVE",
"82 197 OFFCURVE",
"82 284 CURVE SMOOTH",
"82 369 OFFCURVE",
"146 438 OFFCURVE",
"228 438 CURVE SMOOTH",
"318 438 OFFCURVE"
);
}
);
width = 851;
}
);
unicode = 221E;
},
{
color = 5;
glyphname = integral;
layers = (
{
layerId = "4BC9CD2E-8AD0-40CC-97AA-8C7B556514B0";
paths = (
{
closed = 1;
nodes = (
"517 707 LINE",
"420 707 LINE SMOOTH",
"290 707 OFFCURVE",
"263 530 OFFCURVE",
"226 305 CURVE SMOOTH",
"206 167 OFFCURVE",
"178 -38 OFFCURVE",
"131 -38 CURVE SMOOTH",
"40 -38 LINE",
"40 -158 LINE",
"137 -158 LINE SMOOTH",
"265 -158 OFFCURVE",
"299 10 OFFCURVE",
"330 205 CURVE SMOOTH",
"385 532 OFFCURVE",
"396 587 OFFCURVE",
"426 587 CURVE SMOOTH",
"517 587 LINE"
);
}
);
width = 557;
},
{
layerId = "3C8330F3-4770-4812-9C95-859F387513C1";
paths = (
{
closed = 1;
nodes = (
"517 707 LINE",
"447 707 LINE SMOOTH",
"321 707 OFFCURVE",
"301 518 OFFCURVE",
"262 301 CURVE SMOOTH",
"218 62 OFFCURVE",
"196 -113 OFFCURVE",
"103 -113 CURVE SMOOTH",
"40 -113 LINE",
"40 -158 LINE",
"110 -158 LINE SMOOTH",
"239 -158 OFFCURVE",
"260 33 OFFCURVE",
"312 303 CURVE SMOOTH",
"353 517 OFFCURVE",
"366 662 OFFCURVE",
"454 662 CURVE SMOOTH",
"517 662 LINE"
);
}
);
width = 557;
}
);
unicode = 222B;
},
{
color = 5;
glyphname = product;
layers = (
{
layerId = "4BC9CD2E-8AD0-40CC-97AA-8C7B556514B0";
paths = (
{
closed = 1;
nodes = (
"535 700 LINE",
"40 700 LINE",
"40 600 LINE",
"138 600 LINE",
"138 -101 LINE",
"245 -101 LINE",
"245 600 LINE",
"340 600 LINE",
"340 -101 LINE",
"448 -101 LINE",
"448 600 LINE",
"535 600 LINE"
);
}
);
width = 575;
},
{
layerId = "3C8330F3-4770-4812-9C95-859F387513C1";
paths = (
{
closed = 1;
nodes = (
"535 700 LINE",
"40 700 LINE",
"40 652 LINE",
"153 652 LINE",
"153 -101 LINE",
"199 -101 LINE",
"199 652 LINE",
"388 652 LINE",
"388 -101 LINE",
"434 -101 LINE",
"434 652 LINE",
"535 652 LINE"
);
}
);
width = 575;
}
);
unicode = 220F;
},
{
color = 5;
glyphname = summation;
layers = (
{
guideLines = (
{
angle = 57.1715;
position = "{299, 162}";
},
{
angle = -57.1715;
position = "{299, 441}";
}
);
layerId = "4BC9CD2E-8AD0-40CC-97AA-8C7B556514B0";
paths = (
{
closed = 1;
nodes = (
"516 12 LINE",
"203 12 LINE",
"389 301 LINE",
"203 590 LINE",
"516 590 LINE",
"516 700 LINE",
"45 700 LINE",
"45 602 LINE",
"257 301 LINE",
"45 0 LINE",
"45 -98 LINE",
"516 -98 LINE"
);
}
);
width = 561;
},
{
layerId = "3C8330F3-4770-4812-9C95-859F387513C1";
paths = (
{
closed = 1;
nodes = (
"516 -58 LINE",
"96 -58 LINE",
"347 297 LINE",
"96 652 LINE",
"516 652 LINE",
"516 700 LINE",
"45 700 LINE",
"45 646 LINE",
"290 297 LINE",
"45 -52 LINE",
"45 -106 LINE",
"516 -106 LINE"
);
}
);
width = 561;
}
);
unicode = 2211;
},
{
color = 5;
glyphname = radical;
layers = (
{
layerId = "4BC9CD2E-8AD0-40CC-97AA-8C7B556514B0";
paths = (
{
closed = 1;
nodes = (
"590 700 LINE",
"335 700 LINE",
"211 17 LINE",
"148 211 LINE",
"30 211 LINE",
"150 -145 LINE",
"291 -145 LINE",
"435 585 LINE",
"590 585 LINE"
);
}
);
width = 635;
},
{
layerId = "3C8330F3-4770-4812-9C95-859F387513C1";
paths = (
{
closed = 1;
nodes = (
"541 700 LINE",
"327 700 LINE",
"161 -97 LINE",
"83 152 LINE",
"30 152 LINE",
"126 -151 LINE",
"201 -151 LINE",
"368 656 LINE",
"541 656 LINE"
);
}
);
width = 586;
}
);
unicode = 221A;
},
{
color = 5;
glyphname = partialdiff;
layers = (
{
layerId = "4BC9CD2E-8AD0-40CC-97AA-8C7B556514B0";
paths = (
{
closed = 1;
nodes = (
"377 -17 OFFCURVE",
"505 74 OFFCURVE",
"521 209 CURVE SMOOTH",
"542 371 OFFCURVE",
"449 522 OFFCURVE",
"335 699 CURVE",
"202 700 LINE",
"202 699 OFFCURVE",
"280 615 OFFCURVE",
"350 458 CURVE",
"219 518 OFFCURVE",
"60 423 OFFCURVE",
"42 268 CURVE SMOOTH",
"27 142 OFFCURVE",
"116 14 OFFCURVE",
"249 -2 CURVE SMOOTH"
);
},
{
closed = 1;
nodes = (
"203 132 OFFCURVE",
"156 188 OFFCURVE",
"164 254 CURVE SMOOTH",
"171 312 OFFCURVE",
"224 355 OFFCURVE",
"290 354 CURVE SMOOTH",
"363 353 OFFCURVE",
"407 288 OFFCURVE",
"399 225 CURVE",
"394 166 OFFCURVE",
"339 112 OFFCURVE",
"263 123 CURVE SMOOTH"
);
}
);
width = 564;
},
{
layerId = "3C8330F3-4770-4812-9C95-859F387513C1";
paths = (
{
closed = 1;
nodes = (
"372 -18 OFFCURVE",
"495 66 OFFCURVE",
"511 194 CURVE SMOOTH",
"533 369 OFFCURVE",
"429 524 OFFCURVE",
"304 700 CURVE",
"244 700 LINE",
"333 584 OFFCURVE",
"390 489 OFFCURVE",
"438 381 CURVE",
"320 520 OFFCURVE",
"66 443 OFFCURVE",
"42 252 CURVE SMOOTH",
"26 124 OFFCURVE",
"122 13 OFFCURVE",
"250 -3 CURVE SMOOTH"
);
},
{
closed = 1;
nodes = (
"154 59 OFFCURVE",
"82 148 OFFCURVE",
"94 245 CURVE SMOOTH",
"106 339 OFFCURVE",
"192 409 OFFCURVE",
"296 397 CURVE SMOOTH",
"392 386 OFFCURVE",
"468 302 OFFCURVE",
"456 200 CURVE SMOOTH",
"444 103 OFFCURVE",
"348 36 OFFCURVE",
"253 47 CURVE SMOOTH"
);
}
);
width = 554;
}
);
unicode = 2202;
},
{
color = 5;
glyphname = percent;
layers = (
{
layerId = "4BC9CD2E-8AD0-40CC-97AA-8C7B556514B0";
paths = (
{
closed = 1;
nodes = (
"358 -1 LINE",
"670 701 LINE",
"551 701 LINE",
"239 -1 LINE"
);
},
{
closed = 1;
nodes = (
"317 358 OFFCURVE",
"397 430 OFFCURVE",
"397 530 CURVE SMOOTH",
"397 628 OFFCURVE",
"321 703 OFFCURVE",
"225 703 CURVE SMOOTH",
"129 703 OFFCURVE",
"50 632 OFFCURVE",
"50 530 CURVE SMOOTH",
"50 433 OFFCURVE",
"128 358 OFFCURVE",
"225 358 CURVE SMOOTH"
);
},
{
closed = 1;
nodes = (
"184 462 OFFCURVE",
"155 491 OFFCURVE",
"155 530 CURVE SMOOTH",
"155 569 OFFCURVE",
"184 598 OFFCURVE",
"225 598 CURVE SMOOTH",
"262 598 OFFCURVE",
"293 569 OFFCURVE",
"293 530 CURVE SMOOTH",
"293 491 OFFCURVE",
"262 462 OFFCURVE",
"225 462 CURVE SMOOTH"
);
},
{
closed = 1;
nodes = (
"777 -3 OFFCURVE",
"858 70 OFFCURVE",
"858 169 CURVE SMOOTH",
"858 267 OFFCURVE",
"782 342 OFFCURVE",
"684 342 CURVE SMOOTH",
"585 342 OFFCURVE",
"511 267 OFFCURVE",
"511 169 CURVE SMOOTH",
"511 74 OFFCURVE",
"588 -3 OFFCURVE",
"684 -3 CURVE SMOOTH"
);
},
{
closed = 1;
nodes = (
"645 102 OFFCURVE",
"615 132 OFFCURVE",
"615 169 CURVE SMOOTH",
"615 208 OFFCURVE",
"645 238 OFFCURVE",
"684 238 CURVE SMOOTH",
"723 238 OFFCURVE",
"753 209 OFFCURVE",
"753 169 CURVE SMOOTH",
"753 132 OFFCURVE",
"723 102 OFFCURVE",
"684 102 CURVE SMOOTH"
);
}
);
width = 908;
},
{
layerId = "3C8330F3-4770-4812-9C95-859F387513C1";
paths = (
{
closed = 1;
nodes = (
"267 -1 LINE",
"575 701 LINE",
"518 701 LINE",
"210 -1 LINE"
);
},
{
closed = 1;
nodes = (
"261 426 OFFCURVE",
"324 482 OFFCURVE",
"324 563 CURVE SMOOTH",
"324 641 OFFCURVE",
"265 701 OFFCURVE",
"188 701 CURVE SMOOTH",
"110 701 OFFCURVE",
"50 640 OFFCURVE",
"50 563 CURVE SMOOTH",
"50 491 OFFCURVE",
"109 426 OFFCURVE",
"188 426 CURVE SMOOTH"
);
},
{
closed = 1;
nodes = (
"138 472 OFFCURVE",
"96 513 OFFCURVE",
"96 563 CURVE SMOOTH",
"96 616 OFFCURVE",
"135 655 OFFCURVE",
"188 655 CURVE SMOOTH",
"238 655 OFFCURVE",
"278 614 OFFCURVE",
"278 563 CURVE SMOOTH",
"278 516 OFFCURVE",
"241 472 OFFCURVE",
"188 472 CURVE SMOOTH"
);
},
{
closed = 1;
nodes = (
"692 -4 OFFCURVE",
"755 52 OFFCURVE",
"755 133 CURVE SMOOTH",
"755 211 OFFCURVE",
"696 271 OFFCURVE",
"619 271 CURVE SMOOTH",
"541 271 OFFCURVE",
"481 210 OFFCURVE",
"481 133 CURVE SMOOTH",
"481 61 OFFCURVE",
"540 -4 OFFCURVE",
"619 -4 CURVE SMOOTH"
);
},
{
closed = 1;
nodes = (
"569 42 OFFCURVE",
"527 83 OFFCURVE",
"527 133 CURVE SMOOTH",
"527 186 OFFCURVE",
"566 225 OFFCURVE",
"619 225 CURVE SMOOTH",
"669 225 OFFCURVE",
"709 184 OFFCURVE",
"709 133 CURVE SMOOTH",
"709 86 OFFCURVE",
"672 42 OFFCURVE",
"619 42 CURVE SMOOTH"
);
}
);
width = 805;
}
);
unicode = 0025;
},
{
color = 5;
glyphname = perthousand;
layers = (
{
layerId = "4BC9CD2E-8AD0-40CC-97AA-8C7B556514B0";
paths = (
{
closed = 1;
nodes = (
"383 -1 LINE",
"700 701 LINE",
"579 701 LINE",
"261 -1 LINE"
);
},
{
closed = 1;
nodes = (
"321 358 OFFCURVE",
"403 430 OFFCURVE",
"403 530 CURVE SMOOTH",
"403 625 OFFCURVE",
"330 703 OFFCURVE",
"227 703 CURVE SMOOTH",
"126 703 OFFCURVE",
"50 630 OFFCURVE",
"50 530 CURVE SMOOTH",
"50 435 OFFCURVE",
"125 358 OFFCURVE",
"227 358 CURVE SMOOTH"
);
},
{
closed = 1;
nodes = (
"186 462 OFFCURVE",
"156 493 OFFCURVE",
"156 530 CURVE SMOOTH",
"156 569 OFFCURVE",
"186 598 OFFCURVE",
"227 598 CURVE SMOOTH",
"266 598 OFFCURVE",
"297 569 OFFCURVE",
"297 530 CURVE SMOOTH",
"297 493 OFFCURVE",
"266 462 OFFCURVE",
"227 462 CURVE SMOOTH"
);
},
{
closed = 1;
nodes = (
"827 -3 OFFCURVE",
"907 73 OFFCURVE",
"907 169 CURVE SMOOTH",
"907 264 OFFCURVE",
"832 342 OFFCURVE",
"730 342 CURVE SMOOTH",
"631 342 OFFCURVE",
"553 267 OFFCURVE",
"553 169 CURVE SMOOTH",
"553 74 OFFCURVE",
"634 -3 OFFCURVE",
"730 -3 CURVE SMOOTH"
);
},
{
closed = 1;
nodes = (
"691 102 OFFCURVE",
"661 132 OFFCURVE",
"661 169 CURVE SMOOTH",
"661 208 OFFCURVE",
"691 238 OFFCURVE",
"730 238 CURVE SMOOTH",
"769 238 OFFCURVE",
"800 209 OFFCURVE",
"800 169 CURVE SMOOTH",
"800 132 OFFCURVE",
"770 102 OFFCURVE",
"730 102 CURVE SMOOTH"
);
},
{
closed = 1;
nodes = (
"1238 -3 OFFCURVE",
"1320 69 OFFCURVE",
"1320 169 CURVE SMOOTH",
"1320 265 OFFCURVE",
"1247 342 OFFCURVE",
"1144 342 CURVE SMOOTH",
"1043 342 OFFCURVE",
"967 268 OFFCURVE",
"967 169 CURVE SMOOTH",
"967 74 OFFCURVE",
"1042 -3 OFFCURVE",
"1144 -3 CURVE SMOOTH"
);
},
{
closed = 1;
nodes = (
"1103 102 OFFCURVE",
"1073 132 OFFCURVE",
"1073 169 CURVE SMOOTH",
"1073 208 OFFCURVE",
"1103 238 OFFCURVE",
"1144 238 CURVE SMOOTH",
"1183 238 OFFCURVE",
"1214 209 OFFCURVE",
"1214 169 CURVE SMOOTH",
"1214 132 OFFCURVE",
"1183 102 OFFCURVE",
"1144 102 CURVE SMOOTH"
);
}
);
width = 1370;
},
{
layerId = "3C8330F3-4770-4812-9C95-859F387513C1";
paths = (
{
closed = 1;
nodes = (
"287 -1 LINE",
"595 701 LINE",
"538 701 LINE",
"230 -1 LINE"
);
},
{
closed = 1;
nodes = (
"261 426 OFFCURVE",
"324 482 OFFCURVE",
"324 563 CURVE SMOOTH",
"324 641 OFFCURVE",
"265 701 OFFCURVE",
"188 701 CURVE SMOOTH",
"110 701 OFFCURVE",
"50 640 OFFCURVE",
"50 563 CURVE SMOOTH",
"50 491 OFFCURVE",
"109 426 OFFCURVE",
"188 426 CURVE SMOOTH"
);
},
{
closed = 1;
nodes = (
"138 472 OFFCURVE",
"96 513 OFFCURVE",
"96 563 CURVE SMOOTH",
"96 616 OFFCURVE",
"135 655 OFFCURVE",
"188 655 CURVE SMOOTH",
"238 655 OFFCURVE",
"278 614 OFFCURVE",
"278 563 CURVE SMOOTH",
"278 516 OFFCURVE",
"241 472 OFFCURVE",
"188 472 CURVE SMOOTH"
);
},
{
closed = 1;
nodes = (
"711 -4 OFFCURVE",
"774 52 OFFCURVE",
"774 133 CURVE SMOOTH",
"774 211 OFFCURVE",
"715 271 OFFCURVE",
"638 271 CURVE SMOOTH",
"560 271 OFFCURVE",
"500 210 OFFCURVE",
"500 133 CURVE SMOOTH",
"500 61 OFFCURVE",
"559 -4 OFFCURVE",
"638 -4 CURVE SMOOTH"
);
},
{
closed = 1;
nodes = (
"588 41 OFFCURVE",
"545 86 OFFCURVE",
"545 133 CURVE SMOOTH",
"545 187 OFFCURVE",
"584 226 OFFCURVE",
"638 226 CURVE SMOOTH",
"689 226 OFFCURVE",
"729 181 OFFCURVE",
"729 133 CURVE SMOOTH",
"729 84 OFFCURVE",
"686 41 OFFCURVE",
"638 41 CURVE SMOOTH"
);
},
{
closed = 1;
nodes = (
"1064 -4 OFFCURVE",
"1127 52 OFFCURVE",
"1127 133 CURVE SMOOTH",
"1127 211 OFFCURVE",
"1068 271 OFFCURVE",
"991 271 CURVE SMOOTH",
"913 271 OFFCURVE",
"853 210 OFFCURVE",
"853 133 CURVE SMOOTH",
"853 61 OFFCURVE",
"912 -4 OFFCURVE",
"991 -4 CURVE SMOOTH"
);
},
{
closed = 1;
nodes = (
"941 41 OFFCURVE",
"898 86 OFFCURVE",
"898 133 CURVE SMOOTH",
"898 187 OFFCURVE",
"937 226 OFFCURVE",
"991 226 CURVE SMOOTH",
"1042 226 OFFCURVE",
"1082 181 OFFCURVE",
"1082 133 CURVE SMOOTH",
"1082 84 OFFCURVE",
"1039 41 OFFCURVE",
"991 41 CURVE SMOOTH"
);
}
);
width = 1177;
}
);
unicode = 2030;
},
{
color = 5;
glyphname = lozenge;
layers = (
{
layerId = "4BC9CD2E-8AD0-40CC-97AA-8C7B556514B0";
paths = (
{
closed = 1;
nodes = (
"322 660 LINE",
"220 660 LINE",
"50 330 LINE",
"220 0 LINE",
"322 0 LINE",
"493 330 LINE"
);
},
{
closed = 1;
nodes = (
"272 139 LINE",
"180 330 LINE",
"272 521 LINE",
"363 330 LINE"
);
}
);
width = 543;
},
{
layerId = "3C8330F3-4770-4812-9C95-859F387513C1";
paths = (
{
closed = 1;
nodes = (
"300 660 LINE",
"232 660 LINE",
"50 330 LINE",
"232 0 LINE",
"300 0 LINE",
"483 330 LINE"
);
},
{
closed = 1;
nodes = (
"267 41 LINE",
"103 330 LINE",
"267 620 LINE",
"430 330 LINE"
);
}
);
width = 533;
}
);
unicode = 25CA;
},
{
color = 5;
glyphname = at;
layers = (
{
layerId = "4BC9CD2E-8AD0-40CC-97AA-8C7B556514B0";
paths = (
{
closed = 1;
nodes = (
"484 -2 LINE",
"304 -38 OFFCURVE",
"149 79 OFFCURVE",
"149 257 CURVE SMOOTH",
"149 416 OFFCURVE",
"277 550 OFFCURVE",
"434 550 CURVE SMOOTH",
"584 550 OFFCURVE",
"698 427 OFFCURVE",
"705 279 CURVE SMOOTH",
"709 190 OFFCURVE",
"692 100 OFFCURVE",
"616 100 CURVE",
"603 101 OFFCURVE",
"597 105 OFFCURVE",
"597 113 CURVE SMOOTH",
"597 346 LINE SMOOTH",
"597 434 OFFCURVE",
"531 484 OFFCURVE",
"443 484 CURVE SMOOTH",
"379 484 OFFCURVE",
"313 453 OFFCURVE",
"253 400 CURVE",
"309 341 LINE",
"339 373 OFFCURVE",
"396 395 OFFCURVE",
"433 395 CURVE SMOOTH",
"465 395 OFFCURVE",
"489 376 OFFCURVE",
"489 343 CURVE SMOOTH",
"489 325 LINE",
"347 325 OFFCURVE",
"247 295 OFFCURVE",
"247 182 CURVE SMOOTH",
"247 55 OFFCURVE",
"399 9 OFFCURVE",
"489 96 CURVE",
"496 24 OFFCURVE",
"552 -3 OFFCURVE",
"610 -3 CURVE SMOOTH",
"751 -3 OFFCURVE",
"812 124 OFFCURVE",
"807 289 CURVE SMOOTH",
"802 496 OFFCURVE",
"641 660 OFFCURVE",
"440 660 CURVE SMOOTH",
"221 660 OFFCURVE",
"40 478 OFFCURVE",
"40 261 CURVE SMOOTH",
"40 23 OFFCURVE",
"237 -142 OFFCURVE",
"484 -108 CURVE"
);
},
{
closed = 1;
nodes = (
"363 147 OFFCURVE",
"344 157 OFFCURVE",
"344 183 CURVE SMOOTH",
"344 231 OFFCURVE",
"429 247 OFFCURVE",
"490 247 CURVE",
"490 183 LINE",
"468 166 OFFCURVE",
"422 147 OFFCURVE",
"387 147 CURVE SMOOTH"
);
}
);
width = 847;
},
{
layerId = "3C8330F3-4770-4812-9C95-859F387513C1";
paths = (
{
closed = 1;
nodes = (
"467 -72 LINE",
"245 -84 OFFCURVE",
"92 36 OFFCURVE",
"92 248 CURVE SMOOTH",
"92 443 OFFCURVE",
"248 607 OFFCURVE",
"449 607 CURVE SMOOTH",
"625 607 OFFCURVE",
"770 469 OFFCURVE",
"776 280 CURVE SMOOTH",
"780 162 OFFCURVE",
"756 80 OFFCURVE",
"712 47 CURVE SMOOTH",
"659 8 OFFCURVE",
"593 22 OFFCURVE",
"593 83 CURVE SMOOTH",
"593 345 LINE SMOOTH",
"593 420 OFFCURVE",
"535 464 OFFCURVE",
"457 464 CURVE SMOOTH",
"394 464 OFFCURVE",
"326 434 OFFCURVE",
"282 393 CURVE",
"313 358 LINE",
"351 387 OFFCURVE",
"410 413 OFFCURVE",
"461 413 CURVE SMOOTH",
"515 413 OFFCURVE",
"542 387 OFFCURVE",
"542 341 CURVE SMOOTH",
"542 301 LINE",
"409 301 OFFCURVE",
"271 279 OFFCURVE",
"271 162 CURVE SMOOTH",
"271 31 OFFCURVE",
"418 20 OFFCURVE",
"542 112 CURVE",
"542 20 OFFCURVE",
"569 -25 OFFCURVE",
"651 -25 CURVE SMOOTH",
"772 -25 OFFCURVE",
"832 84 OFFCURVE",
"827 279 CURVE SMOOTH",
"821 496 OFFCURVE",
"654 660 OFFCURVE",
"449 660 CURVE SMOOTH",
"231 660 OFFCURVE",
"40 477 OFFCURVE",
"40 253 CURVE SMOOTH",
"40 7 OFFCURVE",
"224 -145 OFFCURVE",
"467 -123 CURVE"
);
},
{
closed = 1;
nodes = (
"372 91 OFFCURVE",
"321 96 OFFCURVE",
"321 162 CURVE SMOOTH",
"321 227 OFFCURVE",
"390 255 OFFCURVE",
"543 256 CURVE",
"543 163 LINE",
"510 140 OFFCURVE",
"473 122 OFFCURVE",
"440 112 CURVE SMOOTH"
);
}
);
width = 867;
}
);
unicode = 0040;
},
{
color = 5;
glyphname = ampersand;
layers = (
{
layerId = "4BC9CD2E-8AD0-40CC-97AA-8C7B556514B0";
paths = (
{
closed = 1;
nodes = (
"685 0 LINE",
"548 149 LINE",
"585 212 OFFCURVE",
"588 285 OFFCURVE",
"586 388 CURVE",
"480 388 LINE",
"485 320 OFFCURVE",
"479 274 OFFCURVE",
"471 237 CURVE",
"242 508 LINE",
"216 544 OFFCURVE",
"251 602 OFFCURVE",
"295 603 CURVE SMOOTH",
"341 604 OFFCURVE",
"363 588 OFFCURVE",
"381 535 CURVE",
"488 573 LINE",
"453 667 OFFCURVE",
"403 712 OFFCURVE",
"295 712 CURVE SMOOTH",
"161 712 OFFCURVE",
"69 565 OFFCURVE",
"142 452 CURVE",
"173 410 LINE",
"-147 213 OFFCURVE",
"175 -162 OFFCURVE",
"476 68 CURVE",
"539 0 LINE"
);
},
{
closed = 1;
nodes = (
"219 28 OFFCURVE",
"63 205 OFFCURVE",
"234 339 CURVE",
"404 147 LINE"
);
}
);
width = 725;
},
{
layerId = "3C8330F3-4770-4812-9C95-859F387513C1";
paths = (
{
closed = 1;
nodes = (
"636 0 LINE",
"515 132 LINE",
"563 204 OFFCURVE",
"566 264 OFFCURVE",
"566 358 CURVE",
"516 358 LINE",
"516 258 OFFCURVE",
"512 224 OFFCURVE",
"483 173 CURVE",
"200 494 LINE",
"134 567 OFFCURVE",
"185 655 OFFCURVE",
"276 662 CURVE",
"343 664 OFFCURVE",
"381 636 OFFCURVE",
"403 581 CURVE",
"447 599 LINE",
"417 675 OFFCURVE",
"366 712 OFFCURVE",
"277 712 CURVE SMOOTH",
"136 712 OFFCURVE",
"68 567 OFFCURVE",
"144 477 CURVE",
"198 412 LINE",
"-179 228 OFFCURVE",
"179 -197 OFFCURVE",
"482 93 CURVE",
"570 0 LINE"
);
},
{
closed = 1;
nodes = (
"203 -109 OFFCURVE",
"-94 230 OFFCURVE",
"233 375 CURVE",
"449 129 LINE"
);
}
);
width = 676;
}
);
unicode = 0026;
},
{
color = 5;
glyphname = paragraph;
layers = (
{
layerId = "4BC9CD2E-8AD0-40CC-97AA-8C7B556514B0";
paths = (
{
closed = 1;
nodes = (
"368 -56 LINE",
"368 700 LINE",
"199 700 LINE SMOOTH",
"112 700 OFFCURVE",
"40 619 OFFCURVE",
"40 533 CURVE SMOOTH",
"40 446 OFFCURVE",
"107 369 OFFCURVE",
"199 369 CURVE SMOOTH",
"221 369 OFFCURVE",
"242 373 OFFCURVE",
"261 382 CURVE",
"261 -56 LINE"
);
},
{
closed = 1;
nodes = (
"546 -56 LINE",
"546 700 LINE",
"441 700 LINE",
"441 -56 LINE"
);
}
);
width = 586;
},
{
layerId = "3C8330F3-4770-4812-9C95-859F387513C1";
paths = (
{
closed = 1;
nodes = (
"317 -56 LINE",
"317 700 LINE",
"186 700 LINE SMOOTH",
"107 700 OFFCURVE",
"40 636 OFFCURVE",
"40 559 CURVE SMOOTH",
"40 480 OFFCURVE",
"109 420 OFFCURVE",
"186 420 CURVE SMOOTH",
"214 420 OFFCURVE",
"240 430 OFFCURVE",
"268 445 CURVE",
"268 -56 LINE"
);
},
{
closed = 1;
nodes = (
"413 -56 LINE",
"413 700 LINE",
"364 700 LINE",
"364 -56 LINE"
);
}
);
width = 453;
}
);
unicode = 00B6;
},
{
color = 5;
glyphname = section;
layers = (
{
layerId = "4BC9CD2E-8AD0-40CC-97AA-8C7B556514B0";
paths = (
{
closed = 1;
nodes = (
"315 -13 OFFCURVE",
"387 61 OFFCURVE",
"387 156 CURVE SMOOTH",
"387 195 OFFCURVE",
"372 231 OFFCURVE",
"340 248 CURVE",
"373 263 OFFCURVE",
"392 311 OFFCURVE",
"392 352 CURVE SMOOTH",
"392 405 OFFCURVE",
"359 457 OFFCURVE",
"304 483 CURVE",
"264 505 OFFCURVE",
"234 503 OFFCURVE",
"206 512 CURVE",
"133 532 OFFCURVE",
"153 608 OFFCURVE",
"224 598 CURVE SMOOTH",
"250 594 OFFCURVE",
"280 582 OFFCURVE",
"315 549 CURVE",
"393 630 LINE",
"342 681 OFFCURVE",
"281 711 OFFCURVE",
"217 711 CURVE SMOOTH",
"120 711 OFFCURVE",
"46 638 OFFCURVE",
"46 546 CURVE SMOOTH",
"46 503 OFFCURVE",
"73 471 OFFCURVE",
"94 450 CURVE",
"66 426 OFFCURVE",
"41 387 OFFCURVE",
"41 346 CURVE SMOOTH",
"41 292 OFFCURVE",
"79 239 OFFCURVE",
"129 215 CURVE",
"189 183 OFFCURVE",
"274 196 OFFCURVE",
"274 142 CURVE SMOOTH",
"274 120 OFFCURVE",
"252 99 OFFCURVE",
"222 99 CURVE SMOOTH",
"190 99 OFFCURVE",
"150 119 OFFCURVE",
"118 149 CURVE",
"40 68 LINE",
"88 18 OFFCURVE",
"154 -13 OFFCURVE",
"217 -13 CURVE SMOOTH"
);
},
{
closed = 1;
nodes = (
"189 295 OFFCURVE",
"142 314 OFFCURVE",
"142 354 CURVE SMOOTH",
"142 370 OFFCURVE",
"155 394 OFFCURVE",
"193 394 CURVE SMOOTH",
"256 394 OFFCURVE",
"289 366 OFFCURVE",
"294 344 CURVE",
"305 311 OFFCURVE",
"268 295 OFFCURVE",
"231 295 CURVE"
);
}
);
width = 433;
},
{
layerId = "3C8330F3-4770-4812-9C95-859F387513C1";
paths = (
{
closed = 1;
nodes = (
"292 -5 OFFCURVE",
"370 54 OFFCURVE",
"370 134 CURVE SMOOTH",
"370 180 OFFCURVE",
"344 209 OFFCURVE",
"304 241 CURVE",
"353 272 OFFCURVE",
"375 307 OFFCURVE",
"375 352 CURVE SMOOTH",
"375 423 OFFCURVE",
"308 463 OFFCURVE",
"220 478 CURVE SMOOTH",
"170 485 OFFCURVE",
"96 516 OFFCURVE",
"96 563 CURVE SMOOTH",
"96 623 OFFCURVE",
"144 657 OFFCURVE",
"216 657 CURVE SMOOTH",
"248 657 OFFCURVE",
"282 646 OFFCURVE",
"318 621 CURVE",
"355 655 LINE",
"313 684 OFFCURVE",
"254 703 OFFCURVE",
"208 703 CURVE SMOOTH",
"123 703 OFFCURVE",
"45 644 OFFCURVE",
"45 564 CURVE SMOOTH",
"45 518 OFFCURVE",
"71 489 OFFCURVE",
"111 457 CURVE",
"54 427 OFFCURVE",
"40 391 OFFCURVE",
"40 346 CURVE SMOOTH",
"40 275 OFFCURVE",
"107 235 OFFCURVE",
"195 220 CURVE SMOOTH",
"246 212 OFFCURVE",
"322 182 OFFCURVE",
"322 135 CURVE SMOOTH",
"322 75 OFFCURVE",
"271 41 OFFCURVE",
"199 41 CURVE SMOOTH",
"167 41 OFFCURVE",
"132 53 OFFCURVE",
"96 78 CURVE",
"60 43 LINE",
"102 14 OFFCURVE",
"161 -5 OFFCURVE",
"207 -5 CURVE SMOOTH"
);
},
{
closed = 1;
nodes = (
"152 264 OFFCURVE",
"84 293 OFFCURVE",
"84 360 CURVE SMOOTH",
"84 405 OFFCURVE",
"136 438 OFFCURVE",
"183 438 CURVE SMOOTH",
"258 438 OFFCURVE",
"335 403 OFFCURVE",
"335 341 CURVE SMOOTH",
"335 297 OFFCURVE",
"289 264 OFFCURVE",
"217 264 CURVE SMOOTH"
);
}
);
width = 415;
}
);
unicode = 00A7;
},
{
color = 5;
glyphname = copyright;
layers = (
{
layerId = "4BC9CD2E-8AD0-40CC-97AA-8C7B556514B0";
paths = (
{
closed = 1;
nodes = (
"40 157 OFFCURVE",
"192 -3 OFFCURVE",
"383 -3 CURVE SMOOTH",
"572 -3 OFFCURVE",
"725 153 OFFCURVE",
"725 350 CURVE SMOOTH",
"725 545 OFFCURVE",
"574 703 OFFCURVE",
"383 703 CURVE SMOOTH",
"192 703 OFFCURVE",
"40 543 OFFCURVE",
"40 350 CURVE SMOOTH"
);
},
{
closed = 1;
nodes = (
"148 483 OFFCURVE",
"252 597 OFFCURVE",
"383 597 CURVE SMOOTH",
"511 597 OFFCURVE",
"617 487 OFFCURVE",
"617 350 CURVE SMOOTH",
"617 216 OFFCURVE",
"514 103 OFFCURVE",
"383 103 CURVE SMOOTH",
"252 103 OFFCURVE",
"148 217 OFFCURVE",
"148 350 CURVE SMOOTH"
);
},
{
closed = 1;
nodes = (
"196 166 OFFCURVE",
"394 84 OFFCURVE",
"523 210 CURVE",
"465 284 LINE",
"404 218 OFFCURVE",
"300 252 OFFCURVE",
"300 351 CURVE SMOOTH",
"300 447 OFFCURVE",
"400 486 OFFCURVE",
"462 418 CURVE",
"521 492 LINE",
"396 617 OFFCURVE",
"196 537 OFFCURVE",
"196 351 CURVE SMOOTH"
);
}
);
width = 765;
},
{
layerId = "3C8330F3-4770-4812-9C95-859F387513C1";
paths = (
{
closed = 1;
nodes = (
"40 155 OFFCURVE",
"191 -3 OFFCURVE",
"380 -3 CURVE SMOOTH",
"567 -3 OFFCURVE",
"719 151 OFFCURVE",
"719 347 CURVE SMOOTH",
"719 540 OFFCURVE",
"569 703 OFFCURVE",
"380 703 CURVE SMOOTH",
"196 703 OFFCURVE",
"40 542 OFFCURVE",
"40 347 CURVE SMOOTH"
);
},
{
closed = 1;
nodes = (
"93 513 OFFCURVE",
"218 658 OFFCURVE",
"380 658 CURVE SMOOTH",
"542 658 OFFCURVE",
"666 512 OFFCURVE",
"666 347 CURVE SMOOTH",
"666 183 OFFCURVE",
"542 42 OFFCURVE",
"380 42 CURVE SMOOTH",
"218 42 OFFCURVE",
"93 183 OFFCURVE",
"93 347 CURVE SMOOTH"
);
},
{
closed = 1;
nodes = (
"187 160 OFFCURVE",
"376 58 OFFCURVE",
"522 187 CURVE",
"497 221 LINE",
"386 117 OFFCURVE",
"230 192 OFFCURVE",
"230 344 CURVE SMOOTH",
"230 491 OFFCURVE",
"377 551 OFFCURVE",
"497 463 CURVE",
"522 496 LINE",
"377 614 OFFCURVE",
"187 528 OFFCURVE",
"187 344 CURVE SMOOTH"
);
}
);
width = 759;
}
);
unicode = 00A9;
},
{
color = 5;
glyphname = registered;
layers = (
{
layerId = "4BC9CD2E-8AD0-40CC-97AA-8C7B556514B0";
paths = (
{
closed = 1;
nodes = (
"325 322 OFFCURVE",
"406 411 OFFCURVE",
"406 511 CURVE SMOOTH",
"406 609 OFFCURVE",
"328 700 OFFCURVE",
"224 700 CURVE SMOOTH",
"121 700 OFFCURVE",
"40 612 OFFCURVE",
"40 511 CURVE SMOOTH",
"40 412 OFFCURVE",
"120 322 OFFCURVE",
"224 322 CURVE SMOOTH"
);
},
{
closed = 1;
nodes = (
"162 384 OFFCURVE",
"103 439 OFFCURVE",
"103 511 CURVE SMOOTH",
"103 575 OFFCURVE",
"152 637 OFFCURVE",
"224 637 CURVE SMOOTH",
"288 637 OFFCURVE",
"344 583 OFFCURVE",
"344 511 CURVE SMOOTH",
"344 442 OFFCURVE",
"288 384 OFFCURVE",
"224 384 CURVE SMOOTH"
);
},
{
closed = 1;
nodes = (
"208 426 LINE",
"208 483 LINE",
"208 483 LINE",
"246 426 LINE",
"298 426 LINE",
"260 494 LINE",
"275 504 OFFCURVE",
"284 521 OFFCURVE",
"284 538 CURVE SMOOTH",
"284 568 OFFCURVE",
"261 593 OFFCURVE",
"231 593 CURVE SMOOTH",
"160 593 LINE",
"160 426 LINE"
);
},
{
closed = 1;
nodes = (
"206 554 LINE",
"231 554 LINE",
"234 554 OFFCURVE",
"241 549 OFFCURVE",
"241 539 CURVE SMOOTH",
"241 525 OFFCURVE",
"234 523 OFFCURVE",
"230 523 CURVE",
"206 523 LINE"
);
}
);
width = 446;
},
{
layerId = "3C8330F3-4770-4812-9C95-859F387513C1";
paths = (
{
closed = 1;
nodes = (
"322 322 OFFCURVE",
"406 405 OFFCURVE",
"406 511 CURVE SMOOTH",
"406 614 OFFCURVE",
"326 700 OFFCURVE",
"224 700 CURVE SMOOTH",
"121 700 OFFCURVE",
"40 614 OFFCURVE",
"40 511 CURVE SMOOTH",
"40 409 OFFCURVE",
"123 322 OFFCURVE",
"224 322 CURVE SMOOTH"
);
},
{
closed = 1;
nodes = (
"148 359 OFFCURVE",
"78 427 OFFCURVE",
"78 511 CURVE SMOOTH",
"78 593 OFFCURVE",
"143 662 OFFCURVE",
"224 662 CURVE SMOOTH",
"305 662 OFFCURVE",
"369 592 OFFCURVE",
"369 511 CURVE SMOOTH",
"369 430 OFFCURVE",
"302 359 OFFCURVE",
"224 359 CURVE SMOOTH"
);
},
{
closed = 1;
nodes = (
"196 419 LINE",
"196 492 LINE",
"213.534 492 LINE",
"258.534 419 LINE",
"300.434 419 LINE",
"252.176 496.213 LINE",
"275.697 510.825 OFFCURVE",
"288 529.449 OFFCURVE",
"288 551 CURVE SMOOTH",
"288 582.601 OFFCURVE",
"263.963 609 OFFCURVE",
"235 609 CURVE SMOOTH",
"161 609 LINE",
"161 419 LINE"
);
},
{
closed = 1;
nodes = (
"196 574 LINE",
"235 574 LINE SMOOTH",
"243.641 574 OFFCURVE",
"252 563.041 OFFCURVE",
"252 551 CURVE SMOOTH",
"252 538.435 OFFCURVE",
"243.176 527 OFFCURVE",
"234 527 CURVE SMOOTH",
"196 527 LINE"
);
}
);
width = 446;
}
);
unicode = 00AE;
},
{
color = 5;
glyphname = trademark;
layers = (
{
layerId = "4BC9CD2E-8AD0-40CC-97AA-8C7B556514B0";
paths = (
{
closed = 1;
nodes = (
"653 700 LINE",
"526 700 LINE",
"461 529 LINE",
"395 700 LINE",
"40 700 LINE",
"40 608 LINE",
"134 608 LINE",
"134 342 LINE",
"232 342 LINE",
"232 608 LINE",
"271 608 LINE",
"271 342 LINE",
"369 342 LINE",
"369 543 LINE",
"369 543 LINE",
"424 393 LINE",
"500 393 LINE",
"554 543 LINE",
"554 543 LINE",
"554 342 LINE",
"653 342 LINE"
);
}
);
width = 693;
},
{
layerId = "3C8330F3-4770-4812-9C95-859F387513C1";
paths = (
{
closed = 1;
nodes = (
"641 700 LINE",
"546 700 LINE",
"462 463 LINE",
"378 700 LINE",
"40 700 LINE",
"40 659 LINE",
"144 659 LINE",
"144 350 LINE",
"187 350 LINE",
"187 659 LINE",
"284 659 LINE",
"284 350 LINE",
"327 350 LINE",
"327 659 LINE",
"346 659 LINE",
"439 404 LINE",
"485 404 LINE",
"578 659 LINE",
"597 659 LINE",
"597 350 LINE",
"641 350 LINE"
);
}
);
width = 681;
}
);
unicode = 2122;
},
{
color = 5;
glyphname = degree;
layers = (
{
layerId = "4BC9CD2E-8AD0-40CC-97AA-8C7B556514B0";
paths = (
{
closed = 1;
nodes = (
"327 473 OFFCURVE",
"327 556 CURVE SMOOTH",
"327 637 OFFCURVE",
"265 700 OFFCURVE",
"184 700 CURVE SMOOTH",
"104 700 OFFCURVE",
"40 636 OFFCURVE",
"40 556 CURVE SMOOTH",
"40 481 OFFCURVE",
"103 413 OFFCURVE",
"184 413 CURVE SMOOTH",
"261 413 OFFCURVE"
);
},
{
closed = 1;
nodes = (
"219 619 OFFCURVE",
"246 591 OFFCURVE",
"246 556 CURVE SMOOTH",
"246 521 OFFCURVE",
"219 494 OFFCURVE",
"184 494 CURVE SMOOTH",
"149 494 OFFCURVE",
"121 521 OFFCURVE",
"121 556 CURVE SMOOTH",
"121 591 OFFCURVE",
"149 619 OFFCURVE",
"184 619 CURVE SMOOTH"
);
}
);
width = 367;
},
{
layerId = "3C8330F3-4770-4812-9C95-859F387513C1";
paths = (
{
closed = 1;
nodes = (
"327 473 OFFCURVE",
"327 556 CURVE SMOOTH",
"327 637 OFFCURVE",
"265 700 OFFCURVE",
"184 700 CURVE SMOOTH",
"104 700 OFFCURVE",
"40 636 OFFCURVE",
"40 556 CURVE SMOOTH",
"40 481 OFFCURVE",
"103 413 OFFCURVE",
"184 413 CURVE SMOOTH",
"261 413 OFFCURVE"
);
},
{
closed = 1;
nodes = (
"241 656 OFFCURVE",
"283 612 OFFCURVE",
"283 556 CURVE SMOOTH",
"283 500 OFFCURVE",
"240 457 OFFCURVE",
"184 457 CURVE SMOOTH",
"131 457 OFFCURVE",
"84 497 OFFCURVE",
"84 556 CURVE SMOOTH",
"84 613 OFFCURVE",
"127 656 OFFCURVE",
"184 656 CURVE SMOOTH"
);
}
);
width = 367;
}
);
unicode = 00B0;
},
{
color = 5;
glyphname = bar;
layers = (
{
layerId = "4BC9CD2E-8AD0-40CC-97AA-8C7B556514B0";
paths = (
{
closed = 1;
nodes = (
"159 698 LINE",
"50 698 LINE",
"50 -58 LINE",
"159 -58 LINE"
);
}
);
width = 209;
},
{
layerId = "3C8330F3-4770-4812-9C95-859F387513C1";
paths = (
{
closed = 1;
nodes = (
"100 698 LINE",
"50 698 LINE",
"50 -58 LINE",
"100 -58 LINE"
);
}
);
width = 150;
}
);
unicode = 007C;
},
{
color = 5;
glyphname = brokenbar;
layers = (
{
layerId = "4BC9CD2E-8AD0-40CC-97AA-8C7B556514B0";
paths = (
{
closed = 1;
nodes = (
"160 700 LINE",
"50 700 LINE",
"50 360 LINE",
"160 360 LINE"
);
},
{
closed = 1;
nodes = (
"160 203 LINE",
"50 203 LINE",
"50 -137 LINE",
"160 -137 LINE"
);
}
);
width = 210;
},
{
layerId = "3C8330F3-4770-4812-9C95-859F387513C1";
paths = (
{
closed = 1;
nodes = (
"100 700 LINE",
"50 700 LINE",
"50 360 LINE",
"100 360 LINE"
);
},
{
closed = 1;
nodes = (
"100 203 LINE",
"50 203 LINE",
"50 -137 LINE",
"100 -137 LINE"
);
}
);
width = 150;
}
);
unicode = 00A6;
},
{
color = 5;
glyphname = dagger;
layers = (
{
layerId = "4BC9CD2E-8AD0-40CC-97AA-8C7B556514B0";
paths = (
{
closed = 1;
nodes = (
"310 594 LINE",
"235 594 LINE",
"235 700 LINE",
"125 700 LINE",
"125 593 LINE",
"50 593 LINE",
"50 504 LINE",
"125 504 LINE",
"125 205 LINE",
"235 205 LINE",
"235 504 LINE",
"310 504 LINE"
);
}
);
width = 360;
},
{
layerId = "3C8330F3-4770-4812-9C95-859F387513C1";
paths = (
{
closed = 1;
nodes = (
"310 594 LINE",
"205 594 LINE",
"205 700 LINE",
"155 700 LINE",
"155 593 LINE",
"50 593 LINE",
"50 544 LINE",
"155 544 LINE",
"155 205 LINE",
"205 205 LINE",
"205 544 LINE",
"310 544 LINE"
);
}
);
width = 360;
}
);
unicode = 2020;
},
{
color = 5;
glyphname = daggerdbl;
layers = (
{
layerId = "4BC9CD2E-8AD0-40CC-97AA-8C7B556514B0";
paths = (
{
closed = 1;
nodes = (
"310 411 LINE",
"235 411 LINE",
"235 487 LINE",
"310 487 LINE",
"310 597 LINE",
"235 597 LINE",
"235 701 LINE",
"125 701 LINE",
"125 595 LINE",
"50 595 LINE",
"50 487 LINE",
"125 487 LINE",
"125 411 LINE",
"50 411 LINE",
"50 301 LINE",
"125 301 LINE",
"125 206 LINE",
"235 206 LINE",
"235 302 LINE",
"310 302 LINE"
);
}
);
width = 360;
},
{
layerId = "3C8330F3-4770-4812-9C95-859F387513C1";
paths = (
{
closed = 1;
nodes = (
"310 411 LINE",
"205 411 LINE",
"205 487 LINE",
"310 487 LINE",
"310 537 LINE",
"205 537 LINE",
"205 701 LINE",
"155 701 LINE",
"155 535 LINE",
"50 535 LINE",
"50 487 LINE",
"155 487 LINE",
"155 411 LINE",
"50 411 LINE",
"50 361 LINE",
"155 361 LINE",
"155 206 LINE",
"205 206 LINE",
"205 363 LINE",
"310 363 LINE"
);
}
);
width = 360;
}
);
unicode = 2021;
},
{
glyphname = dieresiscomb;
layers = (
{
anchors = (
{
name = _top;
position = "{183, 530}";
},
{
name = top;
position = "{183, 705}";
}
);
layerId = "4BC9CD2E-8AD0-40CC-97AA-8C7B556514B0";
paths = (
{
closed = 1;
nodes = (
"121 600 OFFCURVE",
"145 624 OFFCURVE",
"145 653 CURVE SMOOTH",
"145 681 OFFCURVE",
"121 705 OFFCURVE",
"92 705 CURVE SMOOTH",
"64 705 OFFCURVE",
"40 681 OFFCURVE",
"40 653 CURVE SMOOTH",
"40 624 OFFCURVE",
"64 600 OFFCURVE",
"92 600 CURVE SMOOTH"
);
},
{
closed = 1;
nodes = (
"301 600 OFFCURVE",
"325 624 OFFCURVE",
"325 653 CURVE SMOOTH",
"325 681 OFFCURVE",
"301 705 OFFCURVE",
"272 705 CURVE SMOOTH",
"244 705 OFFCURVE",
"220 681 OFFCURVE",
"220 653 CURVE SMOOTH",
"220 624 OFFCURVE",
"244 600 OFFCURVE",
"272 600 CURVE SMOOTH"
);
}
);
width = 365;
},
{
anchors = (
{
name = _top;
position = "{164, 540}";
},
{
name = top;
position = "{164, 698}";
}
);
layerId = "3C8330F3-4770-4812-9C95-859F387513C1";
paths = (
{
closed = 1;
nodes = (
"100 620 OFFCURVE",
"118 638 OFFCURVE",
"118 659 CURVE SMOOTH",
"118 680 OFFCURVE",
"100 698 OFFCURVE",
"79 698 CURVE SMOOTH",
"58 698 OFFCURVE",
"40 680 OFFCURVE",
"40 659 CURVE SMOOTH",
"40 638 OFFCURVE",
"58 620 OFFCURVE",
"79 620 CURVE SMOOTH"
);
},
{
closed = 1;
nodes = (
"279 620 OFFCURVE",
"297 638 OFFCURVE",
"297 659 CURVE SMOOTH",
"297 680 OFFCURVE",
"279 698 OFFCURVE",
"258 698 CURVE SMOOTH",
"237 698 OFFCURVE",
"219 680 OFFCURVE",
"219 659 CURVE SMOOTH",
"219 638 OFFCURVE",
"237 620 OFFCURVE",
"258 620 CURVE SMOOTH"
);
}
);
width = 337;
}
);
unicode = 0308;
},
{
glyphname = dotaccentcomb;
layers = (
{
anchors = (
{
name = _top;
position = "{93, 530}";
},
{
name = top;
position = "{93, 705}";
}
);
layerId = "4BC9CD2E-8AD0-40CC-97AA-8C7B556514B0";
paths = (
{
closed = 1;
nodes = (
"121 600 OFFCURVE",
"145 624 OFFCURVE",
"145 653 CURVE SMOOTH",
"145 681 OFFCURVE",
"121 705 OFFCURVE",
"92 705 CURVE SMOOTH",
"64 705 OFFCURVE",
"40 681 OFFCURVE",
"40 653 CURVE SMOOTH",
"40 624 OFFCURVE",
"64 600 OFFCURVE",
"92 600 CURVE SMOOTH"
);
}
);
width = 185;
},
{
anchors = (
{
name = _top;
position = "{79, 540}";
},
{
name = top;
position = "{79, 698}";
}
);
layerId = "3C8330F3-4770-4812-9C95-859F387513C1";
paths = (
{
closed = 1;
nodes = (
"100 620 OFFCURVE",
"118 638 OFFCURVE",
"118 659 CURVE SMOOTH",
"118 680 OFFCURVE",
"100 698 OFFCURVE",
"79 698 CURVE SMOOTH",
"58 698 OFFCURVE",
"40 680 OFFCURVE",
"40 659 CURVE SMOOTH",
"40 638 OFFCURVE",
"58 620 OFFCURVE",
"79 620 CURVE SMOOTH"
);
}
);
width = 158;
}
);
unicode = 0307;
},
{
glyphname = gravecomb;
layers = (
{
anchors = (
{
name = _top;
position = "{96, 530}";
},
{
name = top;
position = "{96, 739}";
}
);
layerId = "4BC9CD2E-8AD0-40CC-97AA-8C7B556514B0";
paths = (
{
closed = 1;
nodes = (
"115 739 LINE",
"40 739 LINE",
"79 604 LINE",
"138 604 LINE"
);
}
);
width = 178;
},
{
anchors = (
{
name = _top;
position = "{97, 540}";
},
{
name = top;
position = "{97, 739}";
}
);
layerId = "3C8330F3-4770-4812-9C95-859F387513C1";
paths = (
{
closed = 1;
nodes = (
"95 739 LINE",
"40 739 LINE",
"80 606 LINE",
"122 606 LINE"
);
}
);
width = 162;
}
);
unicode = 0300;
},
{
glyphname = circumflexcomb;
layers = (
{
anchors = (
{
name = _top;
position = "{170, 520}";
},
{
name = top;
position = "{170, 700}";
}
);
layerId = "4BC9CD2E-8AD0-40CC-97AA-8C7B556514B0";
paths = (
{
closed = 1;
nodes = (
"127 589 LINE",
"170 639 LINE",
"213 589 LINE",
"300 589 LINE",
"198 700 LINE",
"142 700 LINE",
"40 589 LINE"
);
}
);
width = 340;
},
{
anchors = (
{
name = _top;
position = "{160, 520}";
},
{
name = top;
position = "{160, 700}";
}
);
layerId = "3C8330F3-4770-4812-9C95-859F387513C1";
paths = (
{
closed = 1;
nodes = (
"96 589 LINE",
"160 662 LINE",
"224 589 LINE",
"280 589 LINE",
"179 700 LINE",
"141 700 LINE",
"40 589 LINE"
);
}
);
width = 320;
}
);
unicode = 0302;
},
{
glyphname = caroncomb;
layers = (
{
anchors = (
{
name = _top;
position = "{170, 520}";
},
{
name = top;
position = "{170, 700}";
}
);
layerId = "4BC9CD2E-8AD0-40CC-97AA-8C7B556514B0";
paths = (
{
closed = 1;
nodes = (
"198 589 LINE",
"300 700 LINE",
"213 700 LINE",
"170 650 LINE",
"127 700 LINE",
"40 700 LINE",
"142 589 LINE"
);
}
);
width = 340;
},
{
anchors = (
{
name = _top;
position = "{160, 520}";
},
{
name = top;
position = "{160, 700}";
}
);
layerId = "3C8330F3-4770-4812-9C95-859F387513C1";
paths = (
{
closed = 1;
nodes = (
"179 589 LINE",
"280 700 LINE",
"224 700 LINE",
"160 627 LINE",
"96 700 LINE",
"40 700 LINE",
"141 589 LINE"
);
}
);
width = 320;
}
);
unicode = 030C;
},
{
glyphname = brevecomb;
layers = (
{
anchors = (
{
name = _top;
position = "{155, 520}";
},
{
name = top;
position = "{155, 701}";
}
);
layerId = "4BC9CD2E-8AD0-40CC-97AA-8C7B556514B0";
paths = (
{
closed = 1;
nodes = (
"219 586 OFFCURVE",
"269 628 OFFCURVE",
"269 701 CURVE",
"193 701 LINE",
"193 666 OFFCURVE",
"175 653 OFFCURVE",
"154 653 CURVE SMOOTH",
"134 653 OFFCURVE",
"116 666 OFFCURVE",
"116 701 CURVE",
"40 701 LINE",
"40 631 OFFCURVE",
"88 586 OFFCURVE",
"154 586 CURVE SMOOTH"
);
}
);
width = 309;
},
{
anchors = (
{
name = _top;
position = "{154, 520}";
},
{
name = top;
position = "{154, 700}";
}
);
layerId = "3C8330F3-4770-4812-9C95-859F387513C1";
paths = (
{
closed = 1;
nodes = (
"211 585 OFFCURVE",
"261 633 OFFCURVE",
"267 700 CURVE",
"229 700 LINE",
"222 653 OFFCURVE",
"196 620 OFFCURVE",
"153 620 CURVE SMOOTH",
"110 620 OFFCURVE",
"85 655 OFFCURVE",
"78 700 CURVE",
"40 700 LINE",
"45 635 OFFCURVE",
"93 585 OFFCURVE",
"153 585 CURVE SMOOTH"
);
}
);
width = 307;
}
);
unicode = 0306;
},
{
glyphname = ringcomb;
layers = (
{
anchors = (
{
name = _top;
position = "{130, 520}";
},
{
name = top;
position = "{130, 736}";
}
);
layerId = "4BC9CD2E-8AD0-40CC-97AA-8C7B556514B0";
paths = (
{
closed = 1;
nodes = (
"179 571 OFFCURVE",
"220 612 OFFCURVE",
"220 661 CURVE SMOOTH",
"220 709 OFFCURVE",
"179 751 OFFCURVE",
"130 751 CURVE SMOOTH",
"82 751 OFFCURVE",
"40 709 OFFCURVE",
"40 661 CURVE SMOOTH",
"40 612 OFFCURVE",
"82 571 OFFCURVE",
"130 571 CURVE SMOOTH"
);
},
{
closed = 1;
nodes = (
"148 697 OFFCURVE",
"166 682 OFFCURVE",
"166 664 CURVE SMOOTH",
"166 640 OFFCURVE",
"148 625 OFFCURVE",
"130 625 CURVE SMOOTH",
"109 625 OFFCURVE",
"94 640 OFFCURVE",
"94 664 CURVE SMOOTH",
"94 682 OFFCURVE",
"109 697 OFFCURVE",
"130 697 CURVE SMOOTH"
);
}
);
width = 260;
},
{
anchors = (
{
name = _top;
position = "{113, 520}";
},
{
name = top;
position = "{113, 729}";
}
);
layerId = "3C8330F3-4770-4812-9C95-859F387513C1";
paths = (
{
closed = 1;
nodes = (
"153 583 OFFCURVE",
"186 616 OFFCURVE",
"186 656 CURVE SMOOTH",
"186 695 OFFCURVE",
"153 729 OFFCURVE",
"113 729 CURVE SMOOTH",
"74 729 OFFCURVE",
"40 695 OFFCURVE",
"40 656 CURVE SMOOTH",
"40 616 OFFCURVE",
"74 583 OFFCURVE",
"113 583 CURVE SMOOTH"
);
},
{
closed = 1;
nodes = (
"138 698 OFFCURVE",
"155 679 OFFCURVE",
"155 656 CURVE SMOOTH",
"155 632 OFFCURVE",
"136 614 OFFCURVE",
"113 614 CURVE SMOOTH",
"90 614 OFFCURVE",
"71 631 OFFCURVE",
"71 656 CURVE SMOOTH",
"71 679 OFFCURVE",
"90 698 OFFCURVE",
"113 698 CURVE SMOOTH"
);
}
);
width = 226;
}
);
unicode = 030A;
},
{
glyphname = tildecomb;
layers = (
{
anchors = (
{
name = _top;
position = "{177, 520}";
},
{
name = top;
position = "{177, 702}";
}
);
layerId = "4BC9CD2E-8AD0-40CC-97AA-8C7B556514B0";
paths = (
{
closed = 1;
nodes = (
"302 597 OFFCURVE",
"314 653 OFFCURVE",
"314 700 CURVE",
"238 700 LINE",
"238 672 OFFCURVE",
"232 665 OFFCURVE",
"216 665 CURVE SMOOTH",
"196 665 OFFCURVE",
"191 702 OFFCURVE",
"140 702 CURVE SMOOTH",
"77 702 OFFCURVE",
"40 653 OFFCURVE",
"40 599 CURVE",
"116 599 LINE",
"116 618 OFFCURVE",
"116 634 OFFCURVE",
"140 634 CURVE SMOOTH",
"165 634 OFFCURVE",
"177 597 OFFCURVE",
"216 597 CURVE SMOOTH"
);
}
);
width = 354;
},
{
anchors = (
{
name = _top;
position = "{166, 520}";
},
{
name = top;
position = "{166, 702}";
}
);
layerId = "3C8330F3-4770-4812-9C95-859F387513C1";
paths = (
{
closed = 1;
nodes = (
"262 598 OFFCURVE",
"291 635 OFFCURVE",
"291 700 CURVE",
"254 700 LINE",
"255 667 OFFCURVE",
"242 636 OFFCURVE",
"218 636 CURVE SMOOTH",
"182 636 OFFCURVE",
"183 702 OFFCURVE",
"124 702 CURVE SMOOTH",
"80 702 OFFCURVE",
"40 663 OFFCURVE",
"40 599 CURVE",
"77 599 LINE",
"78 632 OFFCURVE",
"95 665 OFFCURVE",
"123 665 CURVE SMOOTH",
"154 663 OFFCURVE",
"170 598 OFFCURVE",
"218 598 CURVE SMOOTH"
);
}
);
width = 331;
}
);
unicode = 0303;
},
{
glyphname = macroncomb;
layers = (
{
anchors = (
{
name = _top;
position = "{165, 560}";
},
{
name = top;
position = "{165, 703}";
}
);
layerId = "4BC9CD2E-8AD0-40CC-97AA-8C7B556514B0";
paths = (
{
closed = 1;
nodes = (
"290 703 LINE",
"40 703 LINE",
"40 638 LINE",
"290 638 LINE"
);
}
);
width = 330;
},
{
anchors = (
{
name = _top;
position = "{165, 560}";
},
{
name = top;
position = "{165, 700}";
}
);
layerId = "3C8330F3-4770-4812-9C95-859F387513C1";
paths = (
{
closed = 1;
nodes = (
"290 700 LINE",
"40 700 LINE",
"40 655 LINE",
"290 655 LINE"
);
}
);
width = 330;
}
);
unicode = 0304;
},
{
glyphname = cedillacomb;
layers = (
{
anchors = (
{
name = _bottom;
position = "{133, 0}";
},
{
name = bottom;
position = "{133, -191}";
}
);
layerId = "4BC9CD2E-8AD0-40CC-97AA-8C7B556514B0";
paths = (
{
closed = 1;
nodes = (
"239 -191 OFFCURVE",
"264 -27 OFFCURVE",
"158 -13 CURVE",
"184 29 LINE",
"121 51 LINE",
"69 -34 LINE",
"87 -79 LINE",
"112 -47 OFFCURVE",
"168 -61 OFFCURVE",
"168 -102 CURVE SMOOTH",
"168 -150 OFFCURVE",
"96 -149 OFFCURVE",
"81 -115 CURVE",
"40 -137 LINE",
"63 -177 OFFCURVE",
"99 -191 OFFCURVE",
"128 -191 CURVE SMOOTH"
);
}
);
width = 266;
},
{
anchors = (
{
name = _bottom;
position = "{122, 0}";
},
{
name = bottom;
position = "{122, -187}";
}
);
layerId = "3C8330F3-4770-4812-9C95-859F387513C1";
paths = (
{
closed = 1;
nodes = (
"235 -187 OFFCURVE",
"239 -20 OFFCURVE",
"108 -28 CURVE",
"139 14 LINE",
"107 25 LINE",
"60 -40 LINE",
"60 -79 LINE",
"94 -49 OFFCURVE",
"162 -54 OFFCURVE",
"167 -104 CURVE SMOOTH",
"171 -151 OFFCURVE",
"97 -173 OFFCURVE",
"66 -127 CURVE",
"40 -150 LINE",
"53 -172 OFFCURVE",
"81 -187 OFFCURVE",
"110 -187 CURVE SMOOTH"
);
}
);
width = 245;
}
);
unicode = 0327;
},
{
glyphname = ogonekcomb;
layers = (
{
anchors = (
{
name = _ogonek;
position = "{154, 10}";
}
);
layerId = "4BC9CD2E-8AD0-40CC-97AA-8C7B556514B0";
paths = (
{
closed = 1;
nodes = (
"183 -77 LINE",
"165 -90 OFFCURVE",
"140 -100 OFFCURVE",
"125 -82 CURVE SMOOTH",
"111 -64 OFFCURVE",
"133 -25 OFFCURVE",
"158 11 CURVE",
"78 12 LINE",
"38 -51 OFFCURVE",
"30 -100 OFFCURVE",
"53 -134 CURVE",
"88 -178 OFFCURVE",
"165 -176 OFFCURVE",
"225 -134 CURVE"
);
}
);
width = 265;
},
{
anchors = (
{
name = _ogonek;
position = "{133, 10}";
}
);
layerId = "3C8330F3-4770-4812-9C95-859F387513C1";
paths = (
{
closed = 1;
nodes = (
"183 -123 LINE",
"155 -141 OFFCURVE",
"110 -140 OFFCURVE",
"90 -115 CURVE SMOOTH",
"67 -87 OFFCURVE",
"98 -21 OFFCURVE",
"124 6 CURVE",
"79 6 LINE",
"42 -53 OFFCURVE",
"29 -115 OFFCURVE",
"49 -144 CURVE",
"76 -176 OFFCURVE",
"147 -191 OFFCURVE",
"205 -153 CURVE"
);
}
);
width = 245;
}
);
unicode = 0328;
},
{
glyphname = strokeshortcomb;
layers = (
{
anchors = (
{
name = _center;
position = "{210, 312}";
}
);
layerId = "4BC9CD2E-8AD0-40CC-97AA-8C7B556514B0";
paths = (
{
closed = 1;
nodes = (
"420 347 LINE",
"0 347 LINE",
"0 277 LINE",
"420 277 LINE"
);
}
);
width = 420;
},
{
anchors = (
{
name = _center;
position = "{210, 315}";
}
);
layerId = "3C8330F3-4770-4812-9C95-859F387513C1";
paths = (
{
closed = 1;
nodes = (
"420 337 LINE",
"0 337 LINE",
"0 292 LINE",
"420 292 LINE"
);
}
);
width = 420;
}
);
unicode = 0335;
},
{
glyphname = strokelongcomb;
layers = (
{
anchors = (
{
name = _center;
position = "{301, 312}";
}
);
layerId = "4BC9CD2E-8AD0-40CC-97AA-8C7B556514B0";
paths = (
{
closed = 1;
nodes = (
"601 347 LINE",
"0 347 LINE",
"0 277 LINE",
"601 277 LINE"
);
}
);
width = 601;
},
{
anchors = (
{
name = _center;
position = "{301, 315}";
}
);
layerId = "3C8330F3-4770-4812-9C95-859F387513C1";
paths = (
{
closed = 1;
nodes = (
"601 337 LINE",
"0 337 LINE",
"0 292 LINE",
"601 292 LINE"
);
}
);
width = 601;
}
);
unicode = 0336;
},
{
glyphname = slashshortcomb;
layers = (
{
anchors = (
{
name = _center;
position = "{241, 282}";
}
);
layerId = "4BC9CD2E-8AD0-40CC-97AA-8C7B556514B0";
paths = (
{
closed = 1;
nodes = (
"373 564 LINE",
"0 0 LINE",
"108 0 LINE",
"482 564 LINE"
);
}
);
width = 482;
},
{
anchors = (
{
name = _center;
position = "{216, 282}";
}
);
layerId = "3C8330F3-4770-4812-9C95-859F387513C1";
paths = (
{
closed = 1;
nodes = (
"384 564 LINE",
"0 0 LINE",
"47 0 LINE",
"432 564 LINE"
);
}
);
width = 432;
}
);
unicode = 0337;
},
{
glyphname = slashlongcomb;
layers = (
{
anchors = (
{
name = _center;
position = "{251, 257}";
}
);
layerId = "4BC9CD2E-8AD0-40CC-97AA-8C7B556514B0";
paths = (
{
closed = 1;
nodes = (
"352 547 LINE",
"40 -34 LINE",
"148 -34 LINE",
"461 547 LINE"
);
}
);
width = 501;
},
{
anchors = (
{
name = _center;
position = "{226, 265}";
}
);
layerId = "3C8330F3-4770-4812-9C95-859F387513C1";
paths = (
{
closed = 1;
nodes = (
"362 549 LINE",
"40 -20 LINE",
"88 -20 LINE",
"411 549 LINE"
);
}
);
width = 451;
}
);
unicode = 0338;
},
